<?xml version="1.0" encoding="utf-8" standalone="no"?>
<!DOCTYPE svg PUBLIC "-//W3C//DTD SVG 1.1//EN"
  "http://www.w3.org/Graphics/SVG/1.1/DTD/svg11.dtd">
<svg xmlns:xlink="http://www.w3.org/1999/xlink" width="864pt" height="576pt" viewBox="0 0 864 576" xmlns="http://www.w3.org/2000/svg" version="1.1">
 <metadata>
  <rdf:RDF xmlns:dc="http://purl.org/dc/elements/1.1/" xmlns:cc="http://creativecommons.org/ns#" xmlns:rdf="http://www.w3.org/1999/02/22-rdf-syntax-ns#">
   <cc:Work>
    <dc:type rdf:resource="http://purl.org/dc/dcmitype/StillImage"/>
    <dc:date>2023-10-27T13:02:00.404970</dc:date>
    <dc:format>image/svg+xml</dc:format>
    <dc:creator>
     <cc:Agent>
      <dc:title>Matplotlib v3.7.3, https://matplotlib.org/</dc:title>
     </cc:Agent>
    </dc:creator>
   </cc:Work>
  </rdf:RDF>
 </metadata>
 <defs>
  <style type="text/css">*{stroke-linejoin: round; stroke-linecap: butt}</style>
 </defs>
 <g id="figure_1">
  <g id="patch_1">
   <path d="M 0 576 
L 864 576 
L 864 0 
L 0 0 
z
" style="fill: #ffffff"/>
  </g>
  <g id="axes_1">
   <g id="patch_2">
    <path d="M 33.64 478.014091 
L 853.2 478.014091 
L 853.2 10.8 
L 33.64 10.8 
z
" style="fill: #ffffff"/>
   </g>
   <g id="PathCollection_1">
    <defs>
     <path id="m89a71107c3" d="M 0 5 
C 1.326016 5 2.597899 4.473168 3.535534 3.535534 
C 4.473168 2.597899 5 1.326016 5 0 
C 5 -1.326016 4.473168 -2.597899 3.535534 -3.535534 
C 2.597899 -4.473168 1.326016 -5 0 -5 
C -1.326016 -5 -2.597899 -4.473168 -3.535534 -3.535534 
C -4.473168 -2.597899 -5 -1.326016 -5 0 
C -5 1.326016 -4.473168 2.597899 -3.535534 3.535534 
C -2.597899 4.473168 -1.326016 5 0 5 
z
" style="stroke: #8000ff"/>
    </defs>
    <g clip-path="url(#p3b9a416c8a)">
     <use xlink:href="#m89a71107c3" x="70.892727" y="455.814859" style="fill: #8000ff; stroke: #8000ff"/>
    </g>
   </g>
   <g id="PathCollection_2">
    <defs>
     <path id="m71a5c64f7a" d="M 0 5 
C 1.326016 5 2.597899 4.473168 3.535534 3.535534 
C 4.473168 2.597899 5 1.326016 5 0 
C 5 -1.326016 4.473168 -2.597899 3.535534 -3.535534 
C 2.597899 -4.473168 1.326016 -5 0 -5 
C -1.326016 -5 -2.597899 -4.473168 -3.535534 -3.535534 
C -4.473168 -2.597899 -5 -1.326016 -5 0 
C -5 1.326016 -4.473168 2.597899 -3.535534 3.535534 
C -2.597899 4.473168 -1.326016 5 0 5 
z
" style="stroke: #2c7ef7"/>
    </defs>
    <g clip-path="url(#p3b9a416c8a)">
     <use xlink:href="#m71a5c64f7a" x="70.892727" y="456.777087" style="fill: #2c7ef7; stroke: #2c7ef7"/>
    </g>
   </g>
   <g id="PathCollection_3">
    <defs>
     <path id="m18f4c1e1ec" d="M 0 5 
C 1.326016 5 2.597899 4.473168 3.535534 3.535534 
C 4.473168 2.597899 5 1.326016 5 0 
C 5 -1.326016 4.473168 -2.597899 3.535534 -3.535534 
C 2.597899 -4.473168 1.326016 -5 0 -5 
C -1.326016 -5 -2.597899 -4.473168 -3.535534 -3.535534 
C -4.473168 -2.597899 -5 -1.326016 -5 0 
C -5 1.326016 -4.473168 2.597899 -3.535534 3.535534 
C -2.597899 4.473168 -1.326016 5 0 5 
z
" style="stroke: #2adddd"/>
    </defs>
    <g clip-path="url(#p3b9a416c8a)">
     <use xlink:href="#m18f4c1e1ec" x="70.892727" y="452.670263" style="fill: #2adddd; stroke: #2adddd"/>
    </g>
   </g>
   <g id="PathCollection_4">
    <defs>
     <path id="m3c32f5b6d2" d="M 0 5 
C 1.326016 5 2.597899 4.473168 3.535534 3.535534 
C 4.473168 2.597899 5 1.326016 5 0 
C 5 -1.326016 4.473168 -2.597899 3.535534 -3.535534 
C 2.597899 -4.473168 1.326016 -5 0 -5 
C -1.326016 -5 -2.597899 -4.473168 -3.535534 -3.535534 
C -4.473168 -2.597899 -5 -1.326016 -5 0 
C -5 1.326016 -4.473168 2.597899 -3.535534 3.535534 
C -2.597899 4.473168 -1.326016 5 0 5 
z
" style="stroke: #80ffb4"/>
    </defs>
    <g clip-path="url(#p3b9a416c8a)">
     <use xlink:href="#m3c32f5b6d2" x="70.892727" y="443.981036" style="fill: #80ffb4; stroke: #80ffb4"/>
    </g>
   </g>
   <g id="PathCollection_5">
    <defs>
     <path id="mecd167a0fa" d="M 0 5 
C 1.326016 5 2.597899 4.473168 3.535534 3.535534 
C 4.473168 2.597899 5 1.326016 5 0 
C 5 -1.326016 4.473168 -2.597899 3.535534 -3.535534 
C 2.597899 -4.473168 1.326016 -5 0 -5 
C -1.326016 -5 -2.597899 -4.473168 -3.535534 -3.535534 
C -4.473168 -2.597899 -5 -1.326016 -5 0 
C -5 1.326016 -4.473168 2.597899 -3.535534 3.535534 
C -2.597899 4.473168 -1.326016 5 0 5 
z
" style="stroke: #d4dd80"/>
    </defs>
    <g clip-path="url(#p3b9a416c8a)">
     <use xlink:href="#mecd167a0fa" x="70.892727" y="436.912858" style="fill: #d4dd80; stroke: #d4dd80"/>
    </g>
   </g>
   <g id="PathCollection_6">
    <defs>
     <path id="mf491d7b5c6" d="M 0 5 
C 1.326016 5 2.597899 4.473168 3.535534 3.535534 
C 4.473168 2.597899 5 1.326016 5 0 
C 5 -1.326016 4.473168 -2.597899 3.535534 -3.535534 
C 2.597899 -4.473168 1.326016 -5 0 -5 
C -1.326016 -5 -2.597899 -4.473168 -3.535534 -3.535534 
C -4.473168 -2.597899 -5 -1.326016 -5 0 
C -5 1.326016 -4.473168 2.597899 -3.535534 3.535534 
C -2.597899 4.473168 -1.326016 5 0 5 
z
" style="stroke: #ff7e41"/>
    </defs>
    <g clip-path="url(#p3b9a416c8a)">
     <use xlink:href="#mf491d7b5c6" x="70.892727" y="431.54846" style="fill: #ff7e41; stroke: #ff7e41"/>
    </g>
   </g>
   <g id="PathCollection_7">
    <defs>
     <path id="m533351080c" d="M 0 5 
C 1.326016 5 2.597899 4.473168 3.535534 3.535534 
C 4.473168 2.597899 5 1.326016 5 0 
C 5 -1.326016 4.473168 -2.597899 3.535534 -3.535534 
C 2.597899 -4.473168 1.326016 -5 0 -5 
C -1.326016 -5 -2.597899 -4.473168 -3.535534 -3.535534 
C -4.473168 -2.597899 -5 -1.326016 -5 0 
C -5 1.326016 -4.473168 2.597899 -3.535534 3.535534 
C -2.597899 4.473168 -1.326016 5 0 5 
z
" style="stroke: #ff0000"/>
    </defs>
    <g clip-path="url(#p3b9a416c8a)">
     <use xlink:href="#m533351080c" x="70.892727" y="426.846888" style="fill: #ff0000; stroke: #ff0000"/>
    </g>
   </g>
   <g id="PathCollection_8">
    <g clip-path="url(#p3b9a416c8a)">
     <use xlink:href="#m89a71107c3" x="145.398182" y="225.902427" style="fill: #8000ff; stroke: #8000ff"/>
    </g>
   </g>
   <g id="PathCollection_9">
    <g clip-path="url(#p3b9a416c8a)">
     <use xlink:href="#m71a5c64f7a" x="145.398182" y="238.702297" style="fill: #2c7ef7; stroke: #2c7ef7"/>
    </g>
   </g>
   <g id="PathCollection_10">
    <g clip-path="url(#p3b9a416c8a)">
     <use xlink:href="#m18f4c1e1ec" x="145.398182" y="255.804976" style="fill: #2adddd; stroke: #2adddd"/>
    </g>
   </g>
   <g id="PathCollection_11">
    <g clip-path="url(#p3b9a416c8a)">
     <use xlink:href="#m3c32f5b6d2" x="145.398182" y="274.635975" style="fill: #80ffb4; stroke: #80ffb4"/>
    </g>
   </g>
   <g id="PathCollection_12">
    <g clip-path="url(#p3b9a416c8a)">
     <use xlink:href="#mecd167a0fa" x="145.398182" y="293.521008" style="fill: #d4dd80; stroke: #d4dd80"/>
    </g>
   </g>
   <g id="PathCollection_13">
    <g clip-path="url(#p3b9a416c8a)">
     <use xlink:href="#mf491d7b5c6" x="145.398182" y="312.550566" style="fill: #ff7e41; stroke: #ff7e41"/>
    </g>
   </g>
   <g id="PathCollection_14">
    <g clip-path="url(#p3b9a416c8a)">
     <use xlink:href="#m533351080c" x="145.398182" y="334.976552" style="fill: #ff0000; stroke: #ff0000"/>
    </g>
   </g>
   <g id="PathCollection_15">
    <g clip-path="url(#p3b9a416c8a)">
     <use xlink:href="#m89a71107c3" x="219.903636" y="188.184707" style="fill: #8000ff; stroke: #8000ff"/>
    </g>
   </g>
   <g id="PathCollection_16">
    <g clip-path="url(#p3b9a416c8a)">
     <use xlink:href="#m71a5c64f7a" x="219.903636" y="184.622706" style="fill: #2c7ef7; stroke: #2c7ef7"/>
    </g>
   </g>
   <g id="PathCollection_17">
    <g clip-path="url(#p3b9a416c8a)">
     <use xlink:href="#m18f4c1e1ec" x="219.903636" y="181.304467" style="fill: #2adddd; stroke: #2adddd"/>
    </g>
   </g>
   <g id="PathCollection_18">
    <g clip-path="url(#p3b9a416c8a)">
     <use xlink:href="#m3c32f5b6d2" x="219.903636" y="179.061988" style="fill: #80ffb4; stroke: #80ffb4"/>
    </g>
   </g>
   <g id="PathCollection_19">
    <g clip-path="url(#p3b9a416c8a)">
     <use xlink:href="#mecd167a0fa" x="219.903636" y="178.498557" style="fill: #d4dd80; stroke: #d4dd80"/>
    </g>
   </g>
   <g id="PathCollection_20">
    <g clip-path="url(#p3b9a416c8a)">
     <use xlink:href="#mf491d7b5c6" x="219.903636" y="180.170453" style="fill: #ff7e41; stroke: #ff7e41"/>
    </g>
   </g>
   <g id="PathCollection_21">
    <g clip-path="url(#p3b9a416c8a)">
     <use xlink:href="#m533351080c" x="219.903636" y="183.522392" style="fill: #ff0000; stroke: #ff0000"/>
    </g>
   </g>
   <g id="PathCollection_22">
    <g clip-path="url(#p3b9a416c8a)">
     <use xlink:href="#m89a71107c3" x="294.409091" y="350.309077" style="fill: #8000ff; stroke: #8000ff"/>
    </g>
   </g>
   <g id="PathCollection_23">
    <g clip-path="url(#p3b9a416c8a)">
     <use xlink:href="#m71a5c64f7a" x="294.409091" y="367.079877" style="fill: #2c7ef7; stroke: #2c7ef7"/>
    </g>
   </g>
   <g id="PathCollection_24">
    <g clip-path="url(#p3b9a416c8a)">
     <use xlink:href="#m18f4c1e1ec" x="294.409091" y="385.81735" style="fill: #2adddd; stroke: #2adddd"/>
    </g>
   </g>
   <g id="PathCollection_25">
    <g clip-path="url(#p3b9a416c8a)">
     <use xlink:href="#m3c32f5b6d2" x="294.409091" y="402.575281" style="fill: #80ffb4; stroke: #80ffb4"/>
    </g>
   </g>
   <g id="PathCollection_26">
    <g clip-path="url(#p3b9a416c8a)">
     <use xlink:href="#mecd167a0fa" x="294.409091" y="417.600598" style="fill: #d4dd80; stroke: #d4dd80"/>
    </g>
   </g>
   <g id="PathCollection_27">
    <g clip-path="url(#p3b9a416c8a)">
     <use xlink:href="#mf491d7b5c6" x="294.409091" y="432.053256" style="fill: #ff7e41; stroke: #ff7e41"/>
    </g>
   </g>
   <g id="PathCollection_28">
    <g clip-path="url(#p3b9a416c8a)">
     <use xlink:href="#m533351080c" x="294.409091" y="446.600457" style="fill: #ff0000; stroke: #ff0000"/>
    </g>
   </g>
   <g id="PathCollection_29">
    <g clip-path="url(#p3b9a416c8a)">
     <use xlink:href="#m89a71107c3" x="368.914545" y="271.685455" style="fill: #8000ff; stroke: #8000ff"/>
    </g>
   </g>
   <g id="PathCollection_30">
    <g clip-path="url(#p3b9a416c8a)">
     <use xlink:href="#m71a5c64f7a" x="368.914545" y="289.997049" style="fill: #2c7ef7; stroke: #2c7ef7"/>
    </g>
   </g>
   <g id="PathCollection_31">
    <g clip-path="url(#p3b9a416c8a)">
     <use xlink:href="#m18f4c1e1ec" x="368.914545" y="317.280247" style="fill: #2adddd; stroke: #2adddd"/>
    </g>
   </g>
   <g id="PathCollection_32">
    <g clip-path="url(#p3b9a416c8a)">
     <use xlink:href="#m3c32f5b6d2" x="368.914545" y="346.122761" style="fill: #80ffb4; stroke: #80ffb4"/>
    </g>
   </g>
   <g id="PathCollection_33">
    <g clip-path="url(#p3b9a416c8a)">
     <use xlink:href="#mecd167a0fa" x="368.914545" y="366.263222" style="fill: #d4dd80; stroke: #d4dd80"/>
    </g>
   </g>
   <g id="PathCollection_34">
    <g clip-path="url(#p3b9a416c8a)">
     <use xlink:href="#mf491d7b5c6" x="368.914545" y="376.255696" style="fill: #ff7e41; stroke: #ff7e41"/>
    </g>
   </g>
   <g id="PathCollection_35">
    <g clip-path="url(#p3b9a416c8a)">
     <use xlink:href="#m533351080c" x="368.914545" y="383.431598" style="fill: #ff0000; stroke: #ff0000"/>
    </g>
   </g>
   <g id="PathCollection_36">
    <g clip-path="url(#p3b9a416c8a)">
     <use xlink:href="#m89a71107c3" x="443.42" y="147.889781" style="fill: #8000ff; stroke: #8000ff"/>
    </g>
   </g>
   <g id="PathCollection_37">
    <g clip-path="url(#p3b9a416c8a)">
     <use xlink:href="#m71a5c64f7a" x="443.42" y="140.949992" style="fill: #2c7ef7; stroke: #2c7ef7"/>
    </g>
   </g>
   <g id="PathCollection_38">
    <g clip-path="url(#p3b9a416c8a)">
     <use xlink:href="#m18f4c1e1ec" x="443.42" y="133.44669" style="fill: #2adddd; stroke: #2adddd"/>
    </g>
   </g>
   <g id="PathCollection_39">
    <g clip-path="url(#p3b9a416c8a)">
     <use xlink:href="#m3c32f5b6d2" x="443.42" y="124.821546" style="fill: #80ffb4; stroke: #80ffb4"/>
    </g>
   </g>
   <g id="PathCollection_40">
    <g clip-path="url(#p3b9a416c8a)">
     <use xlink:href="#mecd167a0fa" x="443.42" y="117.24392" style="fill: #d4dd80; stroke: #d4dd80"/>
    </g>
   </g>
   <g id="PathCollection_41">
    <g clip-path="url(#p3b9a416c8a)">
     <use xlink:href="#mf491d7b5c6" x="443.42" y="111.255558" style="fill: #ff7e41; stroke: #ff7e41"/>
    </g>
   </g>
   <g id="PathCollection_42">
    <g clip-path="url(#p3b9a416c8a)">
     <use xlink:href="#m533351080c" x="443.42" y="110.419529" style="fill: #ff0000; stroke: #ff0000"/>
    </g>
   </g>
   <g id="PathCollection_43">
    <g clip-path="url(#p3b9a416c8a)">
     <use xlink:href="#m89a71107c3" x="517.925455" y="52.79755" style="fill: #8000ff; stroke: #8000ff"/>
    </g>
   </g>
   <g id="PathCollection_44">
    <g clip-path="url(#p3b9a416c8a)">
     <use xlink:href="#m71a5c64f7a" x="517.925455" y="45.745278" style="fill: #2c7ef7; stroke: #2c7ef7"/>
    </g>
   </g>
   <g id="PathCollection_45">
    <g clip-path="url(#p3b9a416c8a)">
     <use xlink:href="#m18f4c1e1ec" x="517.925455" y="39.361527" style="fill: #2adddd; stroke: #2adddd"/>
    </g>
   </g>
   <g id="PathCollection_46">
    <g clip-path="url(#p3b9a416c8a)">
     <use xlink:href="#m3c32f5b6d2" x="517.925455" y="35.101148" style="fill: #80ffb4; stroke: #80ffb4"/>
    </g>
   </g>
   <g id="PathCollection_47">
    <g clip-path="url(#p3b9a416c8a)">
     <use xlink:href="#mecd167a0fa" x="517.925455" y="32.672597" style="fill: #d4dd80; stroke: #d4dd80"/>
    </g>
   </g>
   <g id="PathCollection_48">
    <g clip-path="url(#p3b9a416c8a)">
     <use xlink:href="#mf491d7b5c6" x="517.925455" y="32.037004" style="fill: #ff7e41; stroke: #ff7e41"/>
    </g>
   </g>
   <g id="PathCollection_49">
    <g clip-path="url(#p3b9a416c8a)">
     <use xlink:href="#m533351080c" x="517.925455" y="32.435262" style="fill: #ff0000; stroke: #ff0000"/>
    </g>
   </g>
   <g id="PathCollection_50">
    <g clip-path="url(#p3b9a416c8a)">
     <use xlink:href="#m89a71107c3" x="592.430909" y="66.245903" style="fill: #8000ff; stroke: #8000ff"/>
    </g>
   </g>
   <g id="PathCollection_51">
    <g clip-path="url(#p3b9a416c8a)">
     <use xlink:href="#m71a5c64f7a" x="592.430909" y="64.322865" style="fill: #2c7ef7; stroke: #2c7ef7"/>
    </g>
   </g>
   <g id="PathCollection_52">
    <g clip-path="url(#p3b9a416c8a)">
     <use xlink:href="#m18f4c1e1ec" x="592.430909" y="57.621697" style="fill: #2adddd; stroke: #2adddd"/>
    </g>
   </g>
   <g id="PathCollection_53">
    <g clip-path="url(#p3b9a416c8a)">
     <use xlink:href="#m3c32f5b6d2" x="592.430909" y="49.818909" style="fill: #80ffb4; stroke: #80ffb4"/>
    </g>
   </g>
   <g id="PathCollection_54">
    <g clip-path="url(#p3b9a416c8a)">
     <use xlink:href="#mecd167a0fa" x="592.430909" y="47.659038" style="fill: #d4dd80; stroke: #d4dd80"/>
    </g>
   </g>
   <g id="PathCollection_55">
    <g clip-path="url(#p3b9a416c8a)">
     <use xlink:href="#mf491d7b5c6" x="592.430909" y="52.218613" style="fill: #ff7e41; stroke: #ff7e41"/>
    </g>
   </g>
   <g id="PathCollection_56">
    <g clip-path="url(#p3b9a416c8a)">
     <use xlink:href="#m533351080c" x="592.430909" y="58.09242" style="fill: #ff0000; stroke: #ff0000"/>
    </g>
   </g>
   <g id="PathCollection_57">
    <g clip-path="url(#p3b9a416c8a)">
     <use xlink:href="#m89a71107c3" x="666.936364" y="359.150132" style="fill: #8000ff; stroke: #8000ff"/>
    </g>
   </g>
   <g id="PathCollection_58">
    <g clip-path="url(#p3b9a416c8a)">
     <use xlink:href="#m71a5c64f7a" x="666.936364" y="340.447853" style="fill: #2c7ef7; stroke: #2c7ef7"/>
    </g>
   </g>
   <g id="PathCollection_59">
    <g clip-path="url(#p3b9a416c8a)">
     <use xlink:href="#m18f4c1e1ec" x="666.936364" y="335.326322" style="fill: #2adddd; stroke: #2adddd"/>
    </g>
   </g>
   <g id="PathCollection_60">
    <g clip-path="url(#p3b9a416c8a)">
     <use xlink:href="#m3c32f5b6d2" x="666.936364" y="341.460162" style="fill: #80ffb4; stroke: #80ffb4"/>
    </g>
   </g>
   <g id="PathCollection_61">
    <g clip-path="url(#p3b9a416c8a)">
     <use xlink:href="#mecd167a0fa" x="666.936364" y="355.223818" style="fill: #d4dd80; stroke: #d4dd80"/>
    </g>
   </g>
   <g id="PathCollection_62">
    <g clip-path="url(#p3b9a416c8a)">
     <use xlink:href="#mf491d7b5c6" x="666.936364" y="372.938949" style="fill: #ff7e41; stroke: #ff7e41"/>
    </g>
   </g>
   <g id="PathCollection_63">
    <g clip-path="url(#p3b9a416c8a)">
     <use xlink:href="#m533351080c" x="666.936364" y="391.64441" style="fill: #ff0000; stroke: #ff0000"/>
    </g>
   </g>
   <g id="PathCollection_64">
    <g clip-path="url(#p3b9a416c8a)">
     <use xlink:href="#m89a71107c3" x="741.441818" y="244.028708" style="fill: #8000ff; stroke: #8000ff"/>
    </g>
   </g>
   <g id="PathCollection_65">
    <g clip-path="url(#p3b9a416c8a)">
     <use xlink:href="#m71a5c64f7a" x="741.441818" y="250.063695" style="fill: #2c7ef7; stroke: #2c7ef7"/>
    </g>
   </g>
   <g id="PathCollection_66">
    <g clip-path="url(#p3b9a416c8a)">
     <use xlink:href="#m18f4c1e1ec" x="741.441818" y="265.717374" style="fill: #2adddd; stroke: #2adddd"/>
    </g>
   </g>
   <g id="PathCollection_67">
    <g clip-path="url(#p3b9a416c8a)">
     <use xlink:href="#m3c32f5b6d2" x="741.441818" y="293.036448" style="fill: #80ffb4; stroke: #80ffb4"/>
    </g>
   </g>
   <g id="PathCollection_68">
    <g clip-path="url(#p3b9a416c8a)">
     <use xlink:href="#mecd167a0fa" x="741.441818" y="333.959727" style="fill: #d4dd80; stroke: #d4dd80"/>
    </g>
   </g>
   <g id="PathCollection_69">
    <g clip-path="url(#p3b9a416c8a)">
     <use xlink:href="#mf491d7b5c6" x="741.441818" y="381.356024" style="fill: #ff7e41; stroke: #ff7e41"/>
    </g>
   </g>
   <g id="PathCollection_70">
    <g clip-path="url(#p3b9a416c8a)">
     <use xlink:href="#m533351080c" x="741.441818" y="412.436054" style="fill: #ff0000; stroke: #ff0000"/>
    </g>
   </g>
   <g id="PathCollection_71">
    <g clip-path="url(#p3b9a416c8a)">
     <use xlink:href="#m89a71107c3" x="815.947273" y="166.430998" style="fill: #8000ff; stroke: #8000ff"/>
    </g>
   </g>
   <g id="PathCollection_72">
    <g clip-path="url(#p3b9a416c8a)">
     <use xlink:href="#m71a5c64f7a" x="815.947273" y="155.466313" style="fill: #2c7ef7; stroke: #2c7ef7"/>
    </g>
   </g>
   <g id="PathCollection_73">
    <g clip-path="url(#p3b9a416c8a)">
     <use xlink:href="#m18f4c1e1ec" x="815.947273" y="143.251953" style="fill: #2adddd; stroke: #2adddd"/>
    </g>
   </g>
   <g id="PathCollection_74">
    <g clip-path="url(#p3b9a416c8a)">
     <use xlink:href="#m3c32f5b6d2" x="815.947273" y="130.837614" style="fill: #80ffb4; stroke: #80ffb4"/>
    </g>
   </g>
   <g id="PathCollection_75">
    <g clip-path="url(#p3b9a416c8a)">
     <use xlink:href="#mecd167a0fa" x="815.947273" y="118.205508" style="fill: #d4dd80; stroke: #d4dd80"/>
    </g>
   </g>
   <g id="PathCollection_76">
    <g clip-path="url(#p3b9a416c8a)">
     <use xlink:href="#mf491d7b5c6" x="815.947273" y="107.012386" style="fill: #ff7e41; stroke: #ff7e41"/>
    </g>
   </g>
   <g id="PathCollection_77">
    <g clip-path="url(#p3b9a416c8a)">
     <use xlink:href="#m533351080c" x="815.947273" y="98.676138" style="fill: #ff0000; stroke: #ff0000"/>
    </g>
   </g>
   <g id="matplotlib.axis_1">
    <g id="xtick_1">
     <g id="line2d_1">
      <defs>
       <path id="m8101e7e916" d="M 0 0 
L 0 3.5 
" style="stroke: #000000; stroke-width: 0.8"/>
      </defs>
      <g>
       <use xlink:href="#m8101e7e916" x="70.892727" y="478.014091" style="stroke: #000000; stroke-width: 0.8"/>
      </g>
     </g>
     <g id="text_1">
      <!-- Confusion -->
      <g transform="translate(55.257933 525.558931) rotate(-45) scale(0.1 -0.1)">
       <defs>
        <path id="DejaVuSans-43" d="M 4122 4306 
L 4122 3641 
Q 3803 3938 3442 4084 
Q 3081 4231 2675 4231 
Q 1875 4231 1450 3742 
Q 1025 3253 1025 2328 
Q 1025 1406 1450 917 
Q 1875 428 2675 428 
Q 3081 428 3442 575 
Q 3803 722 4122 1019 
L 4122 359 
Q 3791 134 3420 21 
Q 3050 -91 2638 -91 
Q 1578 -91 968 557 
Q 359 1206 359 2328 
Q 359 3453 968 4101 
Q 1578 4750 2638 4750 
Q 3056 4750 3426 4639 
Q 3797 4528 4122 4306 
z
" transform="scale(0.015625)"/>
        <path id="DejaVuSans-6f" d="M 1959 3097 
Q 1497 3097 1228 2736 
Q 959 2375 959 1747 
Q 959 1119 1226 758 
Q 1494 397 1959 397 
Q 2419 397 2687 759 
Q 2956 1122 2956 1747 
Q 2956 2369 2687 2733 
Q 2419 3097 1959 3097 
z
M 1959 3584 
Q 2709 3584 3137 3096 
Q 3566 2609 3566 1747 
Q 3566 888 3137 398 
Q 2709 -91 1959 -91 
Q 1206 -91 779 398 
Q 353 888 353 1747 
Q 353 2609 779 3096 
Q 1206 3584 1959 3584 
z
" transform="scale(0.015625)"/>
        <path id="DejaVuSans-6e" d="M 3513 2113 
L 3513 0 
L 2938 0 
L 2938 2094 
Q 2938 2591 2744 2837 
Q 2550 3084 2163 3084 
Q 1697 3084 1428 2787 
Q 1159 2491 1159 1978 
L 1159 0 
L 581 0 
L 581 3500 
L 1159 3500 
L 1159 2956 
Q 1366 3272 1645 3428 
Q 1925 3584 2291 3584 
Q 2894 3584 3203 3211 
Q 3513 2838 3513 2113 
z
" transform="scale(0.015625)"/>
        <path id="DejaVuSans-66" d="M 2375 4863 
L 2375 4384 
L 1825 4384 
Q 1516 4384 1395 4259 
Q 1275 4134 1275 3809 
L 1275 3500 
L 2222 3500 
L 2222 3053 
L 1275 3053 
L 1275 0 
L 697 0 
L 697 3053 
L 147 3053 
L 147 3500 
L 697 3500 
L 697 3744 
Q 697 4328 969 4595 
Q 1241 4863 1831 4863 
L 2375 4863 
z
" transform="scale(0.015625)"/>
        <path id="DejaVuSans-75" d="M 544 1381 
L 544 3500 
L 1119 3500 
L 1119 1403 
Q 1119 906 1312 657 
Q 1506 409 1894 409 
Q 2359 409 2629 706 
Q 2900 1003 2900 1516 
L 2900 3500 
L 3475 3500 
L 3475 0 
L 2900 0 
L 2900 538 
Q 2691 219 2414 64 
Q 2138 -91 1772 -91 
Q 1169 -91 856 284 
Q 544 659 544 1381 
z
M 1991 3584 
L 1991 3584 
z
" transform="scale(0.015625)"/>
        <path id="DejaVuSans-73" d="M 2834 3397 
L 2834 2853 
Q 2591 2978 2328 3040 
Q 2066 3103 1784 3103 
Q 1356 3103 1142 2972 
Q 928 2841 928 2578 
Q 928 2378 1081 2264 
Q 1234 2150 1697 2047 
L 1894 2003 
Q 2506 1872 2764 1633 
Q 3022 1394 3022 966 
Q 3022 478 2636 193 
Q 2250 -91 1575 -91 
Q 1294 -91 989 -36 
Q 684 19 347 128 
L 347 722 
Q 666 556 975 473 
Q 1284 391 1588 391 
Q 1994 391 2212 530 
Q 2431 669 2431 922 
Q 2431 1156 2273 1281 
Q 2116 1406 1581 1522 
L 1381 1569 
Q 847 1681 609 1914 
Q 372 2147 372 2553 
Q 372 3047 722 3315 
Q 1072 3584 1716 3584 
Q 2034 3584 2315 3537 
Q 2597 3491 2834 3397 
z
" transform="scale(0.015625)"/>
        <path id="DejaVuSans-69" d="M 603 3500 
L 1178 3500 
L 1178 0 
L 603 0 
L 603 3500 
z
M 603 4863 
L 1178 4863 
L 1178 4134 
L 603 4134 
L 603 4863 
z
" transform="scale(0.015625)"/>
       </defs>
       <use xlink:href="#DejaVuSans-43"/>
       <use xlink:href="#DejaVuSans-6f" x="69.824219"/>
       <use xlink:href="#DejaVuSans-6e" x="131.005859"/>
       <use xlink:href="#DejaVuSans-66" x="194.384766"/>
       <use xlink:href="#DejaVuSans-75" x="229.589844"/>
       <use xlink:href="#DejaVuSans-73" x="292.96875"/>
       <use xlink:href="#DejaVuSans-69" x="345.068359"/>
       <use xlink:href="#DejaVuSans-6f" x="372.851562"/>
       <use xlink:href="#DejaVuSans-6e" x="434.033203"/>
      </g>
     </g>
    </g>
    <g id="xtick_2">
     <g id="line2d_2">
      <g>
       <use xlink:href="#m8101e7e916" x="145.398182" y="478.014091" style="stroke: #000000; stroke-width: 0.8"/>
      </g>
     </g>
     <g id="text_2">
      <!-- Myths and Fairytales -->
      <g transform="translate(110.880875 563.323957) rotate(-45) scale(0.1 -0.1)">
       <defs>
        <path id="DejaVuSans-4d" d="M 628 4666 
L 1569 4666 
L 2759 1491 
L 3956 4666 
L 4897 4666 
L 4897 0 
L 4281 0 
L 4281 4097 
L 3078 897 
L 2444 897 
L 1241 4097 
L 1241 0 
L 628 0 
L 628 4666 
z
" transform="scale(0.015625)"/>
        <path id="DejaVuSans-79" d="M 2059 -325 
Q 1816 -950 1584 -1140 
Q 1353 -1331 966 -1331 
L 506 -1331 
L 506 -850 
L 844 -850 
Q 1081 -850 1212 -737 
Q 1344 -625 1503 -206 
L 1606 56 
L 191 3500 
L 800 3500 
L 1894 763 
L 2988 3500 
L 3597 3500 
L 2059 -325 
z
" transform="scale(0.015625)"/>
        <path id="DejaVuSans-74" d="M 1172 4494 
L 1172 3500 
L 2356 3500 
L 2356 3053 
L 1172 3053 
L 1172 1153 
Q 1172 725 1289 603 
Q 1406 481 1766 481 
L 2356 481 
L 2356 0 
L 1766 0 
Q 1100 0 847 248 
Q 594 497 594 1153 
L 594 3053 
L 172 3053 
L 172 3500 
L 594 3500 
L 594 4494 
L 1172 4494 
z
" transform="scale(0.015625)"/>
        <path id="DejaVuSans-68" d="M 3513 2113 
L 3513 0 
L 2938 0 
L 2938 2094 
Q 2938 2591 2744 2837 
Q 2550 3084 2163 3084 
Q 1697 3084 1428 2787 
Q 1159 2491 1159 1978 
L 1159 0 
L 581 0 
L 581 4863 
L 1159 4863 
L 1159 2956 
Q 1366 3272 1645 3428 
Q 1925 3584 2291 3584 
Q 2894 3584 3203 3211 
Q 3513 2838 3513 2113 
z
" transform="scale(0.015625)"/>
        <path id="DejaVuSans-20" transform="scale(0.015625)"/>
        <path id="DejaVuSans-61" d="M 2194 1759 
Q 1497 1759 1228 1600 
Q 959 1441 959 1056 
Q 959 750 1161 570 
Q 1363 391 1709 391 
Q 2188 391 2477 730 
Q 2766 1069 2766 1631 
L 2766 1759 
L 2194 1759 
z
M 3341 1997 
L 3341 0 
L 2766 0 
L 2766 531 
Q 2569 213 2275 61 
Q 1981 -91 1556 -91 
Q 1019 -91 701 211 
Q 384 513 384 1019 
Q 384 1609 779 1909 
Q 1175 2209 1959 2209 
L 2766 2209 
L 2766 2266 
Q 2766 2663 2505 2880 
Q 2244 3097 1772 3097 
Q 1472 3097 1187 3025 
Q 903 2953 641 2809 
L 641 3341 
Q 956 3463 1253 3523 
Q 1550 3584 1831 3584 
Q 2591 3584 2966 3190 
Q 3341 2797 3341 1997 
z
" transform="scale(0.015625)"/>
        <path id="DejaVuSans-64" d="M 2906 2969 
L 2906 4863 
L 3481 4863 
L 3481 0 
L 2906 0 
L 2906 525 
Q 2725 213 2448 61 
Q 2172 -91 1784 -91 
Q 1150 -91 751 415 
Q 353 922 353 1747 
Q 353 2572 751 3078 
Q 1150 3584 1784 3584 
Q 2172 3584 2448 3432 
Q 2725 3281 2906 2969 
z
M 947 1747 
Q 947 1113 1208 752 
Q 1469 391 1925 391 
Q 2381 391 2643 752 
Q 2906 1113 2906 1747 
Q 2906 2381 2643 2742 
Q 2381 3103 1925 3103 
Q 1469 3103 1208 2742 
Q 947 2381 947 1747 
z
" transform="scale(0.015625)"/>
        <path id="DejaVuSans-46" d="M 628 4666 
L 3309 4666 
L 3309 4134 
L 1259 4134 
L 1259 2759 
L 3109 2759 
L 3109 2228 
L 1259 2228 
L 1259 0 
L 628 0 
L 628 4666 
z
" transform="scale(0.015625)"/>
        <path id="DejaVuSans-72" d="M 2631 2963 
Q 2534 3019 2420 3045 
Q 2306 3072 2169 3072 
Q 1681 3072 1420 2755 
Q 1159 2438 1159 1844 
L 1159 0 
L 581 0 
L 581 3500 
L 1159 3500 
L 1159 2956 
Q 1341 3275 1631 3429 
Q 1922 3584 2338 3584 
Q 2397 3584 2469 3576 
Q 2541 3569 2628 3553 
L 2631 2963 
z
" transform="scale(0.015625)"/>
        <path id="DejaVuSans-6c" d="M 603 4863 
L 1178 4863 
L 1178 0 
L 603 0 
L 603 4863 
z
" transform="scale(0.015625)"/>
        <path id="DejaVuSans-65" d="M 3597 1894 
L 3597 1613 
L 953 1613 
Q 991 1019 1311 708 
Q 1631 397 2203 397 
Q 2534 397 2845 478 
Q 3156 559 3463 722 
L 3463 178 
Q 3153 47 2828 -22 
Q 2503 -91 2169 -91 
Q 1331 -91 842 396 
Q 353 884 353 1716 
Q 353 2575 817 3079 
Q 1281 3584 2069 3584 
Q 2775 3584 3186 3129 
Q 3597 2675 3597 1894 
z
M 3022 2063 
Q 3016 2534 2758 2815 
Q 2500 3097 2075 3097 
Q 1594 3097 1305 2825 
Q 1016 2553 972 2059 
L 3022 2063 
z
" transform="scale(0.015625)"/>
       </defs>
       <use xlink:href="#DejaVuSans-4d"/>
       <use xlink:href="#DejaVuSans-79" x="86.279297"/>
       <use xlink:href="#DejaVuSans-74" x="145.458984"/>
       <use xlink:href="#DejaVuSans-68" x="184.667969"/>
       <use xlink:href="#DejaVuSans-73" x="248.046875"/>
       <use xlink:href="#DejaVuSans-20" x="300.146484"/>
       <use xlink:href="#DejaVuSans-61" x="331.933594"/>
       <use xlink:href="#DejaVuSans-6e" x="393.212891"/>
       <use xlink:href="#DejaVuSans-64" x="456.591797"/>
       <use xlink:href="#DejaVuSans-20" x="520.068359"/>
       <use xlink:href="#DejaVuSans-46" x="551.855469"/>
       <use xlink:href="#DejaVuSans-61" x="600.25"/>
       <use xlink:href="#DejaVuSans-69" x="661.529297"/>
       <use xlink:href="#DejaVuSans-72" x="689.3125"/>
       <use xlink:href="#DejaVuSans-79" x="730.425781"/>
       <use xlink:href="#DejaVuSans-74" x="789.605469"/>
       <use xlink:href="#DejaVuSans-61" x="828.814453"/>
       <use xlink:href="#DejaVuSans-6c" x="890.09375"/>
       <use xlink:href="#DejaVuSans-65" x="917.876953"/>
       <use xlink:href="#DejaVuSans-73" x="979.400391"/>
      </g>
     </g>
    </g>
    <g id="xtick_3">
     <g id="line2d_3">
      <g>
       <use xlink:href="#m8101e7e916" x="219.903636" y="478.014091" style="stroke: #000000; stroke-width: 0.8"/>
      </g>
     </g>
     <g id="text_3">
      <!-- Misconceptions -->
      <g transform="translate(194.6544 544.787816) rotate(-45) scale(0.1 -0.1)">
       <defs>
        <path id="DejaVuSans-63" d="M 3122 3366 
L 3122 2828 
Q 2878 2963 2633 3030 
Q 2388 3097 2138 3097 
Q 1578 3097 1268 2742 
Q 959 2388 959 1747 
Q 959 1106 1268 751 
Q 1578 397 2138 397 
Q 2388 397 2633 464 
Q 2878 531 3122 666 
L 3122 134 
Q 2881 22 2623 -34 
Q 2366 -91 2075 -91 
Q 1284 -91 818 406 
Q 353 903 353 1747 
Q 353 2603 823 3093 
Q 1294 3584 2113 3584 
Q 2378 3584 2631 3529 
Q 2884 3475 3122 3366 
z
" transform="scale(0.015625)"/>
        <path id="DejaVuSans-70" d="M 1159 525 
L 1159 -1331 
L 581 -1331 
L 581 3500 
L 1159 3500 
L 1159 2969 
Q 1341 3281 1617 3432 
Q 1894 3584 2278 3584 
Q 2916 3584 3314 3078 
Q 3713 2572 3713 1747 
Q 3713 922 3314 415 
Q 2916 -91 2278 -91 
Q 1894 -91 1617 61 
Q 1341 213 1159 525 
z
M 3116 1747 
Q 3116 2381 2855 2742 
Q 2594 3103 2138 3103 
Q 1681 3103 1420 2742 
Q 1159 2381 1159 1747 
Q 1159 1113 1420 752 
Q 1681 391 2138 391 
Q 2594 391 2855 752 
Q 3116 1113 3116 1747 
z
" transform="scale(0.015625)"/>
       </defs>
       <use xlink:href="#DejaVuSans-4d"/>
       <use xlink:href="#DejaVuSans-69" x="86.279297"/>
       <use xlink:href="#DejaVuSans-73" x="114.0625"/>
       <use xlink:href="#DejaVuSans-63" x="166.162109"/>
       <use xlink:href="#DejaVuSans-6f" x="221.142578"/>
       <use xlink:href="#DejaVuSans-6e" x="282.324219"/>
       <use xlink:href="#DejaVuSans-63" x="345.703125"/>
       <use xlink:href="#DejaVuSans-65" x="400.683594"/>
       <use xlink:href="#DejaVuSans-70" x="462.207031"/>
       <use xlink:href="#DejaVuSans-74" x="525.683594"/>
       <use xlink:href="#DejaVuSans-69" x="564.892578"/>
       <use xlink:href="#DejaVuSans-6f" x="592.675781"/>
       <use xlink:href="#DejaVuSans-6e" x="653.857422"/>
       <use xlink:href="#DejaVuSans-73" x="717.236328"/>
      </g>
     </g>
    </g>
    <g id="xtick_4">
     <g id="line2d_4">
      <g>
       <use xlink:href="#m8101e7e916" x="294.409091" y="478.014091" style="stroke: #000000; stroke-width: 0.8"/>
      </g>
     </g>
     <g id="text_4">
      <!-- Paranormal -->
      <g transform="translate(276.212692 530.682141) rotate(-45) scale(0.1 -0.1)">
       <defs>
        <path id="DejaVuSans-50" d="M 1259 4147 
L 1259 2394 
L 2053 2394 
Q 2494 2394 2734 2622 
Q 2975 2850 2975 3272 
Q 2975 3691 2734 3919 
Q 2494 4147 2053 4147 
L 1259 4147 
z
M 628 4666 
L 2053 4666 
Q 2838 4666 3239 4311 
Q 3641 3956 3641 3272 
Q 3641 2581 3239 2228 
Q 2838 1875 2053 1875 
L 1259 1875 
L 1259 0 
L 628 0 
L 628 4666 
z
" transform="scale(0.015625)"/>
        <path id="DejaVuSans-6d" d="M 3328 2828 
Q 3544 3216 3844 3400 
Q 4144 3584 4550 3584 
Q 5097 3584 5394 3201 
Q 5691 2819 5691 2113 
L 5691 0 
L 5113 0 
L 5113 2094 
Q 5113 2597 4934 2840 
Q 4756 3084 4391 3084 
Q 3944 3084 3684 2787 
Q 3425 2491 3425 1978 
L 3425 0 
L 2847 0 
L 2847 2094 
Q 2847 2600 2669 2842 
Q 2491 3084 2119 3084 
Q 1678 3084 1418 2786 
Q 1159 2488 1159 1978 
L 1159 0 
L 581 0 
L 581 3500 
L 1159 3500 
L 1159 2956 
Q 1356 3278 1631 3431 
Q 1906 3584 2284 3584 
Q 2666 3584 2933 3390 
Q 3200 3197 3328 2828 
z
" transform="scale(0.015625)"/>
       </defs>
       <use xlink:href="#DejaVuSans-50"/>
       <use xlink:href="#DejaVuSans-61" x="55.802734"/>
       <use xlink:href="#DejaVuSans-72" x="117.082031"/>
       <use xlink:href="#DejaVuSans-61" x="158.195312"/>
       <use xlink:href="#DejaVuSans-6e" x="219.474609"/>
       <use xlink:href="#DejaVuSans-6f" x="282.853516"/>
       <use xlink:href="#DejaVuSans-72" x="344.035156"/>
       <use xlink:href="#DejaVuSans-6d" x="383.398438"/>
       <use xlink:href="#DejaVuSans-61" x="480.810547"/>
       <use xlink:href="#DejaVuSans-6c" x="542.089844"/>
      </g>
     </g>
    </g>
    <g id="xtick_5">
     <g id="line2d_5">
      <g>
       <use xlink:href="#m8101e7e916" x="368.914545" y="478.014091" style="stroke: #000000; stroke-width: 0.8"/>
      </g>
     </g>
     <g id="text_5">
      <!-- Religion -->
      <g transform="translate(356.797608 518.523218) rotate(-45) scale(0.1 -0.1)">
       <defs>
        <path id="DejaVuSans-52" d="M 2841 2188 
Q 3044 2119 3236 1894 
Q 3428 1669 3622 1275 
L 4263 0 
L 3584 0 
L 2988 1197 
Q 2756 1666 2539 1819 
Q 2322 1972 1947 1972 
L 1259 1972 
L 1259 0 
L 628 0 
L 628 4666 
L 2053 4666 
Q 2853 4666 3247 4331 
Q 3641 3997 3641 3322 
Q 3641 2881 3436 2590 
Q 3231 2300 2841 2188 
z
M 1259 4147 
L 1259 2491 
L 2053 2491 
Q 2509 2491 2742 2702 
Q 2975 2913 2975 3322 
Q 2975 3731 2742 3939 
Q 2509 4147 2053 4147 
L 1259 4147 
z
" transform="scale(0.015625)"/>
        <path id="DejaVuSans-67" d="M 2906 1791 
Q 2906 2416 2648 2759 
Q 2391 3103 1925 3103 
Q 1463 3103 1205 2759 
Q 947 2416 947 1791 
Q 947 1169 1205 825 
Q 1463 481 1925 481 
Q 2391 481 2648 825 
Q 2906 1169 2906 1791 
z
M 3481 434 
Q 3481 -459 3084 -895 
Q 2688 -1331 1869 -1331 
Q 1566 -1331 1297 -1286 
Q 1028 -1241 775 -1147 
L 775 -588 
Q 1028 -725 1275 -790 
Q 1522 -856 1778 -856 
Q 2344 -856 2625 -561 
Q 2906 -266 2906 331 
L 2906 616 
Q 2728 306 2450 153 
Q 2172 0 1784 0 
Q 1141 0 747 490 
Q 353 981 353 1791 
Q 353 2603 747 3093 
Q 1141 3584 1784 3584 
Q 2172 3584 2450 3431 
Q 2728 3278 2906 2969 
L 2906 3500 
L 3481 3500 
L 3481 434 
z
" transform="scale(0.015625)"/>
       </defs>
       <use xlink:href="#DejaVuSans-52"/>
       <use xlink:href="#DejaVuSans-65" x="64.982422"/>
       <use xlink:href="#DejaVuSans-6c" x="126.505859"/>
       <use xlink:href="#DejaVuSans-69" x="154.289062"/>
       <use xlink:href="#DejaVuSans-67" x="182.072266"/>
       <use xlink:href="#DejaVuSans-69" x="245.548828"/>
       <use xlink:href="#DejaVuSans-6f" x="273.332031"/>
       <use xlink:href="#DejaVuSans-6e" x="334.513672"/>
      </g>
     </g>
    </g>
    <g id="xtick_6">
     <g id="line2d_6">
      <g>
       <use xlink:href="#m8101e7e916" x="443.42" y="478.014091" style="stroke: #000000; stroke-width: 0.8"/>
      </g>
     </g>
     <g id="text_6">
      <!-- Superstitions -->
      <g transform="translate(422.188566 536.75221) rotate(-45) scale(0.1 -0.1)">
       <defs>
        <path id="DejaVuSans-53" d="M 3425 4513 
L 3425 3897 
Q 3066 4069 2747 4153 
Q 2428 4238 2131 4238 
Q 1616 4238 1336 4038 
Q 1056 3838 1056 3469 
Q 1056 3159 1242 3001 
Q 1428 2844 1947 2747 
L 2328 2669 
Q 3034 2534 3370 2195 
Q 3706 1856 3706 1288 
Q 3706 609 3251 259 
Q 2797 -91 1919 -91 
Q 1588 -91 1214 -16 
Q 841 59 441 206 
L 441 856 
Q 825 641 1194 531 
Q 1563 422 1919 422 
Q 2459 422 2753 634 
Q 3047 847 3047 1241 
Q 3047 1584 2836 1778 
Q 2625 1972 2144 2069 
L 1759 2144 
Q 1053 2284 737 2584 
Q 422 2884 422 3419 
Q 422 4038 858 4394 
Q 1294 4750 2059 4750 
Q 2388 4750 2728 4690 
Q 3069 4631 3425 4513 
z
" transform="scale(0.015625)"/>
       </defs>
       <use xlink:href="#DejaVuSans-53"/>
       <use xlink:href="#DejaVuSans-75" x="63.476562"/>
       <use xlink:href="#DejaVuSans-70" x="126.855469"/>
       <use xlink:href="#DejaVuSans-65" x="190.332031"/>
       <use xlink:href="#DejaVuSans-72" x="251.855469"/>
       <use xlink:href="#DejaVuSans-73" x="292.96875"/>
       <use xlink:href="#DejaVuSans-74" x="345.068359"/>
       <use xlink:href="#DejaVuSans-69" x="384.277344"/>
       <use xlink:href="#DejaVuSans-74" x="412.060547"/>
       <use xlink:href="#DejaVuSans-69" x="451.269531"/>
       <use xlink:href="#DejaVuSans-6f" x="479.052734"/>
       <use xlink:href="#DejaVuSans-6e" x="540.234375"/>
       <use xlink:href="#DejaVuSans-73" x="603.613281"/>
      </g>
     </g>
    </g>
    <g id="xtick_7">
     <g id="line2d_7">
      <g>
       <use xlink:href="#m8101e7e916" x="517.925455" y="478.014091" style="stroke: #000000; stroke-width: 0.8"/>
      </g>
     </g>
     <g id="text_7">
      <!-- Conspiracies -->
      <g transform="translate(497.371849 535.396554) rotate(-45) scale(0.1 -0.1)">
       <use xlink:href="#DejaVuSans-43"/>
       <use xlink:href="#DejaVuSans-6f" x="69.824219"/>
       <use xlink:href="#DejaVuSans-6e" x="131.005859"/>
       <use xlink:href="#DejaVuSans-73" x="194.384766"/>
       <use xlink:href="#DejaVuSans-70" x="246.484375"/>
       <use xlink:href="#DejaVuSans-69" x="309.960938"/>
       <use xlink:href="#DejaVuSans-72" x="337.744141"/>
       <use xlink:href="#DejaVuSans-61" x="378.857422"/>
       <use xlink:href="#DejaVuSans-63" x="440.136719"/>
       <use xlink:href="#DejaVuSans-69" x="495.117188"/>
       <use xlink:href="#DejaVuSans-65" x="522.900391"/>
       <use xlink:href="#DejaVuSans-73" x="584.423828"/>
      </g>
     </g>
    </g>
    <g id="xtick_8">
     <g id="line2d_8">
      <g>
       <use xlink:href="#m8101e7e916" x="592.430909" y="478.014091" style="stroke: #000000; stroke-width: 0.8"/>
      </g>
     </g>
     <g id="text_8">
      <!-- Stereotypes -->
      <g transform="translate(573.123027 532.905107) rotate(-45) scale(0.1 -0.1)">
       <use xlink:href="#DejaVuSans-53"/>
       <use xlink:href="#DejaVuSans-74" x="63.476562"/>
       <use xlink:href="#DejaVuSans-65" x="102.685547"/>
       <use xlink:href="#DejaVuSans-72" x="164.208984"/>
       <use xlink:href="#DejaVuSans-65" x="203.072266"/>
       <use xlink:href="#DejaVuSans-6f" x="264.595703"/>
       <use xlink:href="#DejaVuSans-74" x="325.777344"/>
       <use xlink:href="#DejaVuSans-79" x="364.986328"/>
       <use xlink:href="#DejaVuSans-70" x="424.166016"/>
       <use xlink:href="#DejaVuSans-65" x="487.642578"/>
       <use xlink:href="#DejaVuSans-73" x="549.166016"/>
      </g>
     </g>
    </g>
    <g id="xtick_9">
     <g id="line2d_9">
      <g>
       <use xlink:href="#m8101e7e916" x="666.936364" y="478.014091" style="stroke: #000000; stroke-width: 0.8"/>
      </g>
     </g>
     <g id="text_9">
      <!-- Misinformation -->
      <g transform="translate(642.608023 542.946024) rotate(-45) scale(0.1 -0.1)">
       <use xlink:href="#DejaVuSans-4d"/>
       <use xlink:href="#DejaVuSans-69" x="86.279297"/>
       <use xlink:href="#DejaVuSans-73" x="114.0625"/>
       <use xlink:href="#DejaVuSans-69" x="166.162109"/>
       <use xlink:href="#DejaVuSans-6e" x="193.945312"/>
       <use xlink:href="#DejaVuSans-66" x="257.324219"/>
       <use xlink:href="#DejaVuSans-6f" x="292.529297"/>
       <use xlink:href="#DejaVuSans-72" x="353.710938"/>
       <use xlink:href="#DejaVuSans-6d" x="393.074219"/>
       <use xlink:href="#DejaVuSans-61" x="490.486328"/>
       <use xlink:href="#DejaVuSans-74" x="551.765625"/>
       <use xlink:href="#DejaVuSans-69" x="590.974609"/>
       <use xlink:href="#DejaVuSans-6f" x="618.757812"/>
       <use xlink:href="#DejaVuSans-6e" x="679.939453"/>
      </g>
     </g>
    </g>
    <g id="xtick_10">
     <g id="line2d_10">
      <g>
       <use xlink:href="#m8101e7e916" x="741.441818" y="478.014091" style="stroke: #000000; stroke-width: 0.8"/>
      </g>
     </g>
     <g id="text_10">
      <!-- Subjective -->
      <g transform="translate(724.925351 527.322278) rotate(-45) scale(0.1 -0.1)">
       <defs>
        <path id="DejaVuSans-62" d="M 3116 1747 
Q 3116 2381 2855 2742 
Q 2594 3103 2138 3103 
Q 1681 3103 1420 2742 
Q 1159 2381 1159 1747 
Q 1159 1113 1420 752 
Q 1681 391 2138 391 
Q 2594 391 2855 752 
Q 3116 1113 3116 1747 
z
M 1159 2969 
Q 1341 3281 1617 3432 
Q 1894 3584 2278 3584 
Q 2916 3584 3314 3078 
Q 3713 2572 3713 1747 
Q 3713 922 3314 415 
Q 2916 -91 2278 -91 
Q 1894 -91 1617 61 
Q 1341 213 1159 525 
L 1159 0 
L 581 0 
L 581 4863 
L 1159 4863 
L 1159 2969 
z
" transform="scale(0.015625)"/>
        <path id="DejaVuSans-6a" d="M 603 3500 
L 1178 3500 
L 1178 -63 
Q 1178 -731 923 -1031 
Q 669 -1331 103 -1331 
L -116 -1331 
L -116 -844 
L 38 -844 
Q 366 -844 484 -692 
Q 603 -541 603 -63 
L 603 3500 
z
M 603 4863 
L 1178 4863 
L 1178 4134 
L 603 4134 
L 603 4863 
z
" transform="scale(0.015625)"/>
        <path id="DejaVuSans-76" d="M 191 3500 
L 800 3500 
L 1894 563 
L 2988 3500 
L 3597 3500 
L 2284 0 
L 1503 0 
L 191 3500 
z
" transform="scale(0.015625)"/>
       </defs>
       <use xlink:href="#DejaVuSans-53"/>
       <use xlink:href="#DejaVuSans-75" x="63.476562"/>
       <use xlink:href="#DejaVuSans-62" x="126.855469"/>
       <use xlink:href="#DejaVuSans-6a" x="190.332031"/>
       <use xlink:href="#DejaVuSans-65" x="218.115234"/>
       <use xlink:href="#DejaVuSans-63" x="279.638672"/>
       <use xlink:href="#DejaVuSans-74" x="334.619141"/>
       <use xlink:href="#DejaVuSans-69" x="373.828125"/>
       <use xlink:href="#DejaVuSans-76" x="401.611328"/>
       <use xlink:href="#DejaVuSans-65" x="460.791016"/>
      </g>
     </g>
    </g>
    <g id="xtick_11">
     <g id="line2d_11">
      <g>
       <use xlink:href="#m8101e7e916" x="815.947273" y="478.014091" style="stroke: #000000; stroke-width: 0.8"/>
      </g>
     </g>
     <g id="text_11">
      <!-- Advertising -->
      <g transform="translate(797.898372 530.387144) rotate(-45) scale(0.1 -0.1)">
       <defs>
        <path id="DejaVuSans-41" d="M 2188 4044 
L 1331 1722 
L 3047 1722 
L 2188 4044 
z
M 1831 4666 
L 2547 4666 
L 4325 0 
L 3669 0 
L 3244 1197 
L 1141 1197 
L 716 0 
L 50 0 
L 1831 4666 
z
" transform="scale(0.015625)"/>
       </defs>
       <use xlink:href="#DejaVuSans-41"/>
       <use xlink:href="#DejaVuSans-64" x="66.658203"/>
       <use xlink:href="#DejaVuSans-76" x="130.134766"/>
       <use xlink:href="#DejaVuSans-65" x="189.314453"/>
       <use xlink:href="#DejaVuSans-72" x="250.837891"/>
       <use xlink:href="#DejaVuSans-74" x="291.951172"/>
       <use xlink:href="#DejaVuSans-69" x="331.160156"/>
       <use xlink:href="#DejaVuSans-73" x="358.943359"/>
       <use xlink:href="#DejaVuSans-69" x="411.042969"/>
       <use xlink:href="#DejaVuSans-6e" x="438.826172"/>
       <use xlink:href="#DejaVuSans-67" x="502.205078"/>
      </g>
     </g>
    </g>
   </g>
   <g id="matplotlib.axis_2">
    <g id="ytick_1">
     <g id="line2d_12">
      <defs>
       <path id="mf9ba1e5075" d="M 0 0 
L -3.5 0 
" style="stroke: #000000; stroke-width: 0.8"/>
      </defs>
      <g>
       <use xlink:href="#mf9ba1e5075" x="33.64" y="447.748364" style="stroke: #000000; stroke-width: 0.8"/>
      </g>
     </g>
     <g id="text_12">
      <!-- 0.3 -->
      <g transform="translate(10.736875 451.547583) scale(0.1 -0.1)">
       <defs>
        <path id="DejaVuSans-30" d="M 2034 4250 
Q 1547 4250 1301 3770 
Q 1056 3291 1056 2328 
Q 1056 1369 1301 889 
Q 1547 409 2034 409 
Q 2525 409 2770 889 
Q 3016 1369 3016 2328 
Q 3016 3291 2770 3770 
Q 2525 4250 2034 4250 
z
M 2034 4750 
Q 2819 4750 3233 4129 
Q 3647 3509 3647 2328 
Q 3647 1150 3233 529 
Q 2819 -91 2034 -91 
Q 1250 -91 836 529 
Q 422 1150 422 2328 
Q 422 3509 836 4129 
Q 1250 4750 2034 4750 
z
" transform="scale(0.015625)"/>
        <path id="DejaVuSans-2e" d="M 684 794 
L 1344 794 
L 1344 0 
L 684 0 
L 684 794 
z
" transform="scale(0.015625)"/>
        <path id="DejaVuSans-33" d="M 2597 2516 
Q 3050 2419 3304 2112 
Q 3559 1806 3559 1356 
Q 3559 666 3084 287 
Q 2609 -91 1734 -91 
Q 1441 -91 1130 -33 
Q 819 25 488 141 
L 488 750 
Q 750 597 1062 519 
Q 1375 441 1716 441 
Q 2309 441 2620 675 
Q 2931 909 2931 1356 
Q 2931 1769 2642 2001 
Q 2353 2234 1838 2234 
L 1294 2234 
L 1294 2753 
L 1863 2753 
Q 2328 2753 2575 2939 
Q 2822 3125 2822 3475 
Q 2822 3834 2567 4026 
Q 2313 4219 1838 4219 
Q 1578 4219 1281 4162 
Q 984 4106 628 3988 
L 628 4550 
Q 988 4650 1302 4700 
Q 1616 4750 1894 4750 
Q 2613 4750 3031 4423 
Q 3450 4097 3450 3541 
Q 3450 3153 3228 2886 
Q 3006 2619 2597 2516 
z
" transform="scale(0.015625)"/>
       </defs>
       <use xlink:href="#DejaVuSans-30"/>
       <use xlink:href="#DejaVuSans-2e" x="63.623047"/>
       <use xlink:href="#DejaVuSans-33" x="95.410156"/>
      </g>
     </g>
    </g>
    <g id="ytick_2">
     <g id="line2d_13">
      <g>
       <use xlink:href="#mf9ba1e5075" x="33.64" y="372.194483" style="stroke: #000000; stroke-width: 0.8"/>
      </g>
     </g>
     <g id="text_13">
      <!-- 0.4 -->
      <g transform="translate(10.736875 375.993701) scale(0.1 -0.1)">
       <defs>
        <path id="DejaVuSans-34" d="M 2419 4116 
L 825 1625 
L 2419 1625 
L 2419 4116 
z
M 2253 4666 
L 3047 4666 
L 3047 1625 
L 3713 1625 
L 3713 1100 
L 3047 1100 
L 3047 0 
L 2419 0 
L 2419 1100 
L 313 1100 
L 313 1709 
L 2253 4666 
z
" transform="scale(0.015625)"/>
       </defs>
       <use xlink:href="#DejaVuSans-30"/>
       <use xlink:href="#DejaVuSans-2e" x="63.623047"/>
       <use xlink:href="#DejaVuSans-34" x="95.410156"/>
      </g>
     </g>
    </g>
    <g id="ytick_3">
     <g id="line2d_14">
      <g>
       <use xlink:href="#mf9ba1e5075" x="33.64" y="296.640601" style="stroke: #000000; stroke-width: 0.8"/>
      </g>
     </g>
     <g id="text_14">
      <!-- 0.5 -->
      <g transform="translate(10.736875 300.43982) scale(0.1 -0.1)">
       <defs>
        <path id="DejaVuSans-35" d="M 691 4666 
L 3169 4666 
L 3169 4134 
L 1269 4134 
L 1269 2991 
Q 1406 3038 1543 3061 
Q 1681 3084 1819 3084 
Q 2600 3084 3056 2656 
Q 3513 2228 3513 1497 
Q 3513 744 3044 326 
Q 2575 -91 1722 -91 
Q 1428 -91 1123 -41 
Q 819 9 494 109 
L 494 744 
Q 775 591 1075 516 
Q 1375 441 1709 441 
Q 2250 441 2565 725 
Q 2881 1009 2881 1497 
Q 2881 1984 2565 2268 
Q 2250 2553 1709 2553 
Q 1456 2553 1204 2497 
Q 953 2441 691 2322 
L 691 4666 
z
" transform="scale(0.015625)"/>
       </defs>
       <use xlink:href="#DejaVuSans-30"/>
       <use xlink:href="#DejaVuSans-2e" x="63.623047"/>
       <use xlink:href="#DejaVuSans-35" x="95.410156"/>
      </g>
     </g>
    </g>
    <g id="ytick_4">
     <g id="line2d_15">
      <g>
       <use xlink:href="#mf9ba1e5075" x="33.64" y="221.08672" style="stroke: #000000; stroke-width: 0.8"/>
      </g>
     </g>
     <g id="text_15">
      <!-- 0.6 -->
      <g transform="translate(10.736875 224.885938) scale(0.1 -0.1)">
       <defs>
        <path id="DejaVuSans-36" d="M 2113 2584 
Q 1688 2584 1439 2293 
Q 1191 2003 1191 1497 
Q 1191 994 1439 701 
Q 1688 409 2113 409 
Q 2538 409 2786 701 
Q 3034 994 3034 1497 
Q 3034 2003 2786 2293 
Q 2538 2584 2113 2584 
z
M 3366 4563 
L 3366 3988 
Q 3128 4100 2886 4159 
Q 2644 4219 2406 4219 
Q 1781 4219 1451 3797 
Q 1122 3375 1075 2522 
Q 1259 2794 1537 2939 
Q 1816 3084 2150 3084 
Q 2853 3084 3261 2657 
Q 3669 2231 3669 1497 
Q 3669 778 3244 343 
Q 2819 -91 2113 -91 
Q 1303 -91 875 529 
Q 447 1150 447 2328 
Q 447 3434 972 4092 
Q 1497 4750 2381 4750 
Q 2619 4750 2861 4703 
Q 3103 4656 3366 4563 
z
" transform="scale(0.015625)"/>
       </defs>
       <use xlink:href="#DejaVuSans-30"/>
       <use xlink:href="#DejaVuSans-2e" x="63.623047"/>
       <use xlink:href="#DejaVuSans-36" x="95.410156"/>
      </g>
     </g>
    </g>
    <g id="ytick_5">
     <g id="line2d_16">
      <g>
       <use xlink:href="#mf9ba1e5075" x="33.64" y="145.532838" style="stroke: #000000; stroke-width: 0.8"/>
      </g>
     </g>
     <g id="text_16">
      <!-- 0.7 -->
      <g transform="translate(10.736875 149.332057) scale(0.1 -0.1)">
       <defs>
        <path id="DejaVuSans-37" d="M 525 4666 
L 3525 4666 
L 3525 4397 
L 1831 0 
L 1172 0 
L 2766 4134 
L 525 4134 
L 525 4666 
z
" transform="scale(0.015625)"/>
       </defs>
       <use xlink:href="#DejaVuSans-30"/>
       <use xlink:href="#DejaVuSans-2e" x="63.623047"/>
       <use xlink:href="#DejaVuSans-37" x="95.410156"/>
      </g>
     </g>
    </g>
    <g id="ytick_6">
     <g id="line2d_17">
      <g>
       <use xlink:href="#mf9ba1e5075" x="33.64" y="69.978957" style="stroke: #000000; stroke-width: 0.8"/>
      </g>
     </g>
     <g id="text_17">
      <!-- 0.8 -->
      <g transform="translate(10.736875 73.778175) scale(0.1 -0.1)">
       <defs>
        <path id="DejaVuSans-38" d="M 2034 2216 
Q 1584 2216 1326 1975 
Q 1069 1734 1069 1313 
Q 1069 891 1326 650 
Q 1584 409 2034 409 
Q 2484 409 2743 651 
Q 3003 894 3003 1313 
Q 3003 1734 2745 1975 
Q 2488 2216 2034 2216 
z
M 1403 2484 
Q 997 2584 770 2862 
Q 544 3141 544 3541 
Q 544 4100 942 4425 
Q 1341 4750 2034 4750 
Q 2731 4750 3128 4425 
Q 3525 4100 3525 3541 
Q 3525 3141 3298 2862 
Q 3072 2584 2669 2484 
Q 3125 2378 3379 2068 
Q 3634 1759 3634 1313 
Q 3634 634 3220 271 
Q 2806 -91 2034 -91 
Q 1263 -91 848 271 
Q 434 634 434 1313 
Q 434 1759 690 2068 
Q 947 2378 1403 2484 
z
M 1172 3481 
Q 1172 3119 1398 2916 
Q 1625 2713 2034 2713 
Q 2441 2713 2670 2916 
Q 2900 3119 2900 3481 
Q 2900 3844 2670 4047 
Q 2441 4250 2034 4250 
Q 1625 4250 1398 4047 
Q 1172 3844 1172 3481 
z
" transform="scale(0.015625)"/>
       </defs>
       <use xlink:href="#DejaVuSans-30"/>
       <use xlink:href="#DejaVuSans-2e" x="63.623047"/>
       <use xlink:href="#DejaVuSans-38" x="95.410156"/>
      </g>
     </g>
    </g>
   </g>
   <g id="line2d_18">
    <path d="M 70.892727 455.814859 
L 70.892727 456.777087 
L 70.892727 452.670263 
L 70.892727 443.981036 
L 70.892727 436.912858 
L 70.892727 431.54846 
L 70.892727 426.846888 
" clip-path="url(#p3b9a416c8a)" style="fill: none; stroke: #808080; stroke-opacity: 0.5; stroke-width: 1.5; stroke-linecap: square"/>
   </g>
   <g id="line2d_19">
    <path d="M 145.398182 225.902427 
L 145.398182 238.702297 
L 145.398182 255.804976 
L 145.398182 274.635975 
L 145.398182 293.521008 
L 145.398182 312.550566 
L 145.398182 334.976552 
" clip-path="url(#p3b9a416c8a)" style="fill: none; stroke: #808080; stroke-opacity: 0.5; stroke-width: 1.5; stroke-linecap: square"/>
   </g>
   <g id="line2d_20">
    <path d="M 219.903636 188.184707 
L 219.903636 184.622706 
L 219.903636 181.304467 
L 219.903636 179.061988 
L 219.903636 178.498557 
L 219.903636 180.170453 
L 219.903636 183.522392 
" clip-path="url(#p3b9a416c8a)" style="fill: none; stroke: #808080; stroke-opacity: 0.5; stroke-width: 1.5; stroke-linecap: square"/>
   </g>
   <g id="line2d_21">
    <path d="M 294.409091 350.309077 
L 294.409091 367.079877 
L 294.409091 385.81735 
L 294.409091 402.575281 
L 294.409091 417.600598 
L 294.409091 432.053256 
L 294.409091 446.600457 
" clip-path="url(#p3b9a416c8a)" style="fill: none; stroke: #808080; stroke-opacity: 0.5; stroke-width: 1.5; stroke-linecap: square"/>
   </g>
   <g id="line2d_22">
    <path d="M 368.914545 271.685455 
L 368.914545 289.997049 
L 368.914545 317.280247 
L 368.914545 346.122761 
L 368.914545 366.263222 
L 368.914545 376.255696 
L 368.914545 383.431598 
" clip-path="url(#p3b9a416c8a)" style="fill: none; stroke: #808080; stroke-opacity: 0.5; stroke-width: 1.5; stroke-linecap: square"/>
   </g>
   <g id="line2d_23">
    <path d="M 443.42 147.889781 
L 443.42 140.949992 
L 443.42 133.44669 
L 443.42 124.821546 
L 443.42 117.24392 
L 443.42 111.255558 
L 443.42 110.419529 
" clip-path="url(#p3b9a416c8a)" style="fill: none; stroke: #808080; stroke-opacity: 0.5; stroke-width: 1.5; stroke-linecap: square"/>
   </g>
   <g id="line2d_24">
    <path d="M 517.925455 52.79755 
L 517.925455 45.745278 
L 517.925455 39.361527 
L 517.925455 35.101148 
L 517.925455 32.672597 
L 517.925455 32.037004 
L 517.925455 32.435262 
" clip-path="url(#p3b9a416c8a)" style="fill: none; stroke: #808080; stroke-opacity: 0.5; stroke-width: 1.5; stroke-linecap: square"/>
   </g>
   <g id="line2d_25">
    <path d="M 592.430909 66.245903 
L 592.430909 64.322865 
L 592.430909 57.621697 
L 592.430909 49.818909 
L 592.430909 47.659038 
L 592.430909 52.218613 
L 592.430909 58.09242 
" clip-path="url(#p3b9a416c8a)" style="fill: none; stroke: #808080; stroke-opacity: 0.5; stroke-width: 1.5; stroke-linecap: square"/>
   </g>
   <g id="line2d_26">
    <path d="M 666.936364 359.150132 
L 666.936364 340.447853 
L 666.936364 335.326322 
L 666.936364 341.460162 
L 666.936364 355.223818 
L 666.936364 372.938949 
L 666.936364 391.64441 
" clip-path="url(#p3b9a416c8a)" style="fill: none; stroke: #808080; stroke-opacity: 0.5; stroke-width: 1.5; stroke-linecap: square"/>
   </g>
   <g id="line2d_27">
    <path d="M 741.441818 244.028708 
L 741.441818 250.063695 
L 741.441818 265.717374 
L 741.441818 293.036448 
L 741.441818 333.959727 
L 741.441818 381.356024 
L 741.441818 412.436054 
" clip-path="url(#p3b9a416c8a)" style="fill: none; stroke: #808080; stroke-opacity: 0.5; stroke-width: 1.5; stroke-linecap: square"/>
   </g>
   <g id="line2d_28">
    <path d="M 815.947273 166.430998 
L 815.947273 155.466313 
L 815.947273 143.251953 
L 815.947273 130.837614 
L 815.947273 118.205508 
L 815.947273 107.012386 
L 815.947273 98.676138 
" clip-path="url(#p3b9a416c8a)" style="fill: none; stroke: #808080; stroke-opacity: 0.5; stroke-width: 1.5; stroke-linecap: square"/>
   </g>
   <g id="line2d_29"/>
   <g id="line2d_30"/>
   <g id="line2d_31"/>
   <g id="line2d_32"/>
   <g id="line2d_33"/>
   <g id="line2d_34"/>
   <g id="line2d_35"/>
   <g id="patch_3">
    <path d="M 33.64 478.014091 
L 33.64 10.8 
" style="fill: none; stroke: #000000; stroke-width: 0.8; stroke-linejoin: miter; stroke-linecap: square"/>
   </g>
   <g id="patch_4">
    <path d="M 853.2 478.014091 
L 853.2 10.8 
" style="fill: none; stroke: #000000; stroke-width: 0.8; stroke-linejoin: miter; stroke-linecap: square"/>
   </g>
   <g id="patch_5">
    <path d="M 33.64 478.014091 
L 853.2 478.014091 
" style="fill: none; stroke: #000000; stroke-width: 0.8; stroke-linejoin: miter; stroke-linecap: square"/>
   </g>
   <g id="patch_6">
    <path d="M 33.64 10.8 
L 853.2 10.8 
" style="fill: none; stroke: #000000; stroke-width: 0.8; stroke-linejoin: miter; stroke-linecap: square"/>
   </g>
   <g id="legend_1">
    <g id="patch_7">
     <path d="M 40.64 136.225 
L 96.460313 136.225 
Q 98.460313 136.225 98.460313 134.225 
L 98.460313 17.8 
Q 98.460313 15.8 96.460313 15.8 
L 40.64 15.8 
Q 38.64 15.8 38.64 17.8 
L 38.64 134.225 
Q 38.64 136.225 40.64 136.225 
z
" style="fill: #ffffff; opacity: 0.8; stroke: #cccccc; stroke-linejoin: miter"/>
    </g>
    <g id="text_18">
     <!-- Multipliers -->
     <g transform="translate(42.64 27.398438) scale(0.1 -0.1)">
      <use xlink:href="#DejaVuSans-4d"/>
      <use xlink:href="#DejaVuSans-75" x="86.279297"/>
      <use xlink:href="#DejaVuSans-6c" x="149.658203"/>
      <use xlink:href="#DejaVuSans-74" x="177.441406"/>
      <use xlink:href="#DejaVuSans-69" x="216.650391"/>
      <use xlink:href="#DejaVuSans-70" x="244.433594"/>
      <use xlink:href="#DejaVuSans-6c" x="307.910156"/>
      <use xlink:href="#DejaVuSans-69" x="335.693359"/>
      <use xlink:href="#DejaVuSans-65" x="363.476562"/>
      <use xlink:href="#DejaVuSans-72" x="425"/>
      <use xlink:href="#DejaVuSans-73" x="466.113281"/>
     </g>
    </g>
    <g id="line2d_36">
     <defs>
      <path id="m4c867f543b" d="M 0 4 
C 1.060812 4 2.078319 3.578535 2.828427 2.828427 
C 3.578535 2.078319 4 1.060812 4 0 
C 4 -1.060812 3.578535 -2.078319 2.828427 -2.828427 
C 2.078319 -3.578535 1.060812 -4 0 -4 
C -1.060812 -4 -2.078319 -3.578535 -2.828427 -2.828427 
C -3.578535 -2.078319 -4 -1.060812 -4 0 
C -4 1.060812 -3.578535 2.078319 -2.828427 2.828427 
C -2.078319 3.578535 -1.060812 4 0 4 
z
" style="stroke: #8000ff"/>
     </defs>
     <g>
      <use xlink:href="#m4c867f543b" x="54.794688" y="38.576563" style="fill: #8000ff; stroke: #8000ff"/>
     </g>
    </g>
    <g id="text_19">
     <!-- -1.5 -->
     <g transform="translate(72.794688 42.076563) scale(0.1 -0.1)">
      <defs>
       <path id="DejaVuSans-2d" d="M 313 2009 
L 1997 2009 
L 1997 1497 
L 313 1497 
L 313 2009 
z
" transform="scale(0.015625)"/>
       <path id="DejaVuSans-31" d="M 794 531 
L 1825 531 
L 1825 4091 
L 703 3866 
L 703 4441 
L 1819 4666 
L 2450 4666 
L 2450 531 
L 3481 531 
L 3481 0 
L 794 0 
L 794 531 
z
" transform="scale(0.015625)"/>
      </defs>
      <use xlink:href="#DejaVuSans-2d"/>
      <use xlink:href="#DejaVuSans-31" x="36.083984"/>
      <use xlink:href="#DejaVuSans-2e" x="99.707031"/>
      <use xlink:href="#DejaVuSans-35" x="131.494141"/>
     </g>
    </g>
    <g id="line2d_37">
     <defs>
      <path id="mde10624d22" d="M 0 4 
C 1.060812 4 2.078319 3.578535 2.828427 2.828427 
C 3.578535 2.078319 4 1.060812 4 0 
C 4 -1.060812 3.578535 -2.078319 2.828427 -2.828427 
C 2.078319 -3.578535 1.060812 -4 0 -4 
C -1.060812 -4 -2.078319 -3.578535 -2.828427 -2.828427 
C -3.578535 -2.078319 -4 -1.060812 -4 0 
C -4 1.060812 -3.578535 2.078319 -2.828427 2.828427 
C -2.078319 3.578535 -1.060812 4 0 4 
z
" style="stroke: #2c7ef7"/>
     </defs>
     <g>
      <use xlink:href="#mde10624d22" x="54.794688" y="53.254688" style="fill: #2c7ef7; stroke: #2c7ef7"/>
     </g>
    </g>
    <g id="text_20">
     <!-- -1.0 -->
     <g transform="translate(72.794688 56.754688) scale(0.1 -0.1)">
      <use xlink:href="#DejaVuSans-2d"/>
      <use xlink:href="#DejaVuSans-31" x="36.083984"/>
      <use xlink:href="#DejaVuSans-2e" x="99.707031"/>
      <use xlink:href="#DejaVuSans-30" x="131.494141"/>
     </g>
    </g>
    <g id="line2d_38">
     <defs>
      <path id="ma08b37cf42" d="M 0 4 
C 1.060812 4 2.078319 3.578535 2.828427 2.828427 
C 3.578535 2.078319 4 1.060812 4 0 
C 4 -1.060812 3.578535 -2.078319 2.828427 -2.828427 
C 2.078319 -3.578535 1.060812 -4 0 -4 
C -1.060812 -4 -2.078319 -3.578535 -2.828427 -2.828427 
C -3.578535 -2.078319 -4 -1.060812 -4 0 
C -4 1.060812 -3.578535 2.078319 -2.828427 2.828427 
C -2.078319 3.578535 -1.060812 4 0 4 
z
" style="stroke: #2adddd"/>
     </defs>
     <g>
      <use xlink:href="#ma08b37cf42" x="54.794688" y="67.932813" style="fill: #2adddd; stroke: #2adddd"/>
     </g>
    </g>
    <g id="text_21">
     <!-- -0.5 -->
     <g transform="translate(72.794688 71.432813) scale(0.1 -0.1)">
      <use xlink:href="#DejaVuSans-2d"/>
      <use xlink:href="#DejaVuSans-30" x="36.083984"/>
      <use xlink:href="#DejaVuSans-2e" x="99.707031"/>
      <use xlink:href="#DejaVuSans-35" x="131.494141"/>
     </g>
    </g>
    <g id="line2d_39">
     <defs>
      <path id="m5013c3a695" d="M 0 4 
C 1.060812 4 2.078319 3.578535 2.828427 2.828427 
C 3.578535 2.078319 4 1.060812 4 0 
C 4 -1.060812 3.578535 -2.078319 2.828427 -2.828427 
C 2.078319 -3.578535 1.060812 -4 0 -4 
C -1.060812 -4 -2.078319 -3.578535 -2.828427 -2.828427 
C -3.578535 -2.078319 -4 -1.060812 -4 0 
C -4 1.060812 -3.578535 2.078319 -2.828427 2.828427 
C -2.078319 3.578535 -1.060812 4 0 4 
z
" style="stroke: #80ffb4"/>
     </defs>
     <g>
      <use xlink:href="#m5013c3a695" x="54.794688" y="82.610938" style="fill: #80ffb4; stroke: #80ffb4"/>
     </g>
    </g>
    <g id="text_22">
     <!-- 0.0 -->
     <g transform="translate(72.794688 86.110938) scale(0.1 -0.1)">
      <use xlink:href="#DejaVuSans-30"/>
      <use xlink:href="#DejaVuSans-2e" x="63.623047"/>
      <use xlink:href="#DejaVuSans-30" x="95.410156"/>
     </g>
    </g>
    <g id="line2d_40">
     <defs>
      <path id="mc7af5cff4a" d="M 0 4 
C 1.060812 4 2.078319 3.578535 2.828427 2.828427 
C 3.578535 2.078319 4 1.060812 4 0 
C 4 -1.060812 3.578535 -2.078319 2.828427 -2.828427 
C 2.078319 -3.578535 1.060812 -4 0 -4 
C -1.060812 -4 -2.078319 -3.578535 -2.828427 -2.828427 
C -3.578535 -2.078319 -4 -1.060812 -4 0 
C -4 1.060812 -3.578535 2.078319 -2.828427 2.828427 
C -2.078319 3.578535 -1.060812 4 0 4 
z
" style="stroke: #d4dd80"/>
     </defs>
     <g>
      <use xlink:href="#mc7af5cff4a" x="54.794688" y="97.289062" style="fill: #d4dd80; stroke: #d4dd80"/>
     </g>
    </g>
    <g id="text_23">
     <!-- 0.5 -->
     <g transform="translate(72.794688 100.789062) scale(0.1 -0.1)">
      <use xlink:href="#DejaVuSans-30"/>
      <use xlink:href="#DejaVuSans-2e" x="63.623047"/>
      <use xlink:href="#DejaVuSans-35" x="95.410156"/>
     </g>
    </g>
    <g id="line2d_41">
     <defs>
      <path id="m173ed149e3" d="M 0 4 
C 1.060812 4 2.078319 3.578535 2.828427 2.828427 
C 3.578535 2.078319 4 1.060812 4 0 
C 4 -1.060812 3.578535 -2.078319 2.828427 -2.828427 
C 2.078319 -3.578535 1.060812 -4 0 -4 
C -1.060812 -4 -2.078319 -3.578535 -2.828427 -2.828427 
C -3.578535 -2.078319 -4 -1.060812 -4 0 
C -4 1.060812 -3.578535 2.078319 -2.828427 2.828427 
C -2.078319 3.578535 -1.060812 4 0 4 
z
" style="stroke: #ff7e41"/>
     </defs>
     <g>
      <use xlink:href="#m173ed149e3" x="54.794688" y="111.967188" style="fill: #ff7e41; stroke: #ff7e41"/>
     </g>
    </g>
    <g id="text_24">
     <!-- 1.0 -->
     <g transform="translate(72.794688 115.467188) scale(0.1 -0.1)">
      <use xlink:href="#DejaVuSans-31"/>
      <use xlink:href="#DejaVuSans-2e" x="63.623047"/>
      <use xlink:href="#DejaVuSans-30" x="95.410156"/>
     </g>
    </g>
    <g id="line2d_42">
     <defs>
      <path id="m2bae1fd86c" d="M 0 4 
C 1.060812 4 2.078319 3.578535 2.828427 2.828427 
C 3.578535 2.078319 4 1.060812 4 0 
C 4 -1.060812 3.578535 -2.078319 2.828427 -2.828427 
C 2.078319 -3.578535 1.060812 -4 0 -4 
C -1.060812 -4 -2.078319 -3.578535 -2.828427 -2.828427 
C -3.578535 -2.078319 -4 -1.060812 -4 0 
C -4 1.060812 -3.578535 2.078319 -2.828427 2.828427 
C -2.078319 3.578535 -1.060812 4 0 4 
z
" style="stroke: #ff0000"/>
     </defs>
     <g>
      <use xlink:href="#m2bae1fd86c" x="54.794688" y="126.645313" style="fill: #ff0000; stroke: #ff0000"/>
     </g>
    </g>
    <g id="text_25">
     <!-- 1.5 -->
     <g transform="translate(72.794688 130.145313) scale(0.1 -0.1)">
      <use xlink:href="#DejaVuSans-31"/>
      <use xlink:href="#DejaVuSans-2e" x="63.623047"/>
      <use xlink:href="#DejaVuSans-35" x="95.410156"/>
     </g>
    </g>
   </g>
  </g>
 </g>
 <defs>
  <clipPath id="p3b9a416c8a">
   <rect x="33.64" y="10.8" width="819.56" height="467.214091"/>
  </clipPath>
 </defs>
</svg>
