<?xml version="1.0" encoding="utf-8" standalone="no"?>
<!DOCTYPE svg PUBLIC "-//W3C//DTD SVG 1.1//EN"
  "http://www.w3.org/Graphics/SVG/1.1/DTD/svg11.dtd">
<svg xmlns:xlink="http://www.w3.org/1999/xlink" width="432pt" height="432pt" viewBox="0 0 432 432" xmlns="http://www.w3.org/2000/svg" version="1.1">
 <metadata>
  <rdf:RDF xmlns:dc="http://purl.org/dc/elements/1.1/" xmlns:cc="http://creativecommons.org/ns#" xmlns:rdf="http://www.w3.org/1999/02/22-rdf-syntax-ns#">
   <cc:Work>
    <dc:type rdf:resource="http://purl.org/dc/dcmitype/StillImage"/>
    <dc:date>2023-10-26T21:44:36.852036</dc:date>
    <dc:format>image/svg+xml</dc:format>
    <dc:creator>
     <cc:Agent>
      <dc:title>Matplotlib v3.7.3, https://matplotlib.org/</dc:title>
     </cc:Agent>
    </dc:creator>
   </cc:Work>
  </rdf:RDF>
 </metadata>
 <defs>
  <style type="text/css">*{stroke-linejoin: round; stroke-linecap: butt}</style>
 </defs>
 <g id="figure_1">
  <g id="patch_1">
   <path d="M 0 432 
L 432 432 
L 432 0 
L 0 0 
z
" style="fill: #ffffff"/>
  </g>
  <g id="axes_1">
   <g id="patch_2">
    <path d="M 47.72 390.04 
L 421.2 390.04 
L 421.2 10.8 
L 47.72 10.8 
z
" style="fill: #ffffff"/>
   </g>
   <g id="matplotlib.axis_1">
    <g id="xtick_1">
     <g id="line2d_1">
      <defs>
       <path id="m8a30e6578b" d="M 0 0 
L 0 3.5 
" style="stroke: #000000; stroke-width: 0.8"/>
      </defs>
      <g>
       <use xlink:href="#m8a30e6578b" x="64.696364" y="390.04" style="stroke: #000000; stroke-width: 0.8"/>
      </g>
     </g>
     <g id="text_1">
      <!-- −1.5 -->
      <g transform="translate(52.554957 404.638438) scale(0.1 -0.1)">
       <defs>
        <path id="DejaVuSans-2212" d="M 678 2272 
L 4684 2272 
L 4684 1741 
L 678 1741 
L 678 2272 
z
" transform="scale(0.015625)"/>
        <path id="DejaVuSans-31" d="M 794 531 
L 1825 531 
L 1825 4091 
L 703 3866 
L 703 4441 
L 1819 4666 
L 2450 4666 
L 2450 531 
L 3481 531 
L 3481 0 
L 794 0 
L 794 531 
z
" transform="scale(0.015625)"/>
        <path id="DejaVuSans-2e" d="M 684 794 
L 1344 794 
L 1344 0 
L 684 0 
L 684 794 
z
" transform="scale(0.015625)"/>
        <path id="DejaVuSans-35" d="M 691 4666 
L 3169 4666 
L 3169 4134 
L 1269 4134 
L 1269 2991 
Q 1406 3038 1543 3061 
Q 1681 3084 1819 3084 
Q 2600 3084 3056 2656 
Q 3513 2228 3513 1497 
Q 3513 744 3044 326 
Q 2575 -91 1722 -91 
Q 1428 -91 1123 -41 
Q 819 9 494 109 
L 494 744 
Q 775 591 1075 516 
Q 1375 441 1709 441 
Q 2250 441 2565 725 
Q 2881 1009 2881 1497 
Q 2881 1984 2565 2268 
Q 2250 2553 1709 2553 
Q 1456 2553 1204 2497 
Q 953 2441 691 2322 
L 691 4666 
z
" transform="scale(0.015625)"/>
       </defs>
       <use xlink:href="#DejaVuSans-2212"/>
       <use xlink:href="#DejaVuSans-31" x="83.789062"/>
       <use xlink:href="#DejaVuSans-2e" x="147.412109"/>
       <use xlink:href="#DejaVuSans-35" x="179.199219"/>
      </g>
     </g>
    </g>
    <g id="xtick_2">
     <g id="line2d_2">
      <g>
       <use xlink:href="#m8a30e6578b" x="121.284242" y="390.04" style="stroke: #000000; stroke-width: 0.8"/>
      </g>
     </g>
     <g id="text_2">
      <!-- −1.0 -->
      <g transform="translate(109.142836 404.638438) scale(0.1 -0.1)">
       <defs>
        <path id="DejaVuSans-30" d="M 2034 4250 
Q 1547 4250 1301 3770 
Q 1056 3291 1056 2328 
Q 1056 1369 1301 889 
Q 1547 409 2034 409 
Q 2525 409 2770 889 
Q 3016 1369 3016 2328 
Q 3016 3291 2770 3770 
Q 2525 4250 2034 4250 
z
M 2034 4750 
Q 2819 4750 3233 4129 
Q 3647 3509 3647 2328 
Q 3647 1150 3233 529 
Q 2819 -91 2034 -91 
Q 1250 -91 836 529 
Q 422 1150 422 2328 
Q 422 3509 836 4129 
Q 1250 4750 2034 4750 
z
" transform="scale(0.015625)"/>
       </defs>
       <use xlink:href="#DejaVuSans-2212"/>
       <use xlink:href="#DejaVuSans-31" x="83.789062"/>
       <use xlink:href="#DejaVuSans-2e" x="147.412109"/>
       <use xlink:href="#DejaVuSans-30" x="179.199219"/>
      </g>
     </g>
    </g>
    <g id="xtick_3">
     <g id="line2d_3">
      <g>
       <use xlink:href="#m8a30e6578b" x="177.872121" y="390.04" style="stroke: #000000; stroke-width: 0.8"/>
      </g>
     </g>
     <g id="text_3">
      <!-- −0.5 -->
      <g transform="translate(165.730715 404.638438) scale(0.1 -0.1)">
       <use xlink:href="#DejaVuSans-2212"/>
       <use xlink:href="#DejaVuSans-30" x="83.789062"/>
       <use xlink:href="#DejaVuSans-2e" x="147.412109"/>
       <use xlink:href="#DejaVuSans-35" x="179.199219"/>
      </g>
     </g>
    </g>
    <g id="xtick_4">
     <g id="line2d_4">
      <g>
       <use xlink:href="#m8a30e6578b" x="234.46" y="390.04" style="stroke: #000000; stroke-width: 0.8"/>
      </g>
     </g>
     <g id="text_4">
      <!-- 0.0 -->
      <g transform="translate(226.508437 404.638438) scale(0.1 -0.1)">
       <use xlink:href="#DejaVuSans-30"/>
       <use xlink:href="#DejaVuSans-2e" x="63.623047"/>
       <use xlink:href="#DejaVuSans-30" x="95.410156"/>
      </g>
     </g>
    </g>
    <g id="xtick_5">
     <g id="line2d_5">
      <g>
       <use xlink:href="#m8a30e6578b" x="291.047879" y="390.04" style="stroke: #000000; stroke-width: 0.8"/>
      </g>
     </g>
     <g id="text_5">
      <!-- 0.5 -->
      <g transform="translate(283.096316 404.638438) scale(0.1 -0.1)">
       <use xlink:href="#DejaVuSans-30"/>
       <use xlink:href="#DejaVuSans-2e" x="63.623047"/>
       <use xlink:href="#DejaVuSans-35" x="95.410156"/>
      </g>
     </g>
    </g>
    <g id="xtick_6">
     <g id="line2d_6">
      <g>
       <use xlink:href="#m8a30e6578b" x="347.635758" y="390.04" style="stroke: #000000; stroke-width: 0.8"/>
      </g>
     </g>
     <g id="text_6">
      <!-- 1.0 -->
      <g transform="translate(339.684195 404.638438) scale(0.1 -0.1)">
       <use xlink:href="#DejaVuSans-31"/>
       <use xlink:href="#DejaVuSans-2e" x="63.623047"/>
       <use xlink:href="#DejaVuSans-30" x="95.410156"/>
      </g>
     </g>
    </g>
    <g id="xtick_7">
     <g id="line2d_7">
      <g>
       <use xlink:href="#m8a30e6578b" x="404.223636" y="390.04" style="stroke: #000000; stroke-width: 0.8"/>
      </g>
     </g>
     <g id="text_7">
      <!-- 1.5 -->
      <g transform="translate(396.272074 404.638438) scale(0.1 -0.1)">
       <use xlink:href="#DejaVuSans-31"/>
       <use xlink:href="#DejaVuSans-2e" x="63.623047"/>
       <use xlink:href="#DejaVuSans-35" x="95.410156"/>
      </g>
     </g>
    </g>
    <g id="text_8">
     <!-- Multiplier -->
     <g transform="translate(211.154531 418.316562) scale(0.1 -0.1)">
      <defs>
       <path id="DejaVuSans-4d" d="M 628 4666 
L 1569 4666 
L 2759 1491 
L 3956 4666 
L 4897 4666 
L 4897 0 
L 4281 0 
L 4281 4097 
L 3078 897 
L 2444 897 
L 1241 4097 
L 1241 0 
L 628 0 
L 628 4666 
z
" transform="scale(0.015625)"/>
       <path id="DejaVuSans-75" d="M 544 1381 
L 544 3500 
L 1119 3500 
L 1119 1403 
Q 1119 906 1312 657 
Q 1506 409 1894 409 
Q 2359 409 2629 706 
Q 2900 1003 2900 1516 
L 2900 3500 
L 3475 3500 
L 3475 0 
L 2900 0 
L 2900 538 
Q 2691 219 2414 64 
Q 2138 -91 1772 -91 
Q 1169 -91 856 284 
Q 544 659 544 1381 
z
M 1991 3584 
L 1991 3584 
z
" transform="scale(0.015625)"/>
       <path id="DejaVuSans-6c" d="M 603 4863 
L 1178 4863 
L 1178 0 
L 603 0 
L 603 4863 
z
" transform="scale(0.015625)"/>
       <path id="DejaVuSans-74" d="M 1172 4494 
L 1172 3500 
L 2356 3500 
L 2356 3053 
L 1172 3053 
L 1172 1153 
Q 1172 725 1289 603 
Q 1406 481 1766 481 
L 2356 481 
L 2356 0 
L 1766 0 
Q 1100 0 847 248 
Q 594 497 594 1153 
L 594 3053 
L 172 3053 
L 172 3500 
L 594 3500 
L 594 4494 
L 1172 4494 
z
" transform="scale(0.015625)"/>
       <path id="DejaVuSans-69" d="M 603 3500 
L 1178 3500 
L 1178 0 
L 603 0 
L 603 3500 
z
M 603 4863 
L 1178 4863 
L 1178 4134 
L 603 4134 
L 603 4863 
z
" transform="scale(0.015625)"/>
       <path id="DejaVuSans-70" d="M 1159 525 
L 1159 -1331 
L 581 -1331 
L 581 3500 
L 1159 3500 
L 1159 2969 
Q 1341 3281 1617 3432 
Q 1894 3584 2278 3584 
Q 2916 3584 3314 3078 
Q 3713 2572 3713 1747 
Q 3713 922 3314 415 
Q 2916 -91 2278 -91 
Q 1894 -91 1617 61 
Q 1341 213 1159 525 
z
M 3116 1747 
Q 3116 2381 2855 2742 
Q 2594 3103 2138 3103 
Q 1681 3103 1420 2742 
Q 1159 2381 1159 1747 
Q 1159 1113 1420 752 
Q 1681 391 2138 391 
Q 2594 391 2855 752 
Q 3116 1113 3116 1747 
z
" transform="scale(0.015625)"/>
       <path id="DejaVuSans-65" d="M 3597 1894 
L 3597 1613 
L 953 1613 
Q 991 1019 1311 708 
Q 1631 397 2203 397 
Q 2534 397 2845 478 
Q 3156 559 3463 722 
L 3463 178 
Q 3153 47 2828 -22 
Q 2503 -91 2169 -91 
Q 1331 -91 842 396 
Q 353 884 353 1716 
Q 353 2575 817 3079 
Q 1281 3584 2069 3584 
Q 2775 3584 3186 3129 
Q 3597 2675 3597 1894 
z
M 3022 2063 
Q 3016 2534 2758 2815 
Q 2500 3097 2075 3097 
Q 1594 3097 1305 2825 
Q 1016 2553 972 2059 
L 3022 2063 
z
" transform="scale(0.015625)"/>
       <path id="DejaVuSans-72" d="M 2631 2963 
Q 2534 3019 2420 3045 
Q 2306 3072 2169 3072 
Q 1681 3072 1420 2755 
Q 1159 2438 1159 1844 
L 1159 0 
L 581 0 
L 581 3500 
L 1159 3500 
L 1159 2956 
Q 1341 3275 1631 3429 
Q 1922 3584 2338 3584 
Q 2397 3584 2469 3576 
Q 2541 3569 2628 3553 
L 2631 2963 
z
" transform="scale(0.015625)"/>
      </defs>
      <use xlink:href="#DejaVuSans-4d"/>
      <use xlink:href="#DejaVuSans-75" x="86.279297"/>
      <use xlink:href="#DejaVuSans-6c" x="149.658203"/>
      <use xlink:href="#DejaVuSans-74" x="177.441406"/>
      <use xlink:href="#DejaVuSans-69" x="216.650391"/>
      <use xlink:href="#DejaVuSans-70" x="244.433594"/>
      <use xlink:href="#DejaVuSans-6c" x="307.910156"/>
      <use xlink:href="#DejaVuSans-69" x="335.693359"/>
      <use xlink:href="#DejaVuSans-65" x="363.476562"/>
      <use xlink:href="#DejaVuSans-72" x="425"/>
     </g>
    </g>
   </g>
   <g id="matplotlib.axis_2">
    <g id="ytick_1">
     <g id="line2d_8">
      <defs>
       <path id="m11a6a1ae46" d="M 0 0 
L -3.5 0 
" style="stroke: #000000; stroke-width: 0.8"/>
      </defs>
      <g>
       <use xlink:href="#m11a6a1ae46" x="47.72" y="365.473159" style="stroke: #000000; stroke-width: 0.8"/>
      </g>
     </g>
     <g id="text_9">
      <!-- 0.3 -->
      <g transform="translate(24.816875 369.272378) scale(0.1 -0.1)">
       <defs>
        <path id="DejaVuSans-33" d="M 2597 2516 
Q 3050 2419 3304 2112 
Q 3559 1806 3559 1356 
Q 3559 666 3084 287 
Q 2609 -91 1734 -91 
Q 1441 -91 1130 -33 
Q 819 25 488 141 
L 488 750 
Q 750 597 1062 519 
Q 1375 441 1716 441 
Q 2309 441 2620 675 
Q 2931 909 2931 1356 
Q 2931 1769 2642 2001 
Q 2353 2234 1838 2234 
L 1294 2234 
L 1294 2753 
L 1863 2753 
Q 2328 2753 2575 2939 
Q 2822 3125 2822 3475 
Q 2822 3834 2567 4026 
Q 2313 4219 1838 4219 
Q 1578 4219 1281 4162 
Q 984 4106 628 3988 
L 628 4550 
Q 988 4650 1302 4700 
Q 1616 4750 1894 4750 
Q 2613 4750 3031 4423 
Q 3450 4097 3450 3541 
Q 3450 3153 3228 2886 
Q 3006 2619 2597 2516 
z
" transform="scale(0.015625)"/>
       </defs>
       <use xlink:href="#DejaVuSans-30"/>
       <use xlink:href="#DejaVuSans-2e" x="63.623047"/>
       <use xlink:href="#DejaVuSans-33" x="95.410156"/>
      </g>
     </g>
    </g>
    <g id="ytick_2">
     <g id="line2d_9">
      <g>
       <use xlink:href="#m11a6a1ae46" x="47.72" y="304.145698" style="stroke: #000000; stroke-width: 0.8"/>
      </g>
     </g>
     <g id="text_10">
      <!-- 0.4 -->
      <g transform="translate(24.816875 307.944917) scale(0.1 -0.1)">
       <defs>
        <path id="DejaVuSans-34" d="M 2419 4116 
L 825 1625 
L 2419 1625 
L 2419 4116 
z
M 2253 4666 
L 3047 4666 
L 3047 1625 
L 3713 1625 
L 3713 1100 
L 3047 1100 
L 3047 0 
L 2419 0 
L 2419 1100 
L 313 1100 
L 313 1709 
L 2253 4666 
z
" transform="scale(0.015625)"/>
       </defs>
       <use xlink:href="#DejaVuSans-30"/>
       <use xlink:href="#DejaVuSans-2e" x="63.623047"/>
       <use xlink:href="#DejaVuSans-34" x="95.410156"/>
      </g>
     </g>
    </g>
    <g id="ytick_3">
     <g id="line2d_10">
      <g>
       <use xlink:href="#m11a6a1ae46" x="47.72" y="242.818237" style="stroke: #000000; stroke-width: 0.8"/>
      </g>
     </g>
     <g id="text_11">
      <!-- 0.5 -->
      <g transform="translate(24.816875 246.617455) scale(0.1 -0.1)">
       <use xlink:href="#DejaVuSans-30"/>
       <use xlink:href="#DejaVuSans-2e" x="63.623047"/>
       <use xlink:href="#DejaVuSans-35" x="95.410156"/>
      </g>
     </g>
    </g>
    <g id="ytick_4">
     <g id="line2d_11">
      <g>
       <use xlink:href="#m11a6a1ae46" x="47.72" y="181.490776" style="stroke: #000000; stroke-width: 0.8"/>
      </g>
     </g>
     <g id="text_12">
      <!-- 0.6 -->
      <g transform="translate(24.816875 185.289994) scale(0.1 -0.1)">
       <defs>
        <path id="DejaVuSans-36" d="M 2113 2584 
Q 1688 2584 1439 2293 
Q 1191 2003 1191 1497 
Q 1191 994 1439 701 
Q 1688 409 2113 409 
Q 2538 409 2786 701 
Q 3034 994 3034 1497 
Q 3034 2003 2786 2293 
Q 2538 2584 2113 2584 
z
M 3366 4563 
L 3366 3988 
Q 3128 4100 2886 4159 
Q 2644 4219 2406 4219 
Q 1781 4219 1451 3797 
Q 1122 3375 1075 2522 
Q 1259 2794 1537 2939 
Q 1816 3084 2150 3084 
Q 2853 3084 3261 2657 
Q 3669 2231 3669 1497 
Q 3669 778 3244 343 
Q 2819 -91 2113 -91 
Q 1303 -91 875 529 
Q 447 1150 447 2328 
Q 447 3434 972 4092 
Q 1497 4750 2381 4750 
Q 2619 4750 2861 4703 
Q 3103 4656 3366 4563 
z
" transform="scale(0.015625)"/>
       </defs>
       <use xlink:href="#DejaVuSans-30"/>
       <use xlink:href="#DejaVuSans-2e" x="63.623047"/>
       <use xlink:href="#DejaVuSans-36" x="95.410156"/>
      </g>
     </g>
    </g>
    <g id="ytick_5">
     <g id="line2d_12">
      <g>
       <use xlink:href="#m11a6a1ae46" x="47.72" y="120.163314" style="stroke: #000000; stroke-width: 0.8"/>
      </g>
     </g>
     <g id="text_13">
      <!-- 0.7 -->
      <g transform="translate(24.816875 123.962533) scale(0.1 -0.1)">
       <defs>
        <path id="DejaVuSans-37" d="M 525 4666 
L 3525 4666 
L 3525 4397 
L 1831 0 
L 1172 0 
L 2766 4134 
L 525 4134 
L 525 4666 
z
" transform="scale(0.015625)"/>
       </defs>
       <use xlink:href="#DejaVuSans-30"/>
       <use xlink:href="#DejaVuSans-2e" x="63.623047"/>
       <use xlink:href="#DejaVuSans-37" x="95.410156"/>
      </g>
     </g>
    </g>
    <g id="ytick_6">
     <g id="line2d_13">
      <g>
       <use xlink:href="#m11a6a1ae46" x="47.72" y="58.835853" style="stroke: #000000; stroke-width: 0.8"/>
      </g>
     </g>
     <g id="text_14">
      <!-- 0.8 -->
      <g transform="translate(24.816875 62.635072) scale(0.1 -0.1)">
       <defs>
        <path id="DejaVuSans-38" d="M 2034 2216 
Q 1584 2216 1326 1975 
Q 1069 1734 1069 1313 
Q 1069 891 1326 650 
Q 1584 409 2034 409 
Q 2484 409 2743 651 
Q 3003 894 3003 1313 
Q 3003 1734 2745 1975 
Q 2488 2216 2034 2216 
z
M 1403 2484 
Q 997 2584 770 2862 
Q 544 3141 544 3541 
Q 544 4100 942 4425 
Q 1341 4750 2034 4750 
Q 2731 4750 3128 4425 
Q 3525 4100 3525 3541 
Q 3525 3141 3298 2862 
Q 3072 2584 2669 2484 
Q 3125 2378 3379 2068 
Q 3634 1759 3634 1313 
Q 3634 634 3220 271 
Q 2806 -91 2034 -91 
Q 1263 -91 848 271 
Q 434 634 434 1313 
Q 434 1759 690 2068 
Q 947 2378 1403 2484 
z
M 1172 3481 
Q 1172 3119 1398 2916 
Q 1625 2713 2034 2713 
Q 2441 2713 2670 2916 
Q 2900 3119 2900 3481 
Q 2900 3844 2670 4047 
Q 2441 4250 2034 4250 
Q 1625 4250 1398 4047 
Q 1172 3844 1172 3481 
z
" transform="scale(0.015625)"/>
       </defs>
       <use xlink:href="#DejaVuSans-30"/>
       <use xlink:href="#DejaVuSans-2e" x="63.623047"/>
       <use xlink:href="#DejaVuSans-38" x="95.410156"/>
      </g>
     </g>
    </g>
    <g id="text_15">
     <!-- Probability of correct answer to A/B question -->
     <g transform="translate(18.737188 311.923125) rotate(-90) scale(0.1 -0.1)">
      <defs>
       <path id="DejaVuSans-50" d="M 1259 4147 
L 1259 2394 
L 2053 2394 
Q 2494 2394 2734 2622 
Q 2975 2850 2975 3272 
Q 2975 3691 2734 3919 
Q 2494 4147 2053 4147 
L 1259 4147 
z
M 628 4666 
L 2053 4666 
Q 2838 4666 3239 4311 
Q 3641 3956 3641 3272 
Q 3641 2581 3239 2228 
Q 2838 1875 2053 1875 
L 1259 1875 
L 1259 0 
L 628 0 
L 628 4666 
z
" transform="scale(0.015625)"/>
       <path id="DejaVuSans-6f" d="M 1959 3097 
Q 1497 3097 1228 2736 
Q 959 2375 959 1747 
Q 959 1119 1226 758 
Q 1494 397 1959 397 
Q 2419 397 2687 759 
Q 2956 1122 2956 1747 
Q 2956 2369 2687 2733 
Q 2419 3097 1959 3097 
z
M 1959 3584 
Q 2709 3584 3137 3096 
Q 3566 2609 3566 1747 
Q 3566 888 3137 398 
Q 2709 -91 1959 -91 
Q 1206 -91 779 398 
Q 353 888 353 1747 
Q 353 2609 779 3096 
Q 1206 3584 1959 3584 
z
" transform="scale(0.015625)"/>
       <path id="DejaVuSans-62" d="M 3116 1747 
Q 3116 2381 2855 2742 
Q 2594 3103 2138 3103 
Q 1681 3103 1420 2742 
Q 1159 2381 1159 1747 
Q 1159 1113 1420 752 
Q 1681 391 2138 391 
Q 2594 391 2855 752 
Q 3116 1113 3116 1747 
z
M 1159 2969 
Q 1341 3281 1617 3432 
Q 1894 3584 2278 3584 
Q 2916 3584 3314 3078 
Q 3713 2572 3713 1747 
Q 3713 922 3314 415 
Q 2916 -91 2278 -91 
Q 1894 -91 1617 61 
Q 1341 213 1159 525 
L 1159 0 
L 581 0 
L 581 4863 
L 1159 4863 
L 1159 2969 
z
" transform="scale(0.015625)"/>
       <path id="DejaVuSans-61" d="M 2194 1759 
Q 1497 1759 1228 1600 
Q 959 1441 959 1056 
Q 959 750 1161 570 
Q 1363 391 1709 391 
Q 2188 391 2477 730 
Q 2766 1069 2766 1631 
L 2766 1759 
L 2194 1759 
z
M 3341 1997 
L 3341 0 
L 2766 0 
L 2766 531 
Q 2569 213 2275 61 
Q 1981 -91 1556 -91 
Q 1019 -91 701 211 
Q 384 513 384 1019 
Q 384 1609 779 1909 
Q 1175 2209 1959 2209 
L 2766 2209 
L 2766 2266 
Q 2766 2663 2505 2880 
Q 2244 3097 1772 3097 
Q 1472 3097 1187 3025 
Q 903 2953 641 2809 
L 641 3341 
Q 956 3463 1253 3523 
Q 1550 3584 1831 3584 
Q 2591 3584 2966 3190 
Q 3341 2797 3341 1997 
z
" transform="scale(0.015625)"/>
       <path id="DejaVuSans-79" d="M 2059 -325 
Q 1816 -950 1584 -1140 
Q 1353 -1331 966 -1331 
L 506 -1331 
L 506 -850 
L 844 -850 
Q 1081 -850 1212 -737 
Q 1344 -625 1503 -206 
L 1606 56 
L 191 3500 
L 800 3500 
L 1894 763 
L 2988 3500 
L 3597 3500 
L 2059 -325 
z
" transform="scale(0.015625)"/>
       <path id="DejaVuSans-20" transform="scale(0.015625)"/>
       <path id="DejaVuSans-66" d="M 2375 4863 
L 2375 4384 
L 1825 4384 
Q 1516 4384 1395 4259 
Q 1275 4134 1275 3809 
L 1275 3500 
L 2222 3500 
L 2222 3053 
L 1275 3053 
L 1275 0 
L 697 0 
L 697 3053 
L 147 3053 
L 147 3500 
L 697 3500 
L 697 3744 
Q 697 4328 969 4595 
Q 1241 4863 1831 4863 
L 2375 4863 
z
" transform="scale(0.015625)"/>
       <path id="DejaVuSans-63" d="M 3122 3366 
L 3122 2828 
Q 2878 2963 2633 3030 
Q 2388 3097 2138 3097 
Q 1578 3097 1268 2742 
Q 959 2388 959 1747 
Q 959 1106 1268 751 
Q 1578 397 2138 397 
Q 2388 397 2633 464 
Q 2878 531 3122 666 
L 3122 134 
Q 2881 22 2623 -34 
Q 2366 -91 2075 -91 
Q 1284 -91 818 406 
Q 353 903 353 1747 
Q 353 2603 823 3093 
Q 1294 3584 2113 3584 
Q 2378 3584 2631 3529 
Q 2884 3475 3122 3366 
z
" transform="scale(0.015625)"/>
       <path id="DejaVuSans-6e" d="M 3513 2113 
L 3513 0 
L 2938 0 
L 2938 2094 
Q 2938 2591 2744 2837 
Q 2550 3084 2163 3084 
Q 1697 3084 1428 2787 
Q 1159 2491 1159 1978 
L 1159 0 
L 581 0 
L 581 3500 
L 1159 3500 
L 1159 2956 
Q 1366 3272 1645 3428 
Q 1925 3584 2291 3584 
Q 2894 3584 3203 3211 
Q 3513 2838 3513 2113 
z
" transform="scale(0.015625)"/>
       <path id="DejaVuSans-73" d="M 2834 3397 
L 2834 2853 
Q 2591 2978 2328 3040 
Q 2066 3103 1784 3103 
Q 1356 3103 1142 2972 
Q 928 2841 928 2578 
Q 928 2378 1081 2264 
Q 1234 2150 1697 2047 
L 1894 2003 
Q 2506 1872 2764 1633 
Q 3022 1394 3022 966 
Q 3022 478 2636 193 
Q 2250 -91 1575 -91 
Q 1294 -91 989 -36 
Q 684 19 347 128 
L 347 722 
Q 666 556 975 473 
Q 1284 391 1588 391 
Q 1994 391 2212 530 
Q 2431 669 2431 922 
Q 2431 1156 2273 1281 
Q 2116 1406 1581 1522 
L 1381 1569 
Q 847 1681 609 1914 
Q 372 2147 372 2553 
Q 372 3047 722 3315 
Q 1072 3584 1716 3584 
Q 2034 3584 2315 3537 
Q 2597 3491 2834 3397 
z
" transform="scale(0.015625)"/>
       <path id="DejaVuSans-77" d="M 269 3500 
L 844 3500 
L 1563 769 
L 2278 3500 
L 2956 3500 
L 3675 769 
L 4391 3500 
L 4966 3500 
L 4050 0 
L 3372 0 
L 2619 2869 
L 1863 0 
L 1184 0 
L 269 3500 
z
" transform="scale(0.015625)"/>
       <path id="DejaVuSans-41" d="M 2188 4044 
L 1331 1722 
L 3047 1722 
L 2188 4044 
z
M 1831 4666 
L 2547 4666 
L 4325 0 
L 3669 0 
L 3244 1197 
L 1141 1197 
L 716 0 
L 50 0 
L 1831 4666 
z
" transform="scale(0.015625)"/>
       <path id="DejaVuSans-2f" d="M 1625 4666 
L 2156 4666 
L 531 -594 
L 0 -594 
L 1625 4666 
z
" transform="scale(0.015625)"/>
       <path id="DejaVuSans-42" d="M 1259 2228 
L 1259 519 
L 2272 519 
Q 2781 519 3026 730 
Q 3272 941 3272 1375 
Q 3272 1813 3026 2020 
Q 2781 2228 2272 2228 
L 1259 2228 
z
M 1259 4147 
L 1259 2741 
L 2194 2741 
Q 2656 2741 2882 2914 
Q 3109 3088 3109 3444 
Q 3109 3797 2882 3972 
Q 2656 4147 2194 4147 
L 1259 4147 
z
M 628 4666 
L 2241 4666 
Q 2963 4666 3353 4366 
Q 3744 4066 3744 3513 
Q 3744 3084 3544 2831 
Q 3344 2578 2956 2516 
Q 3422 2416 3680 2098 
Q 3938 1781 3938 1306 
Q 3938 681 3513 340 
Q 3088 0 2303 0 
L 628 0 
L 628 4666 
z
" transform="scale(0.015625)"/>
       <path id="DejaVuSans-71" d="M 947 1747 
Q 947 1113 1208 752 
Q 1469 391 1925 391 
Q 2381 391 2643 752 
Q 2906 1113 2906 1747 
Q 2906 2381 2643 2742 
Q 2381 3103 1925 3103 
Q 1469 3103 1208 2742 
Q 947 2381 947 1747 
z
M 2906 525 
Q 2725 213 2448 61 
Q 2172 -91 1784 -91 
Q 1150 -91 751 415 
Q 353 922 353 1747 
Q 353 2572 751 3078 
Q 1150 3584 1784 3584 
Q 2172 3584 2448 3432 
Q 2725 3281 2906 2969 
L 2906 3500 
L 3481 3500 
L 3481 -1331 
L 2906 -1331 
L 2906 525 
z
" transform="scale(0.015625)"/>
      </defs>
      <use xlink:href="#DejaVuSans-50"/>
      <use xlink:href="#DejaVuSans-72" x="58.552734"/>
      <use xlink:href="#DejaVuSans-6f" x="97.416016"/>
      <use xlink:href="#DejaVuSans-62" x="158.597656"/>
      <use xlink:href="#DejaVuSans-61" x="222.074219"/>
      <use xlink:href="#DejaVuSans-62" x="283.353516"/>
      <use xlink:href="#DejaVuSans-69" x="346.830078"/>
      <use xlink:href="#DejaVuSans-6c" x="374.613281"/>
      <use xlink:href="#DejaVuSans-69" x="402.396484"/>
      <use xlink:href="#DejaVuSans-74" x="430.179688"/>
      <use xlink:href="#DejaVuSans-79" x="469.388672"/>
      <use xlink:href="#DejaVuSans-20" x="528.568359"/>
      <use xlink:href="#DejaVuSans-6f" x="560.355469"/>
      <use xlink:href="#DejaVuSans-66" x="621.537109"/>
      <use xlink:href="#DejaVuSans-20" x="656.742188"/>
      <use xlink:href="#DejaVuSans-63" x="688.529297"/>
      <use xlink:href="#DejaVuSans-6f" x="743.509766"/>
      <use xlink:href="#DejaVuSans-72" x="804.691406"/>
      <use xlink:href="#DejaVuSans-72" x="844.054688"/>
      <use xlink:href="#DejaVuSans-65" x="882.917969"/>
      <use xlink:href="#DejaVuSans-63" x="944.441406"/>
      <use xlink:href="#DejaVuSans-74" x="999.421875"/>
      <use xlink:href="#DejaVuSans-20" x="1038.630859"/>
      <use xlink:href="#DejaVuSans-61" x="1070.417969"/>
      <use xlink:href="#DejaVuSans-6e" x="1131.697266"/>
      <use xlink:href="#DejaVuSans-73" x="1195.076172"/>
      <use xlink:href="#DejaVuSans-77" x="1247.175781"/>
      <use xlink:href="#DejaVuSans-65" x="1328.962891"/>
      <use xlink:href="#DejaVuSans-72" x="1390.486328"/>
      <use xlink:href="#DejaVuSans-20" x="1431.599609"/>
      <use xlink:href="#DejaVuSans-74" x="1463.386719"/>
      <use xlink:href="#DejaVuSans-6f" x="1502.595703"/>
      <use xlink:href="#DejaVuSans-20" x="1563.777344"/>
      <use xlink:href="#DejaVuSans-41" x="1595.564453"/>
      <use xlink:href="#DejaVuSans-2f" x="1663.972656"/>
      <use xlink:href="#DejaVuSans-42" x="1697.664062"/>
      <use xlink:href="#DejaVuSans-20" x="1766.267578"/>
      <use xlink:href="#DejaVuSans-71" x="1798.054688"/>
      <use xlink:href="#DejaVuSans-75" x="1861.53125"/>
      <use xlink:href="#DejaVuSans-65" x="1924.910156"/>
      <use xlink:href="#DejaVuSans-73" x="1986.433594"/>
      <use xlink:href="#DejaVuSans-74" x="2038.533203"/>
      <use xlink:href="#DejaVuSans-69" x="2077.742188"/>
      <use xlink:href="#DejaVuSans-6f" x="2105.525391"/>
      <use xlink:href="#DejaVuSans-6e" x="2166.707031"/>
     </g>
    </g>
   </g>
   <g id="line2d_14">
    <path d="M 64.696364 372.020773 
L 121.284242 372.801818 
L 177.872121 369.468289 
L 234.46 362.4152 
L 291.047879 356.677925 
L 347.635758 352.323616 
L 404.223636 348.507327 
" clip-path="url(#p25f929efa4)" style="fill: none; stroke-dasharray: 9.25,4; stroke-dashoffset: 0; stroke: #8000ff; stroke-width: 2.5"/>
    <defs>
     <path id="m7a2aacd66e" d="M 0 2.5 
C 0.663008 2.5 1.29895 2.236584 1.767767 1.767767 
C 2.236584 1.29895 2.5 0.663008 2.5 0 
C 2.5 -0.663008 2.236584 -1.29895 1.767767 -1.767767 
C 1.29895 -2.236584 0.663008 -2.5 0 -2.5 
C -0.663008 -2.5 -1.29895 -2.236584 -1.767767 -1.767767 
C -2.236584 -1.29895 -2.5 -0.663008 -2.5 0 
C -2.5 0.663008 -2.236584 1.29895 -1.767767 1.767767 
C -1.29895 2.236584 -0.663008 2.5 0 2.5 
z
" style="stroke: #8000ff"/>
    </defs>
    <g clip-path="url(#p25f929efa4)">
     <use xlink:href="#m7a2aacd66e" x="64.696364" y="372.020773" style="fill: #8000ff; stroke: #8000ff"/>
     <use xlink:href="#m7a2aacd66e" x="121.284242" y="372.801818" style="fill: #8000ff; stroke: #8000ff"/>
     <use xlink:href="#m7a2aacd66e" x="177.872121" y="369.468289" style="fill: #8000ff; stroke: #8000ff"/>
     <use xlink:href="#m7a2aacd66e" x="234.46" y="362.4152" style="fill: #8000ff; stroke: #8000ff"/>
     <use xlink:href="#m7a2aacd66e" x="291.047879" y="356.677925" style="fill: #8000ff; stroke: #8000ff"/>
     <use xlink:href="#m7a2aacd66e" x="347.635758" y="352.323616" style="fill: #8000ff; stroke: #8000ff"/>
     <use xlink:href="#m7a2aacd66e" x="404.223636" y="348.507327" style="fill: #8000ff; stroke: #8000ff"/>
    </g>
   </g>
   <g id="line2d_15">
    <path d="M 64.696364 185.399709 
L 121.284242 195.789427 
L 177.872121 209.671756 
L 234.46 224.956972 
L 291.047879 240.286048 
L 347.635758 255.732435 
L 404.223636 273.935718 
" clip-path="url(#p25f929efa4)" style="fill: none; stroke-dasharray: 9.25,4; stroke-dashoffset: 0; stroke: #4e4dfc; stroke-width: 2.5"/>
    <defs>
     <path id="mf3ae845ea4" d="M 0 2.5 
C 0.663008 2.5 1.29895 2.236584 1.767767 1.767767 
C 2.236584 1.29895 2.5 0.663008 2.5 0 
C 2.5 -0.663008 2.236584 -1.29895 1.767767 -1.767767 
C 1.29895 -2.236584 0.663008 -2.5 0 -2.5 
C -0.663008 -2.5 -1.29895 -2.236584 -1.767767 -1.767767 
C -2.236584 -1.29895 -2.5 -0.663008 -2.5 0 
C -2.5 0.663008 -2.236584 1.29895 -1.767767 1.767767 
C -1.29895 2.236584 -0.663008 2.5 0 2.5 
z
" style="stroke: #4e4dfc"/>
    </defs>
    <g clip-path="url(#p25f929efa4)">
     <use xlink:href="#mf3ae845ea4" x="64.696364" y="185.399709" style="fill: #4e4dfc; stroke: #4e4dfc"/>
     <use xlink:href="#mf3ae845ea4" x="121.284242" y="195.789427" style="fill: #4e4dfc; stroke: #4e4dfc"/>
     <use xlink:href="#mf3ae845ea4" x="177.872121" y="209.671756" style="fill: #4e4dfc; stroke: #4e4dfc"/>
     <use xlink:href="#mf3ae845ea4" x="234.46" y="224.956972" style="fill: #4e4dfc; stroke: #4e4dfc"/>
     <use xlink:href="#mf3ae845ea4" x="291.047879" y="240.286048" style="fill: #4e4dfc; stroke: #4e4dfc"/>
     <use xlink:href="#mf3ae845ea4" x="347.635758" y="255.732435" style="fill: #4e4dfc; stroke: #4e4dfc"/>
     <use xlink:href="#mf3ae845ea4" x="404.223636" y="273.935718" style="fill: #4e4dfc; stroke: #4e4dfc"/>
    </g>
   </g>
   <g id="line2d_16">
    <path d="M 64.696364 154.784049 
L 121.284242 151.892755 
L 177.872121 149.199323 
L 234.46 147.379092 
L 291.047879 146.921752 
L 347.635758 148.278839 
L 404.223636 150.999624 
" clip-path="url(#p25f929efa4)" style="fill: none; stroke-dasharray: 9.25,4; stroke-dashoffset: 0; stroke: #1996f3; stroke-width: 2.5"/>
    <defs>
     <path id="mb65b1b07ea" d="M 0 2.5 
C 0.663008 2.5 1.29895 2.236584 1.767767 1.767767 
C 2.236584 1.29895 2.5 0.663008 2.5 0 
C 2.5 -0.663008 2.236584 -1.29895 1.767767 -1.767767 
C 1.29895 -2.236584 0.663008 -2.5 0 -2.5 
C -0.663008 -2.5 -1.29895 -2.236584 -1.767767 -1.767767 
C -2.236584 -1.29895 -2.5 -0.663008 -2.5 0 
C -2.5 0.663008 -2.236584 1.29895 -1.767767 1.767767 
C -1.29895 2.236584 -0.663008 2.5 0 2.5 
z
" style="stroke: #1996f3"/>
    </defs>
    <g clip-path="url(#p25f929efa4)">
     <use xlink:href="#mb65b1b07ea" x="64.696364" y="154.784049" style="fill: #1996f3; stroke: #1996f3"/>
     <use xlink:href="#mb65b1b07ea" x="121.284242" y="151.892755" style="fill: #1996f3; stroke: #1996f3"/>
     <use xlink:href="#mb65b1b07ea" x="177.872121" y="149.199323" style="fill: #1996f3; stroke: #1996f3"/>
     <use xlink:href="#mb65b1b07ea" x="234.46" y="147.379092" style="fill: #1996f3; stroke: #1996f3"/>
     <use xlink:href="#mb65b1b07ea" x="291.047879" y="146.921752" style="fill: #1996f3; stroke: #1996f3"/>
     <use xlink:href="#mb65b1b07ea" x="347.635758" y="148.278839" style="fill: #1996f3; stroke: #1996f3"/>
     <use xlink:href="#mb65b1b07ea" x="404.223636" y="150.999624" style="fill: #1996f3; stroke: #1996f3"/>
    </g>
   </g>
   <g id="line2d_17">
    <path d="M 64.696364 286.381206 
L 121.284242 299.994147 
L 177.872121 315.203447 
L 234.46 328.805943 
L 291.047879 341.002068 
L 347.635758 352.733362 
L 404.223636 364.541397 
" clip-path="url(#p25f929efa4)" style="fill: none; stroke-dasharray: 9.25,4; stroke-dashoffset: 0; stroke: #18cde4; stroke-width: 2.5"/>
    <defs>
     <path id="m385b9f49b9" d="M 0 2.5 
C 0.663008 2.5 1.29895 2.236584 1.767767 1.767767 
C 2.236584 1.29895 2.5 0.663008 2.5 0 
C 2.5 -0.663008 2.236584 -1.29895 1.767767 -1.767767 
C 1.29895 -2.236584 0.663008 -2.5 0 -2.5 
C -0.663008 -2.5 -1.29895 -2.236584 -1.767767 -1.767767 
C -2.236584 -1.29895 -2.5 -0.663008 -2.5 0 
C -2.5 0.663008 -2.236584 1.29895 -1.767767 1.767767 
C -1.29895 2.236584 -0.663008 2.5 0 2.5 
z
" style="stroke: #18cde4"/>
    </defs>
    <g clip-path="url(#p25f929efa4)">
     <use xlink:href="#m385b9f49b9" x="64.696364" y="286.381206" style="fill: #18cde4; stroke: #18cde4"/>
     <use xlink:href="#m385b9f49b9" x="121.284242" y="299.994147" style="fill: #18cde4; stroke: #18cde4"/>
     <use xlink:href="#m385b9f49b9" x="177.872121" y="315.203447" style="fill: #18cde4; stroke: #18cde4"/>
     <use xlink:href="#m385b9f49b9" x="234.46" y="328.805943" style="fill: #18cde4; stroke: #18cde4"/>
     <use xlink:href="#m385b9f49b9" x="291.047879" y="341.002068" style="fill: #18cde4; stroke: #18cde4"/>
     <use xlink:href="#m385b9f49b9" x="347.635758" y="352.733362" style="fill: #18cde4; stroke: #18cde4"/>
     <use xlink:href="#m385b9f49b9" x="404.223636" y="364.541397" style="fill: #18cde4; stroke: #18cde4"/>
    </g>
   </g>
   <g id="line2d_18">
    <path d="M 64.696364 222.56202 
L 121.284242 237.425633 
L 177.872121 259.57154 
L 234.46 282.983152 
L 291.047879 299.331264 
L 347.635758 307.442205 
L 404.223636 313.26692 
" clip-path="url(#p25f929efa4)" style="fill: none; stroke-dasharray: 9.25,4; stroke-dashoffset: 0; stroke: #4df3ce; stroke-width: 2.5"/>
    <defs>
     <path id="mec4e1bb376" d="M 0 2.5 
C 0.663008 2.5 1.29895 2.236584 1.767767 1.767767 
C 2.236584 1.29895 2.5 0.663008 2.5 0 
C 2.5 -0.663008 2.236584 -1.29895 1.767767 -1.767767 
C 1.29895 -2.236584 0.663008 -2.5 0 -2.5 
C -0.663008 -2.5 -1.29895 -2.236584 -1.767767 -1.767767 
C -2.236584 -1.29895 -2.5 -0.663008 -2.5 0 
C -2.5 0.663008 -2.236584 1.29895 -1.767767 1.767767 
C -1.29895 2.236584 -0.663008 2.5 0 2.5 
z
" style="stroke: #4df3ce"/>
    </defs>
    <g clip-path="url(#p25f929efa4)">
     <use xlink:href="#mec4e1bb376" x="64.696364" y="222.56202" style="fill: #4df3ce; stroke: #4df3ce"/>
     <use xlink:href="#mec4e1bb376" x="121.284242" y="237.425633" style="fill: #4df3ce; stroke: #4df3ce"/>
     <use xlink:href="#mec4e1bb376" x="177.872121" y="259.57154" style="fill: #4df3ce; stroke: #4df3ce"/>
     <use xlink:href="#mec4e1bb376" x="234.46" y="282.983152" style="fill: #4df3ce; stroke: #4df3ce"/>
     <use xlink:href="#mec4e1bb376" x="291.047879" y="299.331264" style="fill: #4df3ce; stroke: #4df3ce"/>
     <use xlink:href="#mec4e1bb376" x="347.635758" y="307.442205" style="fill: #4df3ce; stroke: #4df3ce"/>
     <use xlink:href="#mec4e1bb376" x="404.223636" y="313.26692" style="fill: #4df3ce; stroke: #4df3ce"/>
    </g>
   </g>
   <g id="line2d_19">
    <path d="M 64.696364 122.076456 
L 121.284242 116.443395 
L 177.872121 110.352928 
L 234.46 103.351855 
L 291.047879 97.201059 
L 347.635758 92.340275 
L 404.223636 91.661667 
" clip-path="url(#p25f929efa4)" style="fill: none; stroke-dasharray: 9.25,4; stroke-dashoffset: 0; stroke: #80ffb4; stroke-width: 2.5"/>
    <defs>
     <path id="m44b1d2c266" d="M 0 2.5 
C 0.663008 2.5 1.29895 2.236584 1.767767 1.767767 
C 2.236584 1.29895 2.5 0.663008 2.5 0 
C 2.5 -0.663008 2.236584 -1.29895 1.767767 -1.767767 
C 1.29895 -2.236584 0.663008 -2.5 0 -2.5 
C -0.663008 -2.5 -1.29895 -2.236584 -1.767767 -1.767767 
C -2.236584 -1.29895 -2.5 -0.663008 -2.5 0 
C -2.5 0.663008 -2.236584 1.29895 -1.767767 1.767767 
C -1.29895 2.236584 -0.663008 2.5 0 2.5 
z
" style="stroke: #80ffb4"/>
    </defs>
    <g clip-path="url(#p25f929efa4)">
     <use xlink:href="#m44b1d2c266" x="64.696364" y="122.076456" style="fill: #80ffb4; stroke: #80ffb4"/>
     <use xlink:href="#m44b1d2c266" x="121.284242" y="116.443395" style="fill: #80ffb4; stroke: #80ffb4"/>
     <use xlink:href="#m44b1d2c266" x="177.872121" y="110.352928" style="fill: #80ffb4; stroke: #80ffb4"/>
     <use xlink:href="#m44b1d2c266" x="234.46" y="103.351855" style="fill: #80ffb4; stroke: #80ffb4"/>
     <use xlink:href="#m44b1d2c266" x="291.047879" y="97.201059" style="fill: #80ffb4; stroke: #80ffb4"/>
     <use xlink:href="#m44b1d2c266" x="347.635758" y="92.340275" style="fill: #80ffb4; stroke: #80ffb4"/>
     <use xlink:href="#m44b1d2c266" x="404.223636" y="91.661667" style="fill: #80ffb4; stroke: #80ffb4"/>
    </g>
   </g>
   <g id="line2d_20">
    <path d="M 64.696364 44.88962 
L 121.284242 39.165256 
L 177.872121 33.983533 
L 234.46 30.525362 
L 291.047879 28.554096 
L 347.635758 28.038182 
L 404.223636 28.36145 
" clip-path="url(#p25f929efa4)" style="fill: none; stroke-dasharray: 9.25,4; stroke-dashoffset: 0; stroke: #b2f396; stroke-width: 2.5"/>
    <defs>
     <path id="mfa53b564c9" d="M 0 2.5 
C 0.663008 2.5 1.29895 2.236584 1.767767 1.767767 
C 2.236584 1.29895 2.5 0.663008 2.5 0 
C 2.5 -0.663008 2.236584 -1.29895 1.767767 -1.767767 
C 1.29895 -2.236584 0.663008 -2.5 0 -2.5 
C -0.663008 -2.5 -1.29895 -2.236584 -1.767767 -1.767767 
C -2.236584 -1.29895 -2.5 -0.663008 -2.5 0 
C -2.5 0.663008 -2.236584 1.29895 -1.767767 1.767767 
C -1.29895 2.236584 -0.663008 2.5 0 2.5 
z
" style="stroke: #b2f396"/>
    </defs>
    <g clip-path="url(#p25f929efa4)">
     <use xlink:href="#mfa53b564c9" x="64.696364" y="44.88962" style="fill: #b2f396; stroke: #b2f396"/>
     <use xlink:href="#mfa53b564c9" x="121.284242" y="39.165256" style="fill: #b2f396; stroke: #b2f396"/>
     <use xlink:href="#mfa53b564c9" x="177.872121" y="33.983533" style="fill: #b2f396; stroke: #b2f396"/>
     <use xlink:href="#mfa53b564c9" x="234.46" y="30.525362" style="fill: #b2f396; stroke: #b2f396"/>
     <use xlink:href="#mfa53b564c9" x="291.047879" y="28.554096" style="fill: #b2f396; stroke: #b2f396"/>
     <use xlink:href="#mfa53b564c9" x="347.635758" y="28.038182" style="fill: #b2f396; stroke: #b2f396"/>
     <use xlink:href="#mfa53b564c9" x="404.223636" y="28.36145" style="fill: #b2f396; stroke: #b2f396"/>
    </g>
   </g>
   <g id="line2d_21">
    <path d="M 64.696364 55.805715 
L 121.284242 54.244776 
L 177.872121 48.805404 
L 234.46 42.471843 
L 291.047879 40.718664 
L 347.635758 44.419694 
L 404.223636 49.187492 
" clip-path="url(#p25f929efa4)" style="fill: none; stroke-dasharray: 9.25,4; stroke-dashoffset: 0; stroke: #e6cd73; stroke-width: 2.5"/>
    <defs>
     <path id="m7ada1e052b" d="M 0 2.5 
C 0.663008 2.5 1.29895 2.236584 1.767767 1.767767 
C 2.236584 1.29895 2.5 0.663008 2.5 0 
C 2.5 -0.663008 2.236584 -1.29895 1.767767 -1.767767 
C 1.29895 -2.236584 0.663008 -2.5 0 -2.5 
C -0.663008 -2.5 -1.29895 -2.236584 -1.767767 -1.767767 
C -2.236584 -1.29895 -2.5 -0.663008 -2.5 0 
C -2.5 0.663008 -2.236584 1.29895 -1.767767 1.767767 
C -1.29895 2.236584 -0.663008 2.5 0 2.5 
z
" style="stroke: #e6cd73"/>
    </defs>
    <g clip-path="url(#p25f929efa4)">
     <use xlink:href="#m7ada1e052b" x="64.696364" y="55.805715" style="fill: #e6cd73; stroke: #e6cd73"/>
     <use xlink:href="#m7ada1e052b" x="121.284242" y="54.244776" style="fill: #e6cd73; stroke: #e6cd73"/>
     <use xlink:href="#m7ada1e052b" x="177.872121" y="48.805404" style="fill: #e6cd73; stroke: #e6cd73"/>
     <use xlink:href="#m7ada1e052b" x="234.46" y="42.471843" style="fill: #e6cd73; stroke: #e6cd73"/>
     <use xlink:href="#m7ada1e052b" x="291.047879" y="40.718664" style="fill: #e6cd73; stroke: #e6cd73"/>
     <use xlink:href="#m7ada1e052b" x="347.635758" y="44.419694" style="fill: #e6cd73; stroke: #e6cd73"/>
     <use xlink:href="#m7ada1e052b" x="404.223636" y="49.187492" style="fill: #e6cd73; stroke: #e6cd73"/>
    </g>
   </g>
   <g id="line2d_22">
    <path d="M 64.696364 293.557534 
L 121.284242 278.376801 
L 177.872121 274.219629 
L 234.46 279.198497 
L 291.047879 290.370525 
L 347.635758 304.749985 
L 404.223636 319.933301 
" clip-path="url(#p25f929efa4)" style="fill: none; stroke-dasharray: 9.25,4; stroke-dashoffset: 0; stroke: #ff964f; stroke-width: 2.5"/>
    <defs>
     <path id="m85fcccbe58" d="M 0 2.5 
C 0.663008 2.5 1.29895 2.236584 1.767767 1.767767 
C 2.236584 1.29895 2.5 0.663008 2.5 0 
C 2.5 -0.663008 2.236584 -1.29895 1.767767 -1.767767 
C 1.29895 -2.236584 0.663008 -2.5 0 -2.5 
C -0.663008 -2.5 -1.29895 -2.236584 -1.767767 -1.767767 
C -2.236584 -1.29895 -2.5 -0.663008 -2.5 0 
C -2.5 0.663008 -2.236584 1.29895 -1.767767 1.767767 
C -1.29895 2.236584 -0.663008 2.5 0 2.5 
z
" style="stroke: #ff964f"/>
    </defs>
    <g clip-path="url(#p25f929efa4)">
     <use xlink:href="#m85fcccbe58" x="64.696364" y="293.557534" style="fill: #ff964f; stroke: #ff964f"/>
     <use xlink:href="#m85fcccbe58" x="121.284242" y="278.376801" style="fill: #ff964f; stroke: #ff964f"/>
     <use xlink:href="#m85fcccbe58" x="177.872121" y="274.219629" style="fill: #ff964f; stroke: #ff964f"/>
     <use xlink:href="#m85fcccbe58" x="234.46" y="279.198497" style="fill: #ff964f; stroke: #ff964f"/>
     <use xlink:href="#m85fcccbe58" x="291.047879" y="290.370525" style="fill: #ff964f; stroke: #ff964f"/>
     <use xlink:href="#m85fcccbe58" x="347.635758" y="304.749985" style="fill: #ff964f; stroke: #ff964f"/>
     <use xlink:href="#m85fcccbe58" x="404.223636" y="319.933301" style="fill: #ff964f; stroke: #ff964f"/>
    </g>
   </g>
   <g id="line2d_23">
    <path d="M 64.696364 200.112901 
L 121.284242 205.01153 
L 177.872121 217.717699 
L 234.46 239.892728 
L 291.047879 273.110356 
L 347.635758 311.582167 
L 404.223636 336.809981 
" clip-path="url(#p25f929efa4)" style="fill: none; stroke-dasharray: 9.25,4; stroke-dashoffset: 0; stroke: #ff4d27; stroke-width: 2.5"/>
    <defs>
     <path id="m6f10db412a" d="M 0 2.5 
C 0.663008 2.5 1.29895 2.236584 1.767767 1.767767 
C 2.236584 1.29895 2.5 0.663008 2.5 0 
C 2.5 -0.663008 2.236584 -1.29895 1.767767 -1.767767 
C 1.29895 -2.236584 0.663008 -2.5 0 -2.5 
C -0.663008 -2.5 -1.29895 -2.236584 -1.767767 -1.767767 
C -2.236584 -1.29895 -2.5 -0.663008 -2.5 0 
C -2.5 0.663008 -2.236584 1.29895 -1.767767 1.767767 
C -1.29895 2.236584 -0.663008 2.5 0 2.5 
z
" style="stroke: #ff4d27"/>
    </defs>
    <g clip-path="url(#p25f929efa4)">
     <use xlink:href="#m6f10db412a" x="64.696364" y="200.112901" style="fill: #ff4d27; stroke: #ff4d27"/>
     <use xlink:href="#m6f10db412a" x="121.284242" y="205.01153" style="fill: #ff4d27; stroke: #ff4d27"/>
     <use xlink:href="#m6f10db412a" x="177.872121" y="217.717699" style="fill: #ff4d27; stroke: #ff4d27"/>
     <use xlink:href="#m6f10db412a" x="234.46" y="239.892728" style="fill: #ff4d27; stroke: #ff4d27"/>
     <use xlink:href="#m6f10db412a" x="291.047879" y="273.110356" style="fill: #ff4d27; stroke: #ff4d27"/>
     <use xlink:href="#m6f10db412a" x="347.635758" y="311.582167" style="fill: #ff4d27; stroke: #ff4d27"/>
     <use xlink:href="#m6f10db412a" x="404.223636" y="336.809981" style="fill: #ff4d27; stroke: #ff4d27"/>
    </g>
   </g>
   <g id="line2d_24">
    <path d="M 64.696364 137.126455 
L 121.284242 128.226365 
L 177.872121 118.311909 
L 234.46 108.235128 
L 291.047879 97.981585 
L 347.635758 88.896072 
L 404.223636 82.129498 
" clip-path="url(#p25f929efa4)" style="fill: none; stroke-dasharray: 9.25,4; stroke-dashoffset: 0; stroke: #ff0000; stroke-width: 2.5"/>
    <defs>
     <path id="m15e2fc791a" d="M 0 2.5 
C 0.663008 2.5 1.29895 2.236584 1.767767 1.767767 
C 2.236584 1.29895 2.5 0.663008 2.5 0 
C 2.5 -0.663008 2.236584 -1.29895 1.767767 -1.767767 
C 1.29895 -2.236584 0.663008 -2.5 0 -2.5 
C -0.663008 -2.5 -1.29895 -2.236584 -1.767767 -1.767767 
C -2.236584 -1.29895 -2.5 -0.663008 -2.5 0 
C -2.5 0.663008 -2.236584 1.29895 -1.767767 1.767767 
C -1.29895 2.236584 -0.663008 2.5 0 2.5 
z
" style="stroke: #ff0000"/>
    </defs>
    <g clip-path="url(#p25f929efa4)">
     <use xlink:href="#m15e2fc791a" x="64.696364" y="137.126455" style="fill: #ff0000; stroke: #ff0000"/>
     <use xlink:href="#m15e2fc791a" x="121.284242" y="128.226365" style="fill: #ff0000; stroke: #ff0000"/>
     <use xlink:href="#m15e2fc791a" x="177.872121" y="118.311909" style="fill: #ff0000; stroke: #ff0000"/>
     <use xlink:href="#m15e2fc791a" x="234.46" y="108.235128" style="fill: #ff0000; stroke: #ff0000"/>
     <use xlink:href="#m15e2fc791a" x="291.047879" y="97.981585" style="fill: #ff0000; stroke: #ff0000"/>
     <use xlink:href="#m15e2fc791a" x="347.635758" y="88.896072" style="fill: #ff0000; stroke: #ff0000"/>
     <use xlink:href="#m15e2fc791a" x="404.223636" y="82.129498" style="fill: #ff0000; stroke: #ff0000"/>
    </g>
   </g>
   <g id="patch_3">
    <path d="M 47.72 390.04 
L 47.72 10.8 
" style="fill: none; stroke: #000000; stroke-width: 0.8; stroke-linejoin: miter; stroke-linecap: square"/>
   </g>
   <g id="patch_4">
    <path d="M 421.2 390.04 
L 421.2 10.8 
" style="fill: none; stroke: #000000; stroke-width: 0.8; stroke-linejoin: miter; stroke-linecap: square"/>
   </g>
   <g id="patch_5">
    <path d="M 47.72 390.04 
L 421.2 390.04 
" style="fill: none; stroke: #000000; stroke-width: 0.8; stroke-linejoin: miter; stroke-linecap: square"/>
   </g>
   <g id="patch_6">
    <path d="M 47.72 10.8 
L 421.2 10.8 
" style="fill: none; stroke: #000000; stroke-width: 0.8; stroke-linejoin: miter; stroke-linecap: square"/>
   </g>
   <g id="legend_1">
    <g id="patch_7">
     <path d="M 279.051562 282.649688 
L 414.2 282.649688 
Q 416.2 282.649688 416.2 280.649688 
L 416.2 120.190313 
Q 416.2 118.190313 414.2 118.190313 
L 279.051562 118.190313 
Q 277.051562 118.190313 277.051562 120.190313 
L 277.051562 280.649688 
Q 277.051562 282.649688 279.051562 282.649688 
z
" style="fill: #ffffff; opacity: 0.8; stroke: #cccccc; stroke-linejoin: miter"/>
    </g>
    <g id="line2d_25">
     <path d="M 281.051562 126.28875 
L 291.051562 126.28875 
L 301.051562 126.28875 
" style="fill: none; stroke-dasharray: 9.25,4; stroke-dashoffset: 0; stroke: #8000ff; stroke-width: 2.5"/>
     <g>
      <use xlink:href="#m7a2aacd66e" x="291.051562" y="126.28875" style="fill: #8000ff; stroke: #8000ff"/>
     </g>
    </g>
    <g id="text_16">
     <!-- Confusion -->
     <g transform="translate(309.051562 129.78875) scale(0.1 -0.1)">
      <defs>
       <path id="DejaVuSans-43" d="M 4122 4306 
L 4122 3641 
Q 3803 3938 3442 4084 
Q 3081 4231 2675 4231 
Q 1875 4231 1450 3742 
Q 1025 3253 1025 2328 
Q 1025 1406 1450 917 
Q 1875 428 2675 428 
Q 3081 428 3442 575 
Q 3803 722 4122 1019 
L 4122 359 
Q 3791 134 3420 21 
Q 3050 -91 2638 -91 
Q 1578 -91 968 557 
Q 359 1206 359 2328 
Q 359 3453 968 4101 
Q 1578 4750 2638 4750 
Q 3056 4750 3426 4639 
Q 3797 4528 4122 4306 
z
" transform="scale(0.015625)"/>
      </defs>
      <use xlink:href="#DejaVuSans-43"/>
      <use xlink:href="#DejaVuSans-6f" x="69.824219"/>
      <use xlink:href="#DejaVuSans-6e" x="131.005859"/>
      <use xlink:href="#DejaVuSans-66" x="194.384766"/>
      <use xlink:href="#DejaVuSans-75" x="229.589844"/>
      <use xlink:href="#DejaVuSans-73" x="292.96875"/>
      <use xlink:href="#DejaVuSans-69" x="345.068359"/>
      <use xlink:href="#DejaVuSans-6f" x="372.851562"/>
      <use xlink:href="#DejaVuSans-6e" x="434.033203"/>
     </g>
    </g>
    <g id="line2d_26">
     <path d="M 281.051562 140.966875 
L 291.051562 140.966875 
L 301.051562 140.966875 
" style="fill: none; stroke-dasharray: 9.25,4; stroke-dashoffset: 0; stroke: #4e4dfc; stroke-width: 2.5"/>
     <g>
      <use xlink:href="#mf3ae845ea4" x="291.051562" y="140.966875" style="fill: #4e4dfc; stroke: #4e4dfc"/>
     </g>
    </g>
    <g id="text_17">
     <!-- Myths and Fairytales -->
     <g transform="translate(309.051562 144.466875) scale(0.1 -0.1)">
      <defs>
       <path id="DejaVuSans-68" d="M 3513 2113 
L 3513 0 
L 2938 0 
L 2938 2094 
Q 2938 2591 2744 2837 
Q 2550 3084 2163 3084 
Q 1697 3084 1428 2787 
Q 1159 2491 1159 1978 
L 1159 0 
L 581 0 
L 581 4863 
L 1159 4863 
L 1159 2956 
Q 1366 3272 1645 3428 
Q 1925 3584 2291 3584 
Q 2894 3584 3203 3211 
Q 3513 2838 3513 2113 
z
" transform="scale(0.015625)"/>
       <path id="DejaVuSans-64" d="M 2906 2969 
L 2906 4863 
L 3481 4863 
L 3481 0 
L 2906 0 
L 2906 525 
Q 2725 213 2448 61 
Q 2172 -91 1784 -91 
Q 1150 -91 751 415 
Q 353 922 353 1747 
Q 353 2572 751 3078 
Q 1150 3584 1784 3584 
Q 2172 3584 2448 3432 
Q 2725 3281 2906 2969 
z
M 947 1747 
Q 947 1113 1208 752 
Q 1469 391 1925 391 
Q 2381 391 2643 752 
Q 2906 1113 2906 1747 
Q 2906 2381 2643 2742 
Q 2381 3103 1925 3103 
Q 1469 3103 1208 2742 
Q 947 2381 947 1747 
z
" transform="scale(0.015625)"/>
       <path id="DejaVuSans-46" d="M 628 4666 
L 3309 4666 
L 3309 4134 
L 1259 4134 
L 1259 2759 
L 3109 2759 
L 3109 2228 
L 1259 2228 
L 1259 0 
L 628 0 
L 628 4666 
z
" transform="scale(0.015625)"/>
      </defs>
      <use xlink:href="#DejaVuSans-4d"/>
      <use xlink:href="#DejaVuSans-79" x="86.279297"/>
      <use xlink:href="#DejaVuSans-74" x="145.458984"/>
      <use xlink:href="#DejaVuSans-68" x="184.667969"/>
      <use xlink:href="#DejaVuSans-73" x="248.046875"/>
      <use xlink:href="#DejaVuSans-20" x="300.146484"/>
      <use xlink:href="#DejaVuSans-61" x="331.933594"/>
      <use xlink:href="#DejaVuSans-6e" x="393.212891"/>
      <use xlink:href="#DejaVuSans-64" x="456.591797"/>
      <use xlink:href="#DejaVuSans-20" x="520.068359"/>
      <use xlink:href="#DejaVuSans-46" x="551.855469"/>
      <use xlink:href="#DejaVuSans-61" x="600.25"/>
      <use xlink:href="#DejaVuSans-69" x="661.529297"/>
      <use xlink:href="#DejaVuSans-72" x="689.3125"/>
      <use xlink:href="#DejaVuSans-79" x="730.425781"/>
      <use xlink:href="#DejaVuSans-74" x="789.605469"/>
      <use xlink:href="#DejaVuSans-61" x="828.814453"/>
      <use xlink:href="#DejaVuSans-6c" x="890.09375"/>
      <use xlink:href="#DejaVuSans-65" x="917.876953"/>
      <use xlink:href="#DejaVuSans-73" x="979.400391"/>
     </g>
    </g>
    <g id="line2d_27">
     <path d="M 281.051562 155.645 
L 291.051562 155.645 
L 301.051562 155.645 
" style="fill: none; stroke-dasharray: 9.25,4; stroke-dashoffset: 0; stroke: #1996f3; stroke-width: 2.5"/>
     <g>
      <use xlink:href="#mb65b1b07ea" x="291.051562" y="155.645" style="fill: #1996f3; stroke: #1996f3"/>
     </g>
    </g>
    <g id="text_18">
     <!-- Misconceptions -->
     <g transform="translate(309.051562 159.145) scale(0.1 -0.1)">
      <use xlink:href="#DejaVuSans-4d"/>
      <use xlink:href="#DejaVuSans-69" x="86.279297"/>
      <use xlink:href="#DejaVuSans-73" x="114.0625"/>
      <use xlink:href="#DejaVuSans-63" x="166.162109"/>
      <use xlink:href="#DejaVuSans-6f" x="221.142578"/>
      <use xlink:href="#DejaVuSans-6e" x="282.324219"/>
      <use xlink:href="#DejaVuSans-63" x="345.703125"/>
      <use xlink:href="#DejaVuSans-65" x="400.683594"/>
      <use xlink:href="#DejaVuSans-70" x="462.207031"/>
      <use xlink:href="#DejaVuSans-74" x="525.683594"/>
      <use xlink:href="#DejaVuSans-69" x="564.892578"/>
      <use xlink:href="#DejaVuSans-6f" x="592.675781"/>
      <use xlink:href="#DejaVuSans-6e" x="653.857422"/>
      <use xlink:href="#DejaVuSans-73" x="717.236328"/>
     </g>
    </g>
    <g id="line2d_28">
     <path d="M 281.051562 170.323125 
L 291.051562 170.323125 
L 301.051562 170.323125 
" style="fill: none; stroke-dasharray: 9.25,4; stroke-dashoffset: 0; stroke: #18cde4; stroke-width: 2.5"/>
     <g>
      <use xlink:href="#m385b9f49b9" x="291.051562" y="170.323125" style="fill: #18cde4; stroke: #18cde4"/>
     </g>
    </g>
    <g id="text_19">
     <!-- Paranormal -->
     <g transform="translate(309.051562 173.823125) scale(0.1 -0.1)">
      <defs>
       <path id="DejaVuSans-6d" d="M 3328 2828 
Q 3544 3216 3844 3400 
Q 4144 3584 4550 3584 
Q 5097 3584 5394 3201 
Q 5691 2819 5691 2113 
L 5691 0 
L 5113 0 
L 5113 2094 
Q 5113 2597 4934 2840 
Q 4756 3084 4391 3084 
Q 3944 3084 3684 2787 
Q 3425 2491 3425 1978 
L 3425 0 
L 2847 0 
L 2847 2094 
Q 2847 2600 2669 2842 
Q 2491 3084 2119 3084 
Q 1678 3084 1418 2786 
Q 1159 2488 1159 1978 
L 1159 0 
L 581 0 
L 581 3500 
L 1159 3500 
L 1159 2956 
Q 1356 3278 1631 3431 
Q 1906 3584 2284 3584 
Q 2666 3584 2933 3390 
Q 3200 3197 3328 2828 
z
" transform="scale(0.015625)"/>
      </defs>
      <use xlink:href="#DejaVuSans-50"/>
      <use xlink:href="#DejaVuSans-61" x="55.802734"/>
      <use xlink:href="#DejaVuSans-72" x="117.082031"/>
      <use xlink:href="#DejaVuSans-61" x="158.195312"/>
      <use xlink:href="#DejaVuSans-6e" x="219.474609"/>
      <use xlink:href="#DejaVuSans-6f" x="282.853516"/>
      <use xlink:href="#DejaVuSans-72" x="344.035156"/>
      <use xlink:href="#DejaVuSans-6d" x="383.398438"/>
      <use xlink:href="#DejaVuSans-61" x="480.810547"/>
      <use xlink:href="#DejaVuSans-6c" x="542.089844"/>
     </g>
    </g>
    <g id="line2d_29">
     <path d="M 281.051562 185.00125 
L 291.051562 185.00125 
L 301.051562 185.00125 
" style="fill: none; stroke-dasharray: 9.25,4; stroke-dashoffset: 0; stroke: #4df3ce; stroke-width: 2.5"/>
     <g>
      <use xlink:href="#mec4e1bb376" x="291.051562" y="185.00125" style="fill: #4df3ce; stroke: #4df3ce"/>
     </g>
    </g>
    <g id="text_20">
     <!-- Religion -->
     <g transform="translate(309.051562 188.50125) scale(0.1 -0.1)">
      <defs>
       <path id="DejaVuSans-52" d="M 2841 2188 
Q 3044 2119 3236 1894 
Q 3428 1669 3622 1275 
L 4263 0 
L 3584 0 
L 2988 1197 
Q 2756 1666 2539 1819 
Q 2322 1972 1947 1972 
L 1259 1972 
L 1259 0 
L 628 0 
L 628 4666 
L 2053 4666 
Q 2853 4666 3247 4331 
Q 3641 3997 3641 3322 
Q 3641 2881 3436 2590 
Q 3231 2300 2841 2188 
z
M 1259 4147 
L 1259 2491 
L 2053 2491 
Q 2509 2491 2742 2702 
Q 2975 2913 2975 3322 
Q 2975 3731 2742 3939 
Q 2509 4147 2053 4147 
L 1259 4147 
z
" transform="scale(0.015625)"/>
       <path id="DejaVuSans-67" d="M 2906 1791 
Q 2906 2416 2648 2759 
Q 2391 3103 1925 3103 
Q 1463 3103 1205 2759 
Q 947 2416 947 1791 
Q 947 1169 1205 825 
Q 1463 481 1925 481 
Q 2391 481 2648 825 
Q 2906 1169 2906 1791 
z
M 3481 434 
Q 3481 -459 3084 -895 
Q 2688 -1331 1869 -1331 
Q 1566 -1331 1297 -1286 
Q 1028 -1241 775 -1147 
L 775 -588 
Q 1028 -725 1275 -790 
Q 1522 -856 1778 -856 
Q 2344 -856 2625 -561 
Q 2906 -266 2906 331 
L 2906 616 
Q 2728 306 2450 153 
Q 2172 0 1784 0 
Q 1141 0 747 490 
Q 353 981 353 1791 
Q 353 2603 747 3093 
Q 1141 3584 1784 3584 
Q 2172 3584 2450 3431 
Q 2728 3278 2906 2969 
L 2906 3500 
L 3481 3500 
L 3481 434 
z
" transform="scale(0.015625)"/>
      </defs>
      <use xlink:href="#DejaVuSans-52"/>
      <use xlink:href="#DejaVuSans-65" x="64.982422"/>
      <use xlink:href="#DejaVuSans-6c" x="126.505859"/>
      <use xlink:href="#DejaVuSans-69" x="154.289062"/>
      <use xlink:href="#DejaVuSans-67" x="182.072266"/>
      <use xlink:href="#DejaVuSans-69" x="245.548828"/>
      <use xlink:href="#DejaVuSans-6f" x="273.332031"/>
      <use xlink:href="#DejaVuSans-6e" x="334.513672"/>
     </g>
    </g>
    <g id="line2d_30">
     <path d="M 281.051562 199.679375 
L 291.051562 199.679375 
L 301.051562 199.679375 
" style="fill: none; stroke-dasharray: 9.25,4; stroke-dashoffset: 0; stroke: #80ffb4; stroke-width: 2.5"/>
     <g>
      <use xlink:href="#m44b1d2c266" x="291.051562" y="199.679375" style="fill: #80ffb4; stroke: #80ffb4"/>
     </g>
    </g>
    <g id="text_21">
     <!-- Superstitions -->
     <g transform="translate(309.051562 203.179375) scale(0.1 -0.1)">
      <defs>
       <path id="DejaVuSans-53" d="M 3425 4513 
L 3425 3897 
Q 3066 4069 2747 4153 
Q 2428 4238 2131 4238 
Q 1616 4238 1336 4038 
Q 1056 3838 1056 3469 
Q 1056 3159 1242 3001 
Q 1428 2844 1947 2747 
L 2328 2669 
Q 3034 2534 3370 2195 
Q 3706 1856 3706 1288 
Q 3706 609 3251 259 
Q 2797 -91 1919 -91 
Q 1588 -91 1214 -16 
Q 841 59 441 206 
L 441 856 
Q 825 641 1194 531 
Q 1563 422 1919 422 
Q 2459 422 2753 634 
Q 3047 847 3047 1241 
Q 3047 1584 2836 1778 
Q 2625 1972 2144 2069 
L 1759 2144 
Q 1053 2284 737 2584 
Q 422 2884 422 3419 
Q 422 4038 858 4394 
Q 1294 4750 2059 4750 
Q 2388 4750 2728 4690 
Q 3069 4631 3425 4513 
z
" transform="scale(0.015625)"/>
      </defs>
      <use xlink:href="#DejaVuSans-53"/>
      <use xlink:href="#DejaVuSans-75" x="63.476562"/>
      <use xlink:href="#DejaVuSans-70" x="126.855469"/>
      <use xlink:href="#DejaVuSans-65" x="190.332031"/>
      <use xlink:href="#DejaVuSans-72" x="251.855469"/>
      <use xlink:href="#DejaVuSans-73" x="292.96875"/>
      <use xlink:href="#DejaVuSans-74" x="345.068359"/>
      <use xlink:href="#DejaVuSans-69" x="384.277344"/>
      <use xlink:href="#DejaVuSans-74" x="412.060547"/>
      <use xlink:href="#DejaVuSans-69" x="451.269531"/>
      <use xlink:href="#DejaVuSans-6f" x="479.052734"/>
      <use xlink:href="#DejaVuSans-6e" x="540.234375"/>
      <use xlink:href="#DejaVuSans-73" x="603.613281"/>
     </g>
    </g>
    <g id="line2d_31">
     <path d="M 281.051562 214.3575 
L 291.051562 214.3575 
L 301.051562 214.3575 
" style="fill: none; stroke-dasharray: 9.25,4; stroke-dashoffset: 0; stroke: #b2f396; stroke-width: 2.5"/>
     <g>
      <use xlink:href="#mfa53b564c9" x="291.051562" y="214.3575" style="fill: #b2f396; stroke: #b2f396"/>
     </g>
    </g>
    <g id="text_22">
     <!-- Conspiracies -->
     <g transform="translate(309.051562 217.8575) scale(0.1 -0.1)">
      <use xlink:href="#DejaVuSans-43"/>
      <use xlink:href="#DejaVuSans-6f" x="69.824219"/>
      <use xlink:href="#DejaVuSans-6e" x="131.005859"/>
      <use xlink:href="#DejaVuSans-73" x="194.384766"/>
      <use xlink:href="#DejaVuSans-70" x="246.484375"/>
      <use xlink:href="#DejaVuSans-69" x="309.960938"/>
      <use xlink:href="#DejaVuSans-72" x="337.744141"/>
      <use xlink:href="#DejaVuSans-61" x="378.857422"/>
      <use xlink:href="#DejaVuSans-63" x="440.136719"/>
      <use xlink:href="#DejaVuSans-69" x="495.117188"/>
      <use xlink:href="#DejaVuSans-65" x="522.900391"/>
      <use xlink:href="#DejaVuSans-73" x="584.423828"/>
     </g>
    </g>
    <g id="line2d_32">
     <path d="M 281.051562 229.035625 
L 291.051562 229.035625 
L 301.051562 229.035625 
" style="fill: none; stroke-dasharray: 9.25,4; stroke-dashoffset: 0; stroke: #e6cd73; stroke-width: 2.5"/>
     <g>
      <use xlink:href="#m7ada1e052b" x="291.051562" y="229.035625" style="fill: #e6cd73; stroke: #e6cd73"/>
     </g>
    </g>
    <g id="text_23">
     <!-- Stereotypes -->
     <g transform="translate(309.051562 232.535625) scale(0.1 -0.1)">
      <use xlink:href="#DejaVuSans-53"/>
      <use xlink:href="#DejaVuSans-74" x="63.476562"/>
      <use xlink:href="#DejaVuSans-65" x="102.685547"/>
      <use xlink:href="#DejaVuSans-72" x="164.208984"/>
      <use xlink:href="#DejaVuSans-65" x="203.072266"/>
      <use xlink:href="#DejaVuSans-6f" x="264.595703"/>
      <use xlink:href="#DejaVuSans-74" x="325.777344"/>
      <use xlink:href="#DejaVuSans-79" x="364.986328"/>
      <use xlink:href="#DejaVuSans-70" x="424.166016"/>
      <use xlink:href="#DejaVuSans-65" x="487.642578"/>
      <use xlink:href="#DejaVuSans-73" x="549.166016"/>
     </g>
    </g>
    <g id="line2d_33">
     <path d="M 281.051562 243.71375 
L 291.051562 243.71375 
L 301.051562 243.71375 
" style="fill: none; stroke-dasharray: 9.25,4; stroke-dashoffset: 0; stroke: #ff964f; stroke-width: 2.5"/>
     <g>
      <use xlink:href="#m85fcccbe58" x="291.051562" y="243.71375" style="fill: #ff964f; stroke: #ff964f"/>
     </g>
    </g>
    <g id="text_24">
     <!-- Misinformation -->
     <g transform="translate(309.051562 247.21375) scale(0.1 -0.1)">
      <use xlink:href="#DejaVuSans-4d"/>
      <use xlink:href="#DejaVuSans-69" x="86.279297"/>
      <use xlink:href="#DejaVuSans-73" x="114.0625"/>
      <use xlink:href="#DejaVuSans-69" x="166.162109"/>
      <use xlink:href="#DejaVuSans-6e" x="193.945312"/>
      <use xlink:href="#DejaVuSans-66" x="257.324219"/>
      <use xlink:href="#DejaVuSans-6f" x="292.529297"/>
      <use xlink:href="#DejaVuSans-72" x="353.710938"/>
      <use xlink:href="#DejaVuSans-6d" x="393.074219"/>
      <use xlink:href="#DejaVuSans-61" x="490.486328"/>
      <use xlink:href="#DejaVuSans-74" x="551.765625"/>
      <use xlink:href="#DejaVuSans-69" x="590.974609"/>
      <use xlink:href="#DejaVuSans-6f" x="618.757812"/>
      <use xlink:href="#DejaVuSans-6e" x="679.939453"/>
     </g>
    </g>
    <g id="line2d_34">
     <path d="M 281.051562 258.391875 
L 291.051562 258.391875 
L 301.051562 258.391875 
" style="fill: none; stroke-dasharray: 9.25,4; stroke-dashoffset: 0; stroke: #ff4d27; stroke-width: 2.5"/>
     <g>
      <use xlink:href="#m6f10db412a" x="291.051562" y="258.391875" style="fill: #ff4d27; stroke: #ff4d27"/>
     </g>
    </g>
    <g id="text_25">
     <!-- Subjective -->
     <g transform="translate(309.051562 261.891875) scale(0.1 -0.1)">
      <defs>
       <path id="DejaVuSans-6a" d="M 603 3500 
L 1178 3500 
L 1178 -63 
Q 1178 -731 923 -1031 
Q 669 -1331 103 -1331 
L -116 -1331 
L -116 -844 
L 38 -844 
Q 366 -844 484 -692 
Q 603 -541 603 -63 
L 603 3500 
z
M 603 4863 
L 1178 4863 
L 1178 4134 
L 603 4134 
L 603 4863 
z
" transform="scale(0.015625)"/>
       <path id="DejaVuSans-76" d="M 191 3500 
L 800 3500 
L 1894 563 
L 2988 3500 
L 3597 3500 
L 2284 0 
L 1503 0 
L 191 3500 
z
" transform="scale(0.015625)"/>
      </defs>
      <use xlink:href="#DejaVuSans-53"/>
      <use xlink:href="#DejaVuSans-75" x="63.476562"/>
      <use xlink:href="#DejaVuSans-62" x="126.855469"/>
      <use xlink:href="#DejaVuSans-6a" x="190.332031"/>
      <use xlink:href="#DejaVuSans-65" x="218.115234"/>
      <use xlink:href="#DejaVuSans-63" x="279.638672"/>
      <use xlink:href="#DejaVuSans-74" x="334.619141"/>
      <use xlink:href="#DejaVuSans-69" x="373.828125"/>
      <use xlink:href="#DejaVuSans-76" x="401.611328"/>
      <use xlink:href="#DejaVuSans-65" x="460.791016"/>
     </g>
    </g>
    <g id="line2d_35">
     <path d="M 281.051562 273.07 
L 291.051562 273.07 
L 301.051562 273.07 
" style="fill: none; stroke-dasharray: 9.25,4; stroke-dashoffset: 0; stroke: #ff0000; stroke-width: 2.5"/>
     <g>
      <use xlink:href="#m15e2fc791a" x="291.051562" y="273.07" style="fill: #ff0000; stroke: #ff0000"/>
     </g>
    </g>
    <g id="text_26">
     <!-- Advertising -->
     <g transform="translate(309.051562 276.57) scale(0.1 -0.1)">
      <use xlink:href="#DejaVuSans-41"/>
      <use xlink:href="#DejaVuSans-64" x="66.658203"/>
      <use xlink:href="#DejaVuSans-76" x="130.134766"/>
      <use xlink:href="#DejaVuSans-65" x="189.314453"/>
      <use xlink:href="#DejaVuSans-72" x="250.837891"/>
      <use xlink:href="#DejaVuSans-74" x="291.951172"/>
      <use xlink:href="#DejaVuSans-69" x="331.160156"/>
      <use xlink:href="#DejaVuSans-73" x="358.943359"/>
      <use xlink:href="#DejaVuSans-69" x="411.042969"/>
      <use xlink:href="#DejaVuSans-6e" x="438.826172"/>
      <use xlink:href="#DejaVuSans-67" x="502.205078"/>
     </g>
    </g>
   </g>
  </g>
 </g>
 <defs>
  <clipPath id="p25f929efa4">
   <rect x="47.72" y="10.8" width="373.48" height="379.24"/>
  </clipPath>
 </defs>
</svg>
