<?xml version="1.0" encoding="utf-8" standalone="no"?>
<!DOCTYPE svg PUBLIC "-//W3C//DTD SVG 1.1//EN"
  "http://www.w3.org/Graphics/SVG/1.1/DTD/svg11.dtd">
<svg xmlns:xlink="http://www.w3.org/1999/xlink" width="216pt" height="216pt" viewBox="0 0 216 216" xmlns="http://www.w3.org/2000/svg" version="1.1">
 <metadata>
  <rdf:RDF xmlns:dc="http://purl.org/dc/elements/1.1/" xmlns:cc="http://creativecommons.org/ns#" xmlns:rdf="http://www.w3.org/1999/02/22-rdf-syntax-ns#">
   <cc:Work>
    <dc:type rdf:resource="http://purl.org/dc/dcmitype/StillImage"/>
    <dc:date>2024-02-10T16:24:52.867999</dc:date>
    <dc:format>image/svg+xml</dc:format>
    <dc:creator>
     <cc:Agent>
      <dc:title>Matplotlib v3.7.2, https://matplotlib.org/</dc:title>
     </cc:Agent>
    </dc:creator>
   </cc:Work>
  </rdf:RDF>
 </metadata>
 <defs>
  <style type="text/css">*{stroke-linejoin: round; stroke-linecap: butt}</style>
 </defs>
 <g id="figure_1">
  <g id="patch_1">
   <path d="M 0 216 
L 216 216 
L 216 0 
L 0 0 
z
" style="fill: #ffffff"/>
  </g>
  <g id="axes_1">
   <g id="patch_2">
    <path d="M 48.6275 170.43625 
L 201.619091 170.43625 
L 201.619091 29.16 
L 48.6275 29.16 
z
" style="fill: #eaeaf2"/>
   </g>
   <g id="matplotlib.axis_1">
    <g id="xtick_1">
     <g id="line2d_1">
      <path d="M 55.581663 170.43625 
L 55.581663 29.16 
" clip-path="url(#p8cbd6d3aac)" style="fill: none; stroke: #ffffff; stroke-linecap: round"/>
     </g>
     <g id="line2d_2"/>
     <g id="text_1">
      <!-- -1.0 -->
      <g transform="translate(45.940257 185.034688) scale(0.1 -0.1)">
       <defs>
        <path id="DejaVuSerif-2d" d="M 281 1959 
L 1881 1959 
L 1881 1472 
L 281 1472 
L 281 1959 
z
" transform="scale(0.015625)"/>
        <path id="DejaVuSerif-31" d="M 909 0 
L 909 331 
L 1722 331 
L 1722 4213 
L 781 3603 
L 781 4013 
L 1919 4750 
L 2350 4750 
L 2350 331 
L 3163 331 
L 3163 0 
L 909 0 
z
" transform="scale(0.015625)"/>
        <path id="DejaVuSerif-2e" d="M 603 325 
Q 603 500 722 622 
Q 841 744 1019 744 
Q 1191 744 1312 622 
Q 1434 500 1434 325 
Q 1434 153 1312 31 
Q 1191 -91 1019 -91 
Q 841 -91 722 29 
Q 603 150 603 325 
z
" transform="scale(0.015625)"/>
        <path id="DejaVuSerif-30" d="M 2034 219 
Q 2513 219 2750 744 
Q 2988 1269 2988 2328 
Q 2988 3391 2750 3916 
Q 2513 4441 2034 4441 
Q 1556 4441 1318 3916 
Q 1081 3391 1081 2328 
Q 1081 1269 1318 744 
Q 1556 219 2034 219 
z
M 2034 -91 
Q 1275 -91 848 546 
Q 422 1184 422 2328 
Q 422 3475 848 4112 
Q 1275 4750 2034 4750 
Q 2797 4750 3222 4112 
Q 3647 3475 3647 2328 
Q 3647 1184 3222 546 
Q 2797 -91 2034 -91 
z
" transform="scale(0.015625)"/>
       </defs>
       <use xlink:href="#DejaVuSerif-2d"/>
       <use xlink:href="#DejaVuSerif-31" x="33.789062"/>
       <use xlink:href="#DejaVuSerif-2e" x="97.412109"/>
       <use xlink:href="#DejaVuSerif-30" x="129.199219"/>
      </g>
     </g>
    </g>
    <g id="xtick_2">
     <g id="line2d_3">
      <path d="M 90.352479 170.43625 
L 90.352479 29.16 
" clip-path="url(#p8cbd6d3aac)" style="fill: none; stroke: #ffffff; stroke-linecap: round"/>
     </g>
     <g id="line2d_4"/>
     <g id="text_2">
      <!-- -0.5 -->
      <g transform="translate(80.711073 185.034688) scale(0.1 -0.1)">
       <defs>
        <path id="DejaVuSerif-35" d="M 3219 4666 
L 3219 4153 
L 1081 4153 
L 1081 2816 
Q 1244 2928 1461 2984 
Q 1678 3041 1947 3041 
Q 2703 3041 3140 2622 
Q 3578 2203 3578 1478 
Q 3578 738 3136 323 
Q 2694 -91 1894 -91 
Q 1572 -91 1234 -12 
Q 897 66 544 225 
L 544 1131 
L 897 1131 
Q 925 688 1179 453 
Q 1434 219 1894 219 
Q 2388 219 2653 544 
Q 2919 869 2919 1478 
Q 2919 2084 2655 2407 
Q 2391 2731 1894 2731 
Q 1613 2731 1398 2631 
Q 1184 2531 1019 2322 
L 750 2322 
L 750 4666 
L 3219 4666 
z
" transform="scale(0.015625)"/>
       </defs>
       <use xlink:href="#DejaVuSerif-2d"/>
       <use xlink:href="#DejaVuSerif-30" x="33.789062"/>
       <use xlink:href="#DejaVuSerif-2e" x="97.412109"/>
       <use xlink:href="#DejaVuSerif-35" x="129.199219"/>
      </g>
     </g>
    </g>
    <g id="xtick_3">
     <g id="line2d_5">
      <path d="M 125.123295 170.43625 
L 125.123295 29.16 
" clip-path="url(#p8cbd6d3aac)" style="fill: none; stroke: #ffffff; stroke-linecap: round"/>
     </g>
     <g id="line2d_6"/>
     <g id="text_3">
      <!-- 0.0 -->
      <g transform="translate(117.171733 185.034688) scale(0.1 -0.1)">
       <use xlink:href="#DejaVuSerif-30"/>
       <use xlink:href="#DejaVuSerif-2e" x="63.623047"/>
       <use xlink:href="#DejaVuSerif-30" x="95.410156"/>
      </g>
     </g>
    </g>
    <g id="xtick_4">
     <g id="line2d_7">
      <path d="M 159.894112 170.43625 
L 159.894112 29.16 
" clip-path="url(#p8cbd6d3aac)" style="fill: none; stroke: #ffffff; stroke-linecap: round"/>
     </g>
     <g id="line2d_8"/>
     <g id="text_4">
      <!-- 0.5 -->
      <g transform="translate(151.942549 185.034688) scale(0.1 -0.1)">
       <use xlink:href="#DejaVuSerif-30"/>
       <use xlink:href="#DejaVuSerif-2e" x="63.623047"/>
       <use xlink:href="#DejaVuSerif-35" x="95.410156"/>
      </g>
     </g>
    </g>
    <g id="xtick_5">
     <g id="line2d_9">
      <path d="M 194.664928 170.43625 
L 194.664928 29.16 
" clip-path="url(#p8cbd6d3aac)" style="fill: none; stroke: #ffffff; stroke-linecap: round"/>
     </g>
     <g id="line2d_10"/>
     <g id="text_5">
      <!-- 1.0 -->
      <g transform="translate(186.713365 185.034688) scale(0.1 -0.1)">
       <use xlink:href="#DejaVuSerif-31"/>
       <use xlink:href="#DejaVuSerif-2e" x="63.623047"/>
       <use xlink:href="#DejaVuSerif-30" x="95.410156"/>
      </g>
     </g>
    </g>
    <g id="text_6">
     <!-- Steering vector multiplier -->
     <g transform="translate(52.684858 199.472656) scale(0.11 -0.11)">
      <defs>
       <path id="DejaVuSerif-53" d="M 594 225 
L 594 1288 
L 953 1284 
Q 969 753 1261 498 
Q 1553 244 2150 244 
Q 2706 244 2998 464 
Q 3291 684 3291 1106 
Q 3291 1444 3114 1625 
Q 2938 1806 2369 1978 
L 1753 2163 
Q 1084 2366 811 2669 
Q 538 2972 538 3500 
Q 538 4094 959 4422 
Q 1381 4750 2144 4750 
Q 2469 4750 2856 4679 
Q 3244 4609 3681 4475 
L 3681 3481 
L 3328 3481 
Q 3275 3975 2998 4195 
Q 2722 4416 2156 4416 
Q 1663 4416 1405 4214 
Q 1147 4013 1147 3628 
Q 1147 3294 1340 3103 
Q 1534 2913 2163 2725 
L 2741 2553 
Q 3375 2363 3645 2067 
Q 3916 1772 3916 1275 
Q 3916 597 3481 253 
Q 3047 -91 2188 -91 
Q 1803 -91 1404 -12 
Q 1006 66 594 225 
z
" transform="scale(0.015625)"/>
       <path id="DejaVuSerif-74" d="M 691 2988 
L 184 2988 
L 184 3322 
L 691 3322 
L 691 4353 
L 1269 4353 
L 1269 3322 
L 2350 3322 
L 2350 2988 
L 1269 2988 
L 1269 878 
Q 1269 456 1350 337 
Q 1431 219 1650 219 
Q 1875 219 1978 351 
Q 2081 484 2088 781 
L 2522 781 
Q 2497 328 2275 118 
Q 2053 -91 1600 -91 
Q 1103 -91 897 129 
Q 691 350 691 878 
L 691 2988 
z
" transform="scale(0.015625)"/>
       <path id="DejaVuSerif-65" d="M 3469 1600 
L 991 1600 
L 991 1575 
Q 991 903 1244 561 
Q 1497 219 1991 219 
Q 2369 219 2611 417 
Q 2853 616 2950 1006 
L 3413 1006 
Q 3275 459 2904 184 
Q 2534 -91 1931 -91 
Q 1203 -91 761 389 
Q 319 869 319 1663 
Q 319 2450 753 2931 
Q 1188 3413 1894 3413 
Q 2647 3413 3050 2948 
Q 3453 2484 3469 1600 
z
M 2791 1931 
Q 2772 2513 2545 2808 
Q 2319 3103 1894 3103 
Q 1497 3103 1269 2806 
Q 1041 2509 991 1931 
L 2791 1931 
z
" transform="scale(0.015625)"/>
       <path id="DejaVuSerif-72" d="M 3059 3328 
L 3059 2497 
L 2728 2497 
Q 2713 2744 2591 2866 
Q 2469 2988 2234 2988 
Q 1809 2988 1582 2694 
Q 1356 2400 1356 1850 
L 1356 331 
L 2022 331 
L 2022 0 
L 263 0 
L 263 331 
L 781 331 
L 781 2994 
L 231 2994 
L 231 3322 
L 1356 3322 
L 1356 2731 
Q 1525 3078 1790 3245 
Q 2056 3413 2438 3413 
Q 2578 3413 2733 3391 
Q 2888 3369 3059 3328 
z
" transform="scale(0.015625)"/>
       <path id="DejaVuSerif-69" d="M 622 4353 
Q 622 4497 726 4603 
Q 831 4709 978 4709 
Q 1122 4709 1226 4603 
Q 1331 4497 1331 4353 
Q 1331 4206 1228 4103 
Q 1125 4000 978 4000 
Q 831 4000 726 4103 
Q 622 4206 622 4353 
z
M 1356 331 
L 1900 331 
L 1900 0 
L 231 0 
L 231 331 
L 781 331 
L 781 2988 
L 231 2988 
L 231 3322 
L 1356 3322 
L 1356 331 
z
" transform="scale(0.015625)"/>
       <path id="DejaVuSerif-6e" d="M 263 0 
L 263 331 
L 781 331 
L 781 2988 
L 231 2988 
L 231 3322 
L 1356 3322 
L 1356 2731 
Q 1516 3069 1770 3241 
Q 2025 3413 2363 3413 
Q 2913 3413 3172 3097 
Q 3431 2781 3431 2113 
L 3431 331 
L 3944 331 
L 3944 0 
L 2356 0 
L 2356 331 
L 2853 331 
L 2853 1931 
Q 2853 2541 2703 2767 
Q 2553 2994 2175 2994 
Q 1775 2994 1565 2701 
Q 1356 2409 1356 1850 
L 1356 331 
L 1856 331 
L 1856 0 
L 263 0 
z
" transform="scale(0.015625)"/>
       <path id="DejaVuSerif-67" d="M 3359 2988 
L 3359 72 
Q 3359 -644 2965 -1033 
Q 2572 -1422 1844 -1422 
Q 1516 -1422 1216 -1362 
Q 916 -1303 641 -1184 
L 641 -488 
L 941 -488 
Q 997 -813 1206 -963 
Q 1416 -1113 1806 -1113 
Q 2313 -1113 2548 -827 
Q 2784 -541 2784 72 
L 2784 519 
Q 2616 206 2355 57 
Q 2094 -91 1709 -91 
Q 1097 -91 708 395 
Q 319 881 319 1663 
Q 319 2444 706 2928 
Q 1094 3413 1709 3413 
Q 2094 3413 2355 3264 
Q 2616 3116 2784 2803 
L 2784 3322 
L 3909 3322 
L 3909 2988 
L 3359 2988 
z
M 2784 1825 
Q 2784 2422 2554 2737 
Q 2325 3053 1888 3053 
Q 1444 3053 1217 2703 
Q 991 2353 991 1663 
Q 991 975 1217 622 
Q 1444 269 1888 269 
Q 2325 269 2554 583 
Q 2784 897 2784 1497 
L 2784 1825 
z
" transform="scale(0.015625)"/>
       <path id="DejaVuSerif-20" transform="scale(0.015625)"/>
       <path id="DejaVuSerif-76" d="M 1581 0 
L 359 2988 
L -19 2988 
L -19 3322 
L 1509 3322 
L 1509 2988 
L 978 2988 
L 1913 703 
L 2847 2988 
L 2350 2988 
L 2350 3322 
L 3597 3322 
L 3597 2988 
L 3225 2988 
L 2003 0 
L 1581 0 
z
" transform="scale(0.015625)"/>
       <path id="DejaVuSerif-63" d="M 3291 997 
Q 3169 466 2822 187 
Q 2475 -91 1925 -91 
Q 1200 -91 759 389 
Q 319 869 319 1663 
Q 319 2459 759 2936 
Q 1200 3413 1925 3413 
Q 2241 3413 2553 3339 
Q 2866 3266 3181 3116 
L 3181 2266 
L 2847 2266 
Q 2781 2703 2561 2903 
Q 2341 3103 1931 3103 
Q 1466 3103 1228 2742 
Q 991 2381 991 1663 
Q 991 944 1227 581 
Q 1463 219 1931 219 
Q 2303 219 2525 412 
Q 2747 606 2828 997 
L 3291 997 
z
" transform="scale(0.015625)"/>
       <path id="DejaVuSerif-6f" d="M 1925 219 
Q 2388 219 2623 584 
Q 2859 950 2859 1663 
Q 2859 2375 2623 2739 
Q 2388 3103 1925 3103 
Q 1463 3103 1227 2739 
Q 991 2375 991 1663 
Q 991 950 1228 584 
Q 1466 219 1925 219 
z
M 1925 -91 
Q 1200 -91 759 389 
Q 319 869 319 1663 
Q 319 2456 758 2934 
Q 1197 3413 1925 3413 
Q 2653 3413 3092 2934 
Q 3531 2456 3531 1663 
Q 3531 869 3092 389 
Q 2653 -91 1925 -91 
z
" transform="scale(0.015625)"/>
       <path id="DejaVuSerif-6d" d="M 3316 2675 
Q 3481 3041 3739 3227 
Q 3997 3413 4341 3413 
Q 4863 3413 5119 3089 
Q 5375 2766 5375 2113 
L 5375 331 
L 5894 331 
L 5894 0 
L 4300 0 
L 4300 331 
L 4800 331 
L 4800 2047 
Q 4800 2556 4650 2772 
Q 4500 2988 4153 2988 
Q 3769 2988 3567 2697 
Q 3366 2406 3366 1850 
L 3366 331 
L 3866 331 
L 3866 0 
L 2291 0 
L 2291 331 
L 2791 331 
L 2791 2069 
Q 2791 2566 2641 2777 
Q 2491 2988 2144 2988 
Q 1759 2988 1557 2697 
Q 1356 2406 1356 1850 
L 1356 331 
L 1856 331 
L 1856 0 
L 263 0 
L 263 331 
L 781 331 
L 781 2994 
L 231 2994 
L 231 3322 
L 1356 3322 
L 1356 2731 
Q 1516 3063 1762 3238 
Q 2009 3413 2322 3413 
Q 2709 3413 2968 3220 
Q 3228 3028 3316 2675 
z
" transform="scale(0.015625)"/>
       <path id="DejaVuSerif-75" d="M 2266 3322 
L 3341 3322 
L 3341 331 
L 3884 331 
L 3884 0 
L 2766 0 
L 2766 588 
Q 2606 256 2353 82 
Q 2100 -91 1766 -91 
Q 1213 -91 952 223 
Q 691 538 691 1209 
L 691 2988 
L 172 2988 
L 172 3322 
L 1269 3322 
L 1269 1388 
Q 1269 781 1417 556 
Q 1566 331 1947 331 
Q 2347 331 2556 625 
Q 2766 919 2766 1478 
L 2766 2988 
L 2266 2988 
L 2266 3322 
z
" transform="scale(0.015625)"/>
       <path id="DejaVuSerif-6c" d="M 1313 331 
L 1856 331 
L 1856 0 
L 184 0 
L 184 331 
L 738 331 
L 738 4531 
L 184 4531 
L 184 4863 
L 1313 4863 
L 1313 331 
z
" transform="scale(0.015625)"/>
       <path id="DejaVuSerif-70" d="M 1313 1825 
L 1313 1497 
Q 1313 897 1542 583 
Q 1772 269 2209 269 
Q 2650 269 2876 622 
Q 3103 975 3103 1663 
Q 3103 2353 2876 2703 
Q 2650 3053 2209 3053 
Q 1772 3053 1542 2737 
Q 1313 2422 1313 1825 
z
M 738 2988 
L 184 2988 
L 184 3322 
L 1313 3322 
L 1313 2803 
Q 1481 3116 1742 3264 
Q 2003 3413 2388 3413 
Q 3000 3413 3387 2928 
Q 3775 2444 3775 1663 
Q 3775 881 3387 395 
Q 3000 -91 2388 -91 
Q 2003 -91 1742 57 
Q 1481 206 1313 519 
L 1313 -997 
L 1856 -997 
L 1856 -1331 
L 184 -1331 
L 184 -997 
L 738 -997 
L 738 2988 
z
" transform="scale(0.015625)"/>
      </defs>
      <use xlink:href="#DejaVuSerif-53"/>
      <use xlink:href="#DejaVuSerif-74" x="68.505859"/>
      <use xlink:href="#DejaVuSerif-65" x="108.691406"/>
      <use xlink:href="#DejaVuSerif-65" x="167.871094"/>
      <use xlink:href="#DejaVuSerif-72" x="227.050781"/>
      <use xlink:href="#DejaVuSerif-69" x="274.853516"/>
      <use xlink:href="#DejaVuSerif-6e" x="306.835938"/>
      <use xlink:href="#DejaVuSerif-67" x="371.240234"/>
      <use xlink:href="#DejaVuSerif-20" x="435.253906"/>
      <use xlink:href="#DejaVuSerif-76" x="467.041016"/>
      <use xlink:href="#DejaVuSerif-65" x="523.535156"/>
      <use xlink:href="#DejaVuSerif-63" x="582.714844"/>
      <use xlink:href="#DejaVuSerif-74" x="638.720703"/>
      <use xlink:href="#DejaVuSerif-6f" x="678.90625"/>
      <use xlink:href="#DejaVuSerif-72" x="739.111328"/>
      <use xlink:href="#DejaVuSerif-20" x="786.914062"/>
      <use xlink:href="#DejaVuSerif-6d" x="818.701172"/>
      <use xlink:href="#DejaVuSerif-75" x="913.525391"/>
      <use xlink:href="#DejaVuSerif-6c" x="977.929688"/>
      <use xlink:href="#DejaVuSerif-74" x="1009.912109"/>
      <use xlink:href="#DejaVuSerif-69" x="1050.097656"/>
      <use xlink:href="#DejaVuSerif-70" x="1082.080078"/>
      <use xlink:href="#DejaVuSerif-6c" x="1146.09375"/>
      <use xlink:href="#DejaVuSerif-69" x="1178.076172"/>
      <use xlink:href="#DejaVuSerif-65" x="1210.058594"/>
      <use xlink:href="#DejaVuSerif-72" x="1269.238281"/>
     </g>
    </g>
   </g>
   <g id="matplotlib.axis_2">
    <g id="ytick_1">
     <g id="line2d_11">
      <path d="M 48.6275 155.683414 
L 201.619091 155.683414 
" clip-path="url(#p8cbd6d3aac)" style="fill: none; stroke: #ffffff; stroke-linecap: round"/>
     </g>
     <g id="line2d_12"/>
     <g id="text_7">
      <!-- 20 -->
      <g transform="translate(28.9025 159.482633) scale(0.1 -0.1)">
       <defs>
        <path id="DejaVuSerif-32" d="M 819 3553 
L 469 3553 
L 469 4384 
Q 803 4563 1142 4656 
Q 1481 4750 1806 4750 
Q 2534 4750 2956 4397 
Q 3378 4044 3378 3438 
Q 3378 2753 2422 1800 
Q 2347 1728 2309 1691 
L 1131 513 
L 3078 513 
L 3078 1088 
L 3444 1088 
L 3444 0 
L 434 0 
L 434 341 
L 1850 1753 
Q 2319 2222 2519 2614 
Q 2719 3006 2719 3438 
Q 2719 3909 2473 4175 
Q 2228 4441 1797 4441 
Q 1350 4441 1106 4219 
Q 863 3997 819 3553 
z
" transform="scale(0.015625)"/>
       </defs>
       <use xlink:href="#DejaVuSerif-32"/>
       <use xlink:href="#DejaVuSerif-30" x="63.623047"/>
      </g>
     </g>
    </g>
    <g id="ytick_2">
     <g id="line2d_13">
      <path d="M 48.6275 121.899597 
L 201.619091 121.899597 
" clip-path="url(#p8cbd6d3aac)" style="fill: none; stroke: #ffffff; stroke-linecap: round"/>
     </g>
     <g id="line2d_14"/>
     <g id="text_8">
      <!-- 40 -->
      <g transform="translate(28.9025 125.698816) scale(0.1 -0.1)">
       <defs>
        <path id="DejaVuSerif-34" d="M 2234 1581 
L 2234 4063 
L 641 1581 
L 2234 1581 
z
M 3609 0 
L 1484 0 
L 1484 331 
L 2234 331 
L 2234 1247 
L 197 1247 
L 197 1588 
L 2241 4750 
L 2859 4750 
L 2859 1581 
L 3750 1581 
L 3750 1247 
L 2859 1247 
L 2859 331 
L 3609 331 
L 3609 0 
z
" transform="scale(0.015625)"/>
       </defs>
       <use xlink:href="#DejaVuSerif-34"/>
       <use xlink:href="#DejaVuSerif-30" x="63.623047"/>
      </g>
     </g>
    </g>
    <g id="ytick_3">
     <g id="line2d_15">
      <path d="M 48.6275 88.11578 
L 201.619091 88.11578 
" clip-path="url(#p8cbd6d3aac)" style="fill: none; stroke: #ffffff; stroke-linecap: round"/>
     </g>
     <g id="line2d_16"/>
     <g id="text_9">
      <!-- 60 -->
      <g transform="translate(28.9025 91.914998) scale(0.1 -0.1)">
       <defs>
        <path id="DejaVuSerif-36" d="M 2094 219 
Q 2534 219 2771 542 
Q 3009 866 3009 1472 
Q 3009 2078 2771 2401 
Q 2534 2725 2094 2725 
Q 1647 2725 1412 2412 
Q 1178 2100 1178 1509 
Q 1178 888 1415 553 
Q 1653 219 2094 219 
z
M 1075 2569 
Q 1288 2803 1556 2918 
Q 1825 3034 2163 3034 
Q 2859 3034 3264 2615 
Q 3669 2197 3669 1472 
Q 3669 763 3233 336 
Q 2797 -91 2069 -91 
Q 1278 -91 853 498 
Q 428 1088 428 2181 
Q 428 3406 931 4078 
Q 1434 4750 2350 4750 
Q 2597 4750 2869 4703 
Q 3141 4656 3425 4563 
L 3425 3794 
L 3072 3794 
Q 3034 4109 2831 4275 
Q 2628 4441 2284 4441 
Q 1678 4441 1381 3981 
Q 1084 3522 1075 2569 
z
" transform="scale(0.015625)"/>
       </defs>
       <use xlink:href="#DejaVuSerif-36"/>
       <use xlink:href="#DejaVuSerif-30" x="63.623047"/>
      </g>
     </g>
    </g>
    <g id="ytick_4">
     <g id="line2d_17">
      <path d="M 48.6275 54.331962 
L 201.619091 54.331962 
" clip-path="url(#p8cbd6d3aac)" style="fill: none; stroke: #ffffff; stroke-linecap: round"/>
     </g>
     <g id="line2d_18"/>
     <g id="text_10">
      <!-- 80 -->
      <g transform="translate(28.9025 58.131181) scale(0.1 -0.1)">
       <defs>
        <path id="DejaVuSerif-38" d="M 2981 1275 
Q 2981 1775 2732 2051 
Q 2484 2328 2034 2328 
Q 1584 2328 1336 2051 
Q 1088 1775 1088 1275 
Q 1088 772 1336 495 
Q 1584 219 2034 219 
Q 2484 219 2732 495 
Q 2981 772 2981 1275 
z
M 2853 3541 
Q 2853 3966 2637 4203 
Q 2422 4441 2034 4441 
Q 1650 4441 1433 4203 
Q 1216 3966 1216 3541 
Q 1216 3113 1433 2875 
Q 1650 2638 2034 2638 
Q 2422 2638 2637 2875 
Q 2853 3113 2853 3541 
z
M 2516 2484 
Q 3047 2413 3344 2092 
Q 3641 1772 3641 1275 
Q 3641 619 3225 264 
Q 2809 -91 2034 -91 
Q 1263 -91 845 264 
Q 428 619 428 1275 
Q 428 1772 725 2092 
Q 1022 2413 1556 2484 
Q 1084 2569 832 2842 
Q 581 3116 581 3541 
Q 581 4103 968 4426 
Q 1356 4750 2034 4750 
Q 2713 4750 3100 4426 
Q 3488 4103 3488 3541 
Q 3488 3116 3236 2842 
Q 2984 2569 2516 2484 
z
" transform="scale(0.015625)"/>
       </defs>
       <use xlink:href="#DejaVuSerif-38"/>
       <use xlink:href="#DejaVuSerif-30" x="63.623047"/>
      </g>
     </g>
    </g>
    <g id="text_11">
     <!-- p(answer matching behavior) -->
     <g transform="translate(22.458437 181.896797) rotate(-90) scale(0.11 -0.11)">
      <defs>
       <path id="DejaVuSerif-28" d="M 2041 -997 
Q 1281 -656 893 83 
Q 506 822 506 1931 
Q 506 3044 893 3783 
Q 1281 4522 2041 4863 
L 2041 4556 
Q 1559 4225 1350 3623 
Q 1141 3022 1141 1931 
Q 1141 844 1350 242 
Q 1559 -359 2041 -691 
L 2041 -997 
z
" transform="scale(0.015625)"/>
       <path id="DejaVuSerif-61" d="M 2547 1044 
L 2547 1747 
L 1806 1747 
Q 1378 1747 1168 1562 
Q 959 1378 959 997 
Q 959 650 1171 447 
Q 1384 244 1747 244 
Q 2106 244 2326 466 
Q 2547 688 2547 1044 
z
M 3122 2075 
L 3122 331 
L 3634 331 
L 3634 0 
L 2547 0 
L 2547 359 
Q 2356 128 2106 18 
Q 1856 -91 1522 -91 
Q 969 -91 644 203 
Q 319 497 319 997 
Q 319 1513 691 1797 
Q 1063 2081 1741 2081 
L 2547 2081 
L 2547 2309 
Q 2547 2688 2317 2895 
Q 2088 3103 1672 3103 
Q 1328 3103 1125 2947 
Q 922 2791 872 2484 
L 575 2484 
L 575 3156 
Q 875 3284 1158 3348 
Q 1441 3413 1709 3413 
Q 2400 3413 2761 3070 
Q 3122 2728 3122 2075 
z
" transform="scale(0.015625)"/>
       <path id="DejaVuSerif-73" d="M 359 184 
L 359 959 
L 691 959 
Q 703 588 923 403 
Q 1144 219 1575 219 
Q 1963 219 2166 364 
Q 2369 509 2369 788 
Q 2369 1006 2220 1140 
Q 2072 1275 1594 1428 
L 1178 1569 
Q 750 1706 558 1912 
Q 366 2119 366 2438 
Q 366 2894 700 3153 
Q 1034 3413 1625 3413 
Q 1888 3413 2178 3344 
Q 2469 3275 2778 3144 
L 2778 2419 
L 2447 2419 
Q 2434 2741 2221 2922 
Q 2009 3103 1644 3103 
Q 1281 3103 1095 2975 
Q 909 2847 909 2591 
Q 909 2381 1050 2254 
Q 1191 2128 1613 1997 
L 2069 1856 
Q 2541 1709 2748 1489 
Q 2956 1269 2956 922 
Q 2956 450 2595 179 
Q 2234 -91 1600 -91 
Q 1278 -91 972 -22 
Q 666 47 359 184 
z
" transform="scale(0.015625)"/>
       <path id="DejaVuSerif-77" d="M 3072 3322 
L 3922 728 
L 4672 2988 
L 4191 2988 
L 4191 3322 
L 5394 3322 
L 5394 2988 
L 5025 2988 
L 4038 0 
L 3559 0 
L 2741 2484 
L 1919 0 
L 1459 0 
L 475 2988 
L 103 2988 
L 103 3322 
L 1606 3322 
L 1606 2988 
L 1069 2988 
L 1813 728 
L 2669 3322 
L 3072 3322 
z
" transform="scale(0.015625)"/>
       <path id="DejaVuSerif-68" d="M 263 0 
L 263 331 
L 781 331 
L 781 4531 
L 231 4531 
L 231 4863 
L 1356 4863 
L 1356 2731 
Q 1516 3069 1770 3241 
Q 2025 3413 2363 3413 
Q 2913 3413 3172 3097 
Q 3431 2781 3431 2113 
L 3431 331 
L 3944 331 
L 3944 0 
L 2356 0 
L 2356 331 
L 2853 331 
L 2853 1931 
Q 2853 2541 2704 2764 
Q 2556 2988 2175 2988 
Q 1775 2988 1565 2697 
Q 1356 2406 1356 1850 
L 1356 331 
L 1856 331 
L 1856 0 
L 263 0 
z
" transform="scale(0.015625)"/>
       <path id="DejaVuSerif-62" d="M 738 331 
L 738 4531 
L 184 4531 
L 184 4863 
L 1313 4863 
L 1313 2803 
Q 1481 3116 1742 3264 
Q 2003 3413 2388 3413 
Q 3000 3413 3387 2928 
Q 3775 2444 3775 1663 
Q 3775 881 3387 395 
Q 3000 -91 2388 -91 
Q 2003 -91 1742 57 
Q 1481 206 1313 519 
L 1313 0 
L 184 0 
L 184 331 
L 738 331 
z
M 1313 1497 
Q 1313 897 1542 583 
Q 1772 269 2209 269 
Q 2650 269 2876 622 
Q 3103 975 3103 1663 
Q 3103 2353 2876 2703 
Q 2650 3053 2209 3053 
Q 1772 3053 1542 2737 
Q 1313 2422 1313 1825 
L 1313 1497 
z
" transform="scale(0.015625)"/>
       <path id="DejaVuSerif-29" d="M 453 -997 
L 453 -691 
Q 934 -359 1145 242 
Q 1356 844 1356 1931 
Q 1356 3022 1145 3623 
Q 934 4225 453 4556 
L 453 4863 
Q 1216 4522 1603 3783 
Q 1991 3044 1991 1931 
Q 1991 822 1603 83 
Q 1216 -656 453 -997 
z
" transform="scale(0.015625)"/>
      </defs>
      <use xlink:href="#DejaVuSerif-70"/>
      <use xlink:href="#DejaVuSerif-28" x="64.013672"/>
      <use xlink:href="#DejaVuSerif-61" x="103.027344"/>
      <use xlink:href="#DejaVuSerif-6e" x="162.646484"/>
      <use xlink:href="#DejaVuSerif-73" x="227.050781"/>
      <use xlink:href="#DejaVuSerif-77" x="278.369141"/>
      <use xlink:href="#DejaVuSerif-65" x="363.964844"/>
      <use xlink:href="#DejaVuSerif-72" x="423.144531"/>
      <use xlink:href="#DejaVuSerif-20" x="470.947266"/>
      <use xlink:href="#DejaVuSerif-6d" x="502.734375"/>
      <use xlink:href="#DejaVuSerif-61" x="597.558594"/>
      <use xlink:href="#DejaVuSerif-74" x="657.177734"/>
      <use xlink:href="#DejaVuSerif-63" x="697.363281"/>
      <use xlink:href="#DejaVuSerif-68" x="753.369141"/>
      <use xlink:href="#DejaVuSerif-69" x="817.773438"/>
      <use xlink:href="#DejaVuSerif-6e" x="849.755859"/>
      <use xlink:href="#DejaVuSerif-67" x="914.160156"/>
      <use xlink:href="#DejaVuSerif-20" x="978.173828"/>
      <use xlink:href="#DejaVuSerif-62" x="1009.960938"/>
      <use xlink:href="#DejaVuSerif-65" x="1073.974609"/>
      <use xlink:href="#DejaVuSerif-68" x="1133.154297"/>
      <use xlink:href="#DejaVuSerif-61" x="1197.558594"/>
      <use xlink:href="#DejaVuSerif-76" x="1257.177734"/>
      <use xlink:href="#DejaVuSerif-69" x="1313.671875"/>
      <use xlink:href="#DejaVuSerif-6f" x="1345.654297"/>
      <use xlink:href="#DejaVuSerif-72" x="1405.859375"/>
      <use xlink:href="#DejaVuSerif-29" x="1453.662109"/>
     </g>
    </g>
   </g>
   <g id="line2d_19">
    <path d="M 55.581663 164.014602 
L 90.352479 159.39139 
L 125.123295 138.760109 
L 159.894112 92.026436 
L 194.664928 62.310992 
" clip-path="url(#p8cbd6d3aac)" style="fill: none; stroke: #377eb8; stroke-width: 3; stroke-linecap: round"/>
    <defs>
     <path id="m771eb59516" d="M 0 5 
C 1.326016 5 2.597899 4.473168 3.535534 3.535534 
C 4.473168 2.597899 5 1.326016 5 0 
C 5 -1.326016 4.473168 -2.597899 3.535534 -3.535534 
C 2.597899 -4.473168 1.326016 -5 0 -5 
C -1.326016 -5 -2.597899 -4.473168 -3.535534 -3.535534 
C -4.473168 -2.597899 -5 -1.326016 -5 0 
C -5 1.326016 -4.473168 2.597899 -3.535534 3.535534 
C -2.597899 4.473168 -1.326016 5 0 5 
z
"/>
    </defs>
    <g clip-path="url(#p8cbd6d3aac)">
     <use xlink:href="#m771eb59516" x="55.581663" y="164.014602" style="fill: #377eb8"/>
     <use xlink:href="#m771eb59516" x="90.352479" y="159.39139" style="fill: #377eb8"/>
     <use xlink:href="#m771eb59516" x="125.123295" y="138.760109" style="fill: #377eb8"/>
     <use xlink:href="#m771eb59516" x="159.894112" y="92.026436" style="fill: #377eb8"/>
     <use xlink:href="#m771eb59516" x="194.664928" y="62.310992" style="fill: #377eb8"/>
    </g>
   </g>
   <g id="line2d_20">
    <path d="M 55.581663 156.238755 
L 90.352479 137.79183 
L 125.123295 81.766393 
L 159.894112 46.567036 
L 194.664928 35.581648 
" clip-path="url(#p8cbd6d3aac)" style="fill: none; stroke: #ff7f00; stroke-width: 3; stroke-linecap: round"/>
    <defs>
     <path id="me7b4a68f3f" d="M 0 5 
C 1.326016 5 2.597899 4.473168 3.535534 3.535534 
C 4.473168 2.597899 5 1.326016 5 0 
C 5 -1.326016 4.473168 -2.597899 3.535534 -3.535534 
C 2.597899 -4.473168 1.326016 -5 0 -5 
C -1.326016 -5 -2.597899 -4.473168 -3.535534 -3.535534 
C -4.473168 -2.597899 -5 -1.326016 -5 0 
C -5 1.326016 -4.473168 2.597899 -3.535534 3.535534 
C -2.597899 4.473168 -1.326016 5 0 5 
z
"/>
    </defs>
    <g clip-path="url(#p8cbd6d3aac)">
     <use xlink:href="#me7b4a68f3f" x="55.581663" y="156.238755" style="fill: #ff7f00"/>
     <use xlink:href="#me7b4a68f3f" x="90.352479" y="137.79183" style="fill: #ff7f00"/>
     <use xlink:href="#me7b4a68f3f" x="125.123295" y="81.766393" style="fill: #ff7f00"/>
     <use xlink:href="#me7b4a68f3f" x="159.894112" y="46.567036" style="fill: #ff7f00"/>
     <use xlink:href="#me7b4a68f3f" x="194.664928" y="35.581648" style="fill: #ff7f00"/>
    </g>
   </g>
   <g id="line2d_21">
    <path d="M 55.581663 123.525185 
L 90.352479 76.301924 
L 125.123295 52.106313 
L 159.894112 45.54941 
L 194.664928 37.675821 
" clip-path="url(#p8cbd6d3aac)" style="fill: none; stroke: #4daf4a; stroke-width: 3; stroke-linecap: round"/>
    <defs>
     <path id="m3f4515935b" d="M 0 5 
C 1.326016 5 2.597899 4.473168 3.535534 3.535534 
C 4.473168 2.597899 5 1.326016 5 0 
C 5 -1.326016 4.473168 -2.597899 3.535534 -3.535534 
C 2.597899 -4.473168 1.326016 -5 0 -5 
C -1.326016 -5 -2.597899 -4.473168 -3.535534 -3.535534 
C -4.473168 -2.597899 -5 -1.326016 -5 0 
C -5 1.326016 -4.473168 2.597899 -3.535534 3.535534 
C -2.597899 4.473168 -1.326016 5 0 5 
z
"/>
    </defs>
    <g clip-path="url(#p8cbd6d3aac)">
     <use xlink:href="#m3f4515935b" x="55.581663" y="123.525185" style="fill: #4daf4a"/>
     <use xlink:href="#m3f4515935b" x="90.352479" y="76.301924" style="fill: #4daf4a"/>
     <use xlink:href="#m3f4515935b" x="125.123295" y="52.106313" style="fill: #4daf4a"/>
     <use xlink:href="#m3f4515935b" x="159.894112" y="45.54941" style="fill: #4daf4a"/>
     <use xlink:href="#m3f4515935b" x="194.664928" y="37.675821" style="fill: #4daf4a"/>
    </g>
   </g>
   <g id="line2d_22">
    <path d="M 55.581663 121.908061 
L 90.352479 106.58364 
L 125.123295 63.147697 
L 159.894112 50.049267 
L 194.664928 66.073087 
" clip-path="url(#p8cbd6d3aac)" style="fill: none; stroke: #f781bf; stroke-width: 3; stroke-linecap: round"/>
    <defs>
     <path id="mf5f8cd450b" d="M 0 5 
C 1.326016 5 2.597899 4.473168 3.535534 3.535534 
C 4.473168 2.597899 5 1.326016 5 0 
C 5 -1.326016 4.473168 -2.597899 3.535534 -3.535534 
C 2.597899 -4.473168 1.326016 -5 0 -5 
C -1.326016 -5 -2.597899 -4.473168 -3.535534 -3.535534 
C -4.473168 -2.597899 -5 -1.326016 -5 0 
C -5 1.326016 -4.473168 2.597899 -3.535534 3.535534 
C -2.597899 4.473168 -1.326016 5 0 5 
z
"/>
    </defs>
    <g clip-path="url(#p8cbd6d3aac)">
     <use xlink:href="#mf5f8cd450b" x="55.581663" y="121.908061" style="fill: #f781bf"/>
     <use xlink:href="#mf5f8cd450b" x="90.352479" y="106.58364" style="fill: #f781bf"/>
     <use xlink:href="#mf5f8cd450b" x="125.123295" y="63.147697" style="fill: #f781bf"/>
     <use xlink:href="#mf5f8cd450b" x="159.894112" y="50.049267" style="fill: #f781bf"/>
     <use xlink:href="#mf5f8cd450b" x="194.664928" y="66.073087" style="fill: #f781bf"/>
    </g>
   </g>
   <g id="line2d_23">
    <path d="M 55.581663 143.173117 
L 90.352479 152.557964 
L 125.123295 132.307604 
L 159.894112 94.497357 
L 194.664928 84.547623 
" clip-path="url(#p8cbd6d3aac)" style="fill: none; stroke: #a65628; stroke-width: 3; stroke-linecap: round"/>
    <defs>
     <path id="mbd05227191" d="M 0 5 
C 1.326016 5 2.597899 4.473168 3.535534 3.535534 
C 4.473168 2.597899 5 1.326016 5 0 
C 5 -1.326016 4.473168 -2.597899 3.535534 -3.535534 
C 2.597899 -4.473168 1.326016 -5 0 -5 
C -1.326016 -5 -2.597899 -4.473168 -3.535534 -3.535534 
C -4.473168 -2.597899 -5 -1.326016 -5 0 
C -5 1.326016 -4.473168 2.597899 -3.535534 3.535534 
C -2.597899 4.473168 -1.326016 5 0 5 
z
"/>
    </defs>
    <g clip-path="url(#p8cbd6d3aac)">
     <use xlink:href="#mbd05227191" x="55.581663" y="143.173117" style="fill: #a65628"/>
     <use xlink:href="#mbd05227191" x="90.352479" y="152.557964" style="fill: #a65628"/>
     <use xlink:href="#mbd05227191" x="125.123295" y="132.307604" style="fill: #a65628"/>
     <use xlink:href="#mbd05227191" x="159.894112" y="94.497357" style="fill: #a65628"/>
     <use xlink:href="#mbd05227191" x="194.664928" y="84.547623" style="fill: #a65628"/>
    </g>
   </g>
   <g id="line2d_24">
    <path d="M 55.581663 98.550911 
L 90.352479 84.983457 
L 125.123295 72.081177 
L 159.894112 71.695153 
L 194.664928 84.810145 
" clip-path="url(#p8cbd6d3aac)" style="fill: none; stroke: #984ea3; stroke-width: 3; stroke-linecap: round"/>
    <defs>
     <path id="m87a7b29079" d="M 0 5 
C 1.326016 5 2.597899 4.473168 3.535534 3.535534 
C 4.473168 2.597899 5 1.326016 5 0 
C 5 -1.326016 4.473168 -2.597899 3.535534 -3.535534 
C 2.597899 -4.473168 1.326016 -5 0 -5 
C -1.326016 -5 -2.597899 -4.473168 -3.535534 -3.535534 
C -4.473168 -2.597899 -5 -1.326016 -5 0 
C -5 1.326016 -4.473168 2.597899 -3.535534 3.535534 
C -2.597899 4.473168 -1.326016 5 0 5 
z
"/>
    </defs>
    <g clip-path="url(#p8cbd6d3aac)">
     <use xlink:href="#m87a7b29079" x="55.581663" y="98.550911" style="fill: #984ea3"/>
     <use xlink:href="#m87a7b29079" x="90.352479" y="84.983457" style="fill: #984ea3"/>
     <use xlink:href="#m87a7b29079" x="125.123295" y="72.081177" style="fill: #984ea3"/>
     <use xlink:href="#m87a7b29079" x="159.894112" y="71.695153" style="fill: #984ea3"/>
     <use xlink:href="#m87a7b29079" x="194.664928" y="84.810145" style="fill: #984ea3"/>
    </g>
   </g>
   <g id="line2d_25">
    <path d="M 55.581663 117.956272 
L 90.352479 92.604425 
L 125.123295 63.835644 
L 159.894112 47.203967 
L 194.664928 39.580273 
" clip-path="url(#p8cbd6d3aac)" style="fill: none; stroke: #999999; stroke-width: 3; stroke-linecap: round"/>
    <defs>
     <path id="m8ca1a4fa59" d="M 0 5 
C 1.326016 5 2.597899 4.473168 3.535534 3.535534 
C 4.473168 2.597899 5 1.326016 5 0 
C 5 -1.326016 4.473168 -2.597899 3.535534 -3.535534 
C 2.597899 -4.473168 1.326016 -5 0 -5 
C -1.326016 -5 -2.597899 -4.473168 -3.535534 -3.535534 
C -4.473168 -2.597899 -5 -1.326016 -5 0 
C -5 1.326016 -4.473168 2.597899 -3.535534 3.535534 
C -2.597899 4.473168 -1.326016 5 0 5 
z
"/>
    </defs>
    <g clip-path="url(#p8cbd6d3aac)">
     <use xlink:href="#m8ca1a4fa59" x="55.581663" y="117.956272" style="fill: #999999"/>
     <use xlink:href="#m8ca1a4fa59" x="90.352479" y="92.604425" style="fill: #999999"/>
     <use xlink:href="#m8ca1a4fa59" x="125.123295" y="63.835644" style="fill: #999999"/>
     <use xlink:href="#m8ca1a4fa59" x="159.894112" y="47.203967" style="fill: #999999"/>
     <use xlink:href="#m8ca1a4fa59" x="194.664928" y="39.580273" style="fill: #999999"/>
    </g>
   </g>
   <g id="patch_3">
    <path d="M 48.6275 170.43625 
L 48.6275 29.16 
" style="fill: none"/>
   </g>
   <g id="patch_4">
    <path d="M 201.619091 170.43625 
L 201.619091 29.16 
" style="fill: none"/>
   </g>
   <g id="patch_5">
    <path d="M 48.6275 170.43625 
L 201.619091 170.43625 
" style="fill: none"/>
   </g>
   <g id="patch_6">
    <path d="M 48.6275 29.16 
L 201.619091 29.16 
" style="fill: none"/>
   </g>
   <g id="text_12">
    <!-- Layer 13 - Llama 2 7B Chat -->
    <g style="fill: #262626" transform="translate(41.412045 23.16) scale(0.12 -0.12)">
     <defs>
      <path id="DejaVuSerif-4c" d="M 353 0 
L 353 331 
L 947 331 
L 947 4331 
L 353 4331 
L 353 4666 
L 2175 4666 
L 2175 4331 
L 1581 4331 
L 1581 384 
L 3713 384 
L 3713 1166 
L 4097 1166 
L 4097 0 
L 353 0 
z
" transform="scale(0.015625)"/>
      <path id="DejaVuSerif-79" d="M 1381 -609 
L 1600 -56 
L 359 2988 
L -19 2988 
L -19 3322 
L 1509 3322 
L 1509 2988 
L 978 2988 
L 1913 703 
L 2847 2988 
L 2350 2988 
L 2350 3322 
L 3597 3322 
L 3597 2988 
L 3225 2988 
L 1703 -750 
Q 1547 -1138 1356 -1280 
Q 1166 -1422 819 -1422 
Q 672 -1422 517 -1397 
Q 363 -1372 206 -1325 
L 206 -691 
L 500 -691 
Q 519 -903 608 -995 
Q 697 -1088 884 -1088 
Q 1056 -1088 1161 -992 
Q 1266 -897 1381 -609 
z
" transform="scale(0.015625)"/>
      <path id="DejaVuSerif-33" d="M 622 4469 
Q 988 4606 1323 4678 
Q 1659 4750 1953 4750 
Q 2638 4750 3022 4454 
Q 3406 4159 3406 3634 
Q 3406 3213 3140 2930 
Q 2875 2647 2388 2547 
Q 2963 2466 3280 2130 
Q 3597 1794 3597 1259 
Q 3597 606 3158 257 
Q 2719 -91 1894 -91 
Q 1528 -91 1179 -12 
Q 831 66 488 225 
L 488 1131 
L 838 1131 
Q 869 681 1141 450 
Q 1413 219 1906 219 
Q 2384 219 2661 495 
Q 2938 772 2938 1253 
Q 2938 1803 2653 2086 
Q 2369 2369 1819 2369 
L 1522 2369 
L 1522 2688 
L 1678 2688 
Q 2225 2688 2498 2914 
Q 2772 3141 2772 3597 
Q 2772 4006 2547 4223 
Q 2322 4441 1900 4441 
Q 1478 4441 1245 4241 
Q 1013 4041 972 3647 
L 622 3647 
L 622 4469 
z
" transform="scale(0.015625)"/>
      <path id="DejaVuSerif-37" d="M 3609 4347 
L 1784 0 
L 1319 0 
L 3059 4153 
L 903 4153 
L 903 3578 
L 538 3578 
L 538 4666 
L 3609 4666 
L 3609 4347 
z
" transform="scale(0.015625)"/>
      <path id="DejaVuSerif-42" d="M 1581 331 
L 2516 331 
Q 3078 331 3337 575 
Q 3597 819 3597 1350 
Q 3597 1878 3339 2120 
Q 3081 2363 2516 2363 
L 1581 2363 
L 1581 331 
z
M 1581 2694 
L 2375 2694 
Q 2888 2694 3123 2891 
Q 3359 3088 3359 3513 
Q 3359 3941 3123 4136 
Q 2888 4331 2375 4331 
L 1581 4331 
L 1581 2694 
z
M 353 0 
L 353 331 
L 947 331 
L 947 4331 
L 353 4331 
L 353 4666 
L 2656 4666 
Q 3363 4666 3720 4377 
Q 4078 4088 4078 3513 
Q 4078 3097 3829 2850 
Q 3581 2603 3103 2547 
Q 3697 2472 4005 2167 
Q 4313 1863 4313 1350 
Q 4313 656 3875 328 
Q 3438 0 2509 0 
L 353 0 
z
" transform="scale(0.015625)"/>
      <path id="DejaVuSerif-43" d="M 4513 1234 
Q 4306 581 3820 245 
Q 3334 -91 2591 -91 
Q 2134 -91 1743 65 
Q 1353 222 1050 525 
Q 700 875 529 1320 
Q 359 1766 359 2328 
Q 359 3416 987 4083 
Q 1616 4750 2644 4750 
Q 3025 4750 3456 4650 
Q 3888 4550 4384 4347 
L 4384 3272 
L 4031 3272 
Q 3916 3859 3567 4137 
Q 3219 4416 2591 4416 
Q 1844 4416 1459 3886 
Q 1075 3356 1075 2328 
Q 1075 1303 1459 773 
Q 1844 244 2591 244 
Q 3113 244 3450 492 
Q 3788 741 3938 1234 
L 4513 1234 
z
" transform="scale(0.015625)"/>
     </defs>
     <use xlink:href="#DejaVuSerif-4c"/>
     <use xlink:href="#DejaVuSerif-61" x="66.40625"/>
     <use xlink:href="#DejaVuSerif-79" x="126.025391"/>
     <use xlink:href="#DejaVuSerif-65" x="182.519531"/>
     <use xlink:href="#DejaVuSerif-72" x="241.699219"/>
     <use xlink:href="#DejaVuSerif-20" x="289.501953"/>
     <use xlink:href="#DejaVuSerif-31" x="321.289062"/>
     <use xlink:href="#DejaVuSerif-33" x="384.912109"/>
     <use xlink:href="#DejaVuSerif-20" x="448.535156"/>
     <use xlink:href="#DejaVuSerif-2d" x="480.322266"/>
     <use xlink:href="#DejaVuSerif-20" x="514.111328"/>
     <use xlink:href="#DejaVuSerif-4c" x="545.898438"/>
     <use xlink:href="#DejaVuSerif-6c" x="612.304688"/>
     <use xlink:href="#DejaVuSerif-61" x="644.287109"/>
     <use xlink:href="#DejaVuSerif-6d" x="703.90625"/>
     <use xlink:href="#DejaVuSerif-61" x="798.730469"/>
     <use xlink:href="#DejaVuSerif-20" x="858.349609"/>
     <use xlink:href="#DejaVuSerif-32" x="890.136719"/>
     <use xlink:href="#DejaVuSerif-20" x="953.759766"/>
     <use xlink:href="#DejaVuSerif-37" x="985.546875"/>
     <use xlink:href="#DejaVuSerif-42" x="1049.169922"/>
     <use xlink:href="#DejaVuSerif-20" x="1122.65625"/>
     <use xlink:href="#DejaVuSerif-43" x="1154.443359"/>
     <use xlink:href="#DejaVuSerif-68" x="1230.957031"/>
     <use xlink:href="#DejaVuSerif-61" x="1295.361328"/>
     <use xlink:href="#DejaVuSerif-74" x="1354.980469"/>
    </g>
   </g>
   <g id="legend_1">
    <g id="line2d_26">
     <path d="M 69.27017 67.36125 
L 79.27017 67.36125 
L 89.27017 67.36125 
" style="fill: none; stroke: #377eb8; stroke-width: 3; stroke-linecap: round"/>
     <g>
      <use xlink:href="#m771eb59516" x="79.27017" y="67.36125" style="fill: #377eb8"/>
     </g>
    </g>
    <g id="text_13">
     <!-- AI Coordination -->
     <g style="fill: #262626" transform="translate(97.27017 70.86125) scale(0.1 -0.1)">
      <defs>
       <path id="DejaVuSerif-41" d="M 1281 1691 
L 2994 1691 
L 2138 3909 
L 1281 1691 
z
M -38 0 
L -38 331 
L 372 331 
L 2034 4666 
L 2559 4666 
L 4225 331 
L 4684 331 
L 4684 0 
L 2988 0 
L 2988 331 
L 3506 331 
L 3116 1356 
L 1153 1356 
L 763 331 
L 1275 331 
L 1275 0 
L -38 0 
z
" transform="scale(0.015625)"/>
       <path id="DejaVuSerif-49" d="M 1581 331 
L 2175 331 
L 2175 0 
L 353 0 
L 353 331 
L 947 331 
L 947 4331 
L 353 4331 
L 353 4666 
L 2175 4666 
L 2175 4331 
L 1581 4331 
L 1581 331 
z
" transform="scale(0.015625)"/>
       <path id="DejaVuSerif-64" d="M 3359 331 
L 3909 331 
L 3909 0 
L 2784 0 
L 2784 519 
Q 2616 206 2355 57 
Q 2094 -91 1709 -91 
Q 1097 -91 708 395 
Q 319 881 319 1663 
Q 319 2444 706 2928 
Q 1094 3413 1709 3413 
Q 2094 3413 2355 3264 
Q 2616 3116 2784 2803 
L 2784 4531 
L 2241 4531 
L 2241 4863 
L 3359 4863 
L 3359 331 
z
M 2784 1497 
L 2784 1825 
Q 2784 2422 2554 2737 
Q 2325 3053 1888 3053 
Q 1444 3053 1217 2703 
Q 991 2353 991 1663 
Q 991 975 1217 622 
Q 1444 269 1888 269 
Q 2325 269 2554 583 
Q 2784 897 2784 1497 
z
" transform="scale(0.015625)"/>
      </defs>
      <use xlink:href="#DejaVuSerif-41"/>
      <use xlink:href="#DejaVuSerif-49" x="72.216797"/>
      <use xlink:href="#DejaVuSerif-20" x="111.71875"/>
      <use xlink:href="#DejaVuSerif-43" x="143.505859"/>
      <use xlink:href="#DejaVuSerif-6f" x="220.019531"/>
      <use xlink:href="#DejaVuSerif-6f" x="280.224609"/>
      <use xlink:href="#DejaVuSerif-72" x="340.429688"/>
      <use xlink:href="#DejaVuSerif-64" x="388.232422"/>
      <use xlink:href="#DejaVuSerif-69" x="452.246094"/>
      <use xlink:href="#DejaVuSerif-6e" x="484.228516"/>
      <use xlink:href="#DejaVuSerif-61" x="548.632812"/>
      <use xlink:href="#DejaVuSerif-74" x="608.251953"/>
      <use xlink:href="#DejaVuSerif-69" x="648.4375"/>
      <use xlink:href="#DejaVuSerif-6f" x="680.419922"/>
      <use xlink:href="#DejaVuSerif-6e" x="740.625"/>
     </g>
    </g>
    <g id="line2d_27">
     <path d="M 69.27017 82.039375 
L 79.27017 82.039375 
L 89.27017 82.039375 
" style="fill: none; stroke: #ff7f00; stroke-width: 3; stroke-linecap: round"/>
     <g>
      <use xlink:href="#me7b4a68f3f" x="79.27017" y="82.039375" style="fill: #ff7f00"/>
     </g>
    </g>
    <g id="text_14">
     <!-- Corrigibility -->
     <g style="fill: #262626" transform="translate(97.27017 85.539375) scale(0.1 -0.1)">
      <use xlink:href="#DejaVuSerif-43"/>
      <use xlink:href="#DejaVuSerif-6f" x="76.513672"/>
      <use xlink:href="#DejaVuSerif-72" x="136.71875"/>
      <use xlink:href="#DejaVuSerif-72" x="184.521484"/>
      <use xlink:href="#DejaVuSerif-69" x="232.324219"/>
      <use xlink:href="#DejaVuSerif-67" x="264.306641"/>
      <use xlink:href="#DejaVuSerif-69" x="328.320312"/>
      <use xlink:href="#DejaVuSerif-62" x="360.302734"/>
      <use xlink:href="#DejaVuSerif-69" x="424.316406"/>
      <use xlink:href="#DejaVuSerif-6c" x="456.298828"/>
      <use xlink:href="#DejaVuSerif-69" x="488.28125"/>
      <use xlink:href="#DejaVuSerif-74" x="520.263672"/>
      <use xlink:href="#DejaVuSerif-79" x="560.449219"/>
     </g>
    </g>
    <g id="line2d_28">
     <path d="M 69.27017 96.859687 
L 79.27017 96.859687 
L 89.27017 96.859687 
" style="fill: none; stroke: #4daf4a; stroke-width: 3; stroke-linecap: round"/>
     <g>
      <use xlink:href="#m3f4515935b" x="79.27017" y="96.859687" style="fill: #4daf4a"/>
     </g>
    </g>
    <g id="text_15">
     <!-- Hallucination -->
     <g style="fill: #262626" transform="translate(97.27017 100.359687) scale(0.1 -0.1)">
      <defs>
       <path id="DejaVuSerif-48" d="M 353 0 
L 353 331 
L 947 331 
L 947 4331 
L 353 4331 
L 353 4666 
L 2175 4666 
L 2175 4331 
L 1581 4331 
L 1581 2719 
L 4000 2719 
L 4000 4331 
L 3406 4331 
L 3406 4666 
L 5228 4666 
L 5228 4331 
L 4634 4331 
L 4634 331 
L 5228 331 
L 5228 0 
L 3406 0 
L 3406 331 
L 4000 331 
L 4000 2338 
L 1581 2338 
L 1581 331 
L 2175 331 
L 2175 0 
L 353 0 
z
" transform="scale(0.015625)"/>
      </defs>
      <use xlink:href="#DejaVuSerif-48"/>
      <use xlink:href="#DejaVuSerif-61" x="87.207031"/>
      <use xlink:href="#DejaVuSerif-6c" x="146.826172"/>
      <use xlink:href="#DejaVuSerif-6c" x="178.808594"/>
      <use xlink:href="#DejaVuSerif-75" x="210.791016"/>
      <use xlink:href="#DejaVuSerif-63" x="275.195312"/>
      <use xlink:href="#DejaVuSerif-69" x="331.201172"/>
      <use xlink:href="#DejaVuSerif-6e" x="363.183594"/>
      <use xlink:href="#DejaVuSerif-61" x="427.587891"/>
      <use xlink:href="#DejaVuSerif-74" x="487.207031"/>
      <use xlink:href="#DejaVuSerif-69" x="527.392578"/>
      <use xlink:href="#DejaVuSerif-6f" x="559.375"/>
      <use xlink:href="#DejaVuSerif-6e" x="619.580078"/>
     </g>
    </g>
    <g id="line2d_29">
     <path d="M 69.27017 111.537812 
L 79.27017 111.537812 
L 89.27017 111.537812 
" style="fill: none; stroke: #f781bf; stroke-width: 3; stroke-linecap: round"/>
     <g>
      <use xlink:href="#mf5f8cd450b" x="79.27017" y="111.537812" style="fill: #f781bf"/>
     </g>
    </g>
    <g id="text_16">
     <!-- Myopic Reward -->
     <g style="fill: #262626" transform="translate(97.27017 115.037812) scale(0.1 -0.1)">
      <defs>
       <path id="DejaVuSerif-4d" d="M 353 0 
L 353 331 
L 947 331 
L 947 4331 
L 319 4331 
L 319 4666 
L 1678 4666 
L 3316 1344 
L 4953 4666 
L 6228 4666 
L 6228 4331 
L 5606 4331 
L 5606 331 
L 6203 331 
L 6203 0 
L 4378 0 
L 4378 331 
L 4972 331 
L 4972 3938 
L 3372 684 
L 2931 684 
L 1331 3938 
L 1331 331 
L 1925 331 
L 1925 0 
L 353 0 
z
" transform="scale(0.015625)"/>
       <path id="DejaVuSerif-52" d="M 3066 2316 
Q 3284 2256 3442 2114 
Q 3600 1972 3725 1716 
L 4403 331 
L 4972 331 
L 4972 0 
L 3872 0 
L 3144 1484 
Q 2934 1916 2759 2042 
Q 2584 2169 2278 2169 
L 1581 2169 
L 1581 331 
L 2241 331 
L 2241 0 
L 353 0 
L 353 331 
L 947 331 
L 947 4331 
L 353 4331 
L 353 4666 
L 2719 4666 
Q 3400 4666 3770 4341 
Q 4141 4016 4141 3419 
Q 4141 2938 3870 2661 
Q 3600 2384 3066 2316 
z
M 1581 2503 
L 2503 2503 
Q 2975 2503 3200 2726 
Q 3425 2950 3425 3419 
Q 3425 3888 3200 4109 
Q 2975 4331 2503 4331 
L 1581 4331 
L 1581 2503 
z
" transform="scale(0.015625)"/>
      </defs>
      <use xlink:href="#DejaVuSerif-4d"/>
      <use xlink:href="#DejaVuSerif-79" x="102.392578"/>
      <use xlink:href="#DejaVuSerif-6f" x="158.886719"/>
      <use xlink:href="#DejaVuSerif-70" x="219.091797"/>
      <use xlink:href="#DejaVuSerif-69" x="283.105469"/>
      <use xlink:href="#DejaVuSerif-63" x="315.087891"/>
      <use xlink:href="#DejaVuSerif-20" x="371.09375"/>
      <use xlink:href="#DejaVuSerif-52" x="402.880859"/>
      <use xlink:href="#DejaVuSerif-65" x="478.173828"/>
      <use xlink:href="#DejaVuSerif-77" x="537.353516"/>
      <use xlink:href="#DejaVuSerif-61" x="622.949219"/>
      <use xlink:href="#DejaVuSerif-72" x="682.568359"/>
      <use xlink:href="#DejaVuSerif-64" x="730.371094"/>
     </g>
    </g>
    <g id="line2d_30">
     <path d="M 69.27017 126.358125 
L 79.27017 126.358125 
L 89.27017 126.358125 
" style="fill: none; stroke: #a65628; stroke-width: 3; stroke-linecap: round"/>
     <g>
      <use xlink:href="#mbd05227191" x="79.27017" y="126.358125" style="fill: #a65628"/>
     </g>
    </g>
    <g id="text_17">
     <!-- Survival Instinct -->
     <g style="fill: #262626" transform="translate(97.27017 129.858125) scale(0.1 -0.1)">
      <use xlink:href="#DejaVuSerif-53"/>
      <use xlink:href="#DejaVuSerif-75" x="68.505859"/>
      <use xlink:href="#DejaVuSerif-72" x="132.910156"/>
      <use xlink:href="#DejaVuSerif-76" x="180.712891"/>
      <use xlink:href="#DejaVuSerif-69" x="237.207031"/>
      <use xlink:href="#DejaVuSerif-76" x="269.189453"/>
      <use xlink:href="#DejaVuSerif-61" x="325.683594"/>
      <use xlink:href="#DejaVuSerif-6c" x="385.302734"/>
      <use xlink:href="#DejaVuSerif-20" x="417.285156"/>
      <use xlink:href="#DejaVuSerif-49" x="449.072266"/>
      <use xlink:href="#DejaVuSerif-6e" x="488.574219"/>
      <use xlink:href="#DejaVuSerif-73" x="552.978516"/>
      <use xlink:href="#DejaVuSerif-74" x="604.296875"/>
      <use xlink:href="#DejaVuSerif-69" x="644.482422"/>
      <use xlink:href="#DejaVuSerif-6e" x="676.464844"/>
      <use xlink:href="#DejaVuSerif-63" x="740.869141"/>
      <use xlink:href="#DejaVuSerif-74" x="796.875"/>
     </g>
    </g>
    <g id="line2d_31">
     <path d="M 69.27017 141.03625 
L 79.27017 141.03625 
L 89.27017 141.03625 
" style="fill: none; stroke: #984ea3; stroke-width: 3; stroke-linecap: round"/>
     <g>
      <use xlink:href="#m87a7b29079" x="79.27017" y="141.03625" style="fill: #984ea3"/>
     </g>
    </g>
    <g id="text_18">
     <!-- Sycophancy -->
     <g style="fill: #262626" transform="translate(97.27017 144.53625) scale(0.1 -0.1)">
      <use xlink:href="#DejaVuSerif-53"/>
      <use xlink:href="#DejaVuSerif-79" x="68.505859"/>
      <use xlink:href="#DejaVuSerif-63" x="125"/>
      <use xlink:href="#DejaVuSerif-6f" x="181.005859"/>
      <use xlink:href="#DejaVuSerif-70" x="241.210938"/>
      <use xlink:href="#DejaVuSerif-68" x="305.224609"/>
      <use xlink:href="#DejaVuSerif-61" x="369.628906"/>
      <use xlink:href="#DejaVuSerif-6e" x="429.248047"/>
      <use xlink:href="#DejaVuSerif-63" x="493.652344"/>
      <use xlink:href="#DejaVuSerif-79" x="549.658203"/>
     </g>
    </g>
    <g id="line2d_32">
     <path d="M 69.27017 155.856562 
L 79.27017 155.856562 
L 89.27017 155.856562 
" style="fill: none; stroke: #999999; stroke-width: 3; stroke-linecap: round"/>
     <g>
      <use xlink:href="#m8ca1a4fa59" x="79.27017" y="155.856562" style="fill: #999999"/>
     </g>
    </g>
    <g id="text_19">
     <!-- Refusal -->
     <g style="fill: #262626" transform="translate(97.27017 159.356562) scale(0.1 -0.1)">
      <defs>
       <path id="DejaVuSerif-66" d="M 2753 4078 
L 2450 4078 
Q 2447 4313 2317 4434 
Q 2188 4556 1941 4556 
Q 1619 4556 1487 4379 
Q 1356 4203 1356 3750 
L 1356 3322 
L 2284 3322 
L 2284 2988 
L 1356 2988 
L 1356 331 
L 2094 331 
L 2094 0 
L 231 0 
L 231 331 
L 781 331 
L 781 2988 
L 231 2988 
L 231 3322 
L 781 3322 
L 781 3738 
Q 781 4294 1070 4578 
Q 1359 4863 1919 4863 
Q 2128 4863 2337 4825 
Q 2547 4788 2753 4709 
L 2753 4078 
z
" transform="scale(0.015625)"/>
      </defs>
      <use xlink:href="#DejaVuSerif-52"/>
      <use xlink:href="#DejaVuSerif-65" x="75.292969"/>
      <use xlink:href="#DejaVuSerif-66" x="134.472656"/>
      <use xlink:href="#DejaVuSerif-75" x="171.484375"/>
      <use xlink:href="#DejaVuSerif-73" x="235.888672"/>
      <use xlink:href="#DejaVuSerif-61" x="287.207031"/>
      <use xlink:href="#DejaVuSerif-6c" x="346.826172"/>
     </g>
    </g>
   </g>
  </g>
 </g>
 <defs>
  <clipPath id="p8cbd6d3aac">
   <rect x="48.6275" y="29.16" width="152.991591" height="141.27625"/>
  </clipPath>
 </defs>
</svg>
