<?xml version="1.0" encoding="utf-8" standalone="no"?>
<!DOCTYPE svg PUBLIC "-//W3C//DTD SVG 1.1//EN"
  "http://www.w3.org/Graphics/SVG/1.1/DTD/svg11.dtd">
<svg xmlns:xlink="http://www.w3.org/1999/xlink" width="360pt" height="432pt" viewBox="0 0 360 432" xmlns="http://www.w3.org/2000/svg" version="1.1">
 <metadata>
  <rdf:RDF xmlns:dc="http://purl.org/dc/elements/1.1/" xmlns:cc="http://creativecommons.org/ns#" xmlns:rdf="http://www.w3.org/1999/02/22-rdf-syntax-ns#">
   <cc:Work>
    <dc:type rdf:resource="http://purl.org/dc/dcmitype/StillImage"/>
    <dc:date>2023-10-28T17:27:35.919157</dc:date>
    <dc:format>image/svg+xml</dc:format>
    <dc:creator>
     <cc:Agent>
      <dc:title>Matplotlib v3.7.3, https://matplotlib.org/</dc:title>
     </cc:Agent>
    </dc:creator>
   </cc:Work>
  </rdf:RDF>
 </metadata>
 <defs>
  <style type="text/css">*{stroke-linejoin: round; stroke-linecap: butt}</style>
 </defs>
 <g id="figure_1">
  <g id="patch_1">
   <path d="M 0 432 
L 360 432 
L 360 0 
L 0 0 
z
" style="fill: #ffffff"/>
  </g>
  <g id="axes_1">
   <g id="patch_2">
    <path d="M 39.94 404.12 
L 349.2 404.12 
L 349.2 10.8 
L 39.94 10.8 
z
" style="fill: #ffffff"/>
   </g>
   <g id="PathCollection_1">
    <defs>
     <path id="m56175da36a" d="M 0 5 
C 1.326016 5 2.597899 4.473168 3.535534 3.535534 
C 4.473168 2.597899 5 1.326016 5 0 
C 5 -1.326016 4.473168 -2.597899 3.535534 -3.535534 
C 2.597899 -4.473168 1.326016 -5 0 -5 
C -1.326016 -5 -2.597899 -4.473168 -3.535534 -3.535534 
C -4.473168 -2.597899 -5 -1.326016 -5 0 
C -5 1.326016 -4.473168 2.597899 -3.535534 3.535534 
C -2.597899 4.473168 -1.326016 5 0 5 
z
" style="stroke: #8000ff"/>
    </defs>
    <g clip-path="url(#p54f7580048)">
     <use xlink:href="#m56175da36a" x="53.997273" y="386.241818" style="fill: #8000ff; stroke: #8000ff"/>
    </g>
   </g>
   <g id="PathCollection_2">
    <defs>
     <path id="md5436f6f83" d="M 0 5 
C 1.326016 5 2.597899 4.473168 3.535534 3.535534 
C 4.473168 2.597899 5 1.326016 5 0 
C 5 -1.326016 4.473168 -2.597899 3.535534 -3.535534 
C 2.597899 -4.473168 1.326016 -5 0 -5 
C -1.326016 -5 -2.597899 -4.473168 -3.535534 -3.535534 
C -4.473168 -2.597899 -5 -1.326016 -5 0 
C -5 1.326016 -4.473168 2.597899 -3.535534 3.535534 
C -2.597899 4.473168 -1.326016 5 0 5 
z
" style="stroke: #2c7ef7"/>
    </defs>
    <g clip-path="url(#p54f7580048)">
     <use xlink:href="#md5436f6f83" x="53.997273" y="280.019996" style="fill: #2c7ef7; stroke: #2c7ef7"/>
    </g>
   </g>
   <g id="PathCollection_3">
    <defs>
     <path id="m1e41161230" d="M 0 5 
C 1.326016 5 2.597899 4.473168 3.535534 3.535534 
C 4.473168 2.597899 5 1.326016 5 0 
C 5 -1.326016 4.473168 -2.597899 3.535534 -3.535534 
C 2.597899 -4.473168 1.326016 -5 0 -5 
C -1.326016 -5 -2.597899 -4.473168 -3.535534 -3.535534 
C -4.473168 -2.597899 -5 -1.326016 -5 0 
C -5 1.326016 -4.473168 2.597899 -3.535534 3.535534 
C -2.597899 4.473168 -1.326016 5 0 5 
z
" style="stroke: #2adddd"/>
    </defs>
    <g clip-path="url(#p54f7580048)">
     <use xlink:href="#m1e41161230" x="53.997273" y="154.048407" style="fill: #2adddd; stroke: #2adddd"/>
    </g>
   </g>
   <g id="PathCollection_4">
    <defs>
     <path id="m8276227187" d="M 0 5 
C 1.326016 5 2.597899 4.473168 3.535534 3.535534 
C 4.473168 2.597899 5 1.326016 5 0 
C 5 -1.326016 4.473168 -2.597899 3.535534 -3.535534 
C 2.597899 -4.473168 1.326016 -5 0 -5 
C -1.326016 -5 -2.597899 -4.473168 -3.535534 -3.535534 
C -4.473168 -2.597899 -5 -1.326016 -5 0 
C -5 1.326016 -4.473168 2.597899 -3.535534 3.535534 
C -2.597899 4.473168 -1.326016 5 0 5 
z
" style="stroke: #80ffb4"/>
    </defs>
    <g clip-path="url(#p54f7580048)">
     <use xlink:href="#m8276227187" x="53.997273" y="37.50744" style="fill: #80ffb4; stroke: #80ffb4"/>
    </g>
   </g>
   <g id="PathCollection_5">
    <defs>
     <path id="ma2d0d74823" d="M 0 5 
C 1.326016 5 2.597899 4.473168 3.535534 3.535534 
C 4.473168 2.597899 5 1.326016 5 0 
C 5 -1.326016 4.473168 -2.597899 3.535534 -3.535534 
C 2.597899 -4.473168 1.326016 -5 0 -5 
C -1.326016 -5 -2.597899 -4.473168 -3.535534 -3.535534 
C -4.473168 -2.597899 -5 -1.326016 -5 0 
C -5 1.326016 -4.473168 2.597899 -3.535534 3.535534 
C -2.597899 4.473168 -1.326016 5 0 5 
z
" style="stroke: #d4dd80"/>
    </defs>
    <g clip-path="url(#p54f7580048)">
     <use xlink:href="#ma2d0d74823" x="53.997273" y="30.639342" style="fill: #d4dd80; stroke: #d4dd80"/>
    </g>
   </g>
   <g id="PathCollection_6">
    <defs>
     <path id="me0be093834" d="M 0 5 
C 1.326016 5 2.597899 4.473168 3.535534 3.535534 
C 4.473168 2.597899 5 1.326016 5 0 
C 5 -1.326016 4.473168 -2.597899 3.535534 -3.535534 
C 2.597899 -4.473168 1.326016 -5 0 -5 
C -1.326016 -5 -2.597899 -4.473168 -3.535534 -3.535534 
C -4.473168 -2.597899 -5 -1.326016 -5 0 
C -5 1.326016 -4.473168 2.597899 -3.535534 3.535534 
C -2.597899 4.473168 -1.326016 5 0 5 
z
" style="stroke: #ff7e41"/>
    </defs>
    <g clip-path="url(#p54f7580048)">
     <use xlink:href="#me0be093834" x="53.997273" y="63.3112" style="fill: #ff7e41; stroke: #ff7e41"/>
    </g>
   </g>
   <g id="PathCollection_7">
    <defs>
     <path id="m78dacb70dd" d="M 0 5 
C 1.326016 5 2.597899 4.473168 3.535534 3.535534 
C 4.473168 2.597899 5 1.326016 5 0 
C 5 -1.326016 4.473168 -2.597899 3.535534 -3.535534 
C 2.597899 -4.473168 1.326016 -5 0 -5 
C -1.326016 -5 -2.597899 -4.473168 -3.535534 -3.535534 
C -4.473168 -2.597899 -5 -1.326016 -5 0 
C -5 1.326016 -4.473168 2.597899 -3.535534 3.535534 
C -2.597899 4.473168 -1.326016 5 0 5 
z
" style="stroke: #ff0000"/>
    </defs>
    <g clip-path="url(#p54f7580048)">
     <use xlink:href="#m78dacb70dd" x="53.997273" y="78.973283" style="fill: #ff0000; stroke: #ff0000"/>
    </g>
   </g>
   <g id="PathCollection_8">
    <g clip-path="url(#p54f7580048)">
     <use xlink:href="#m56175da36a" x="85.235657" y="221.322358" style="fill: #8000ff; stroke: #8000ff"/>
    </g>
   </g>
   <g id="PathCollection_9">
    <g clip-path="url(#p54f7580048)">
     <use xlink:href="#md5436f6f83" x="85.235657" y="170.794897" style="fill: #2c7ef7; stroke: #2c7ef7"/>
    </g>
   </g>
   <g id="PathCollection_10">
    <g clip-path="url(#p54f7580048)">
     <use xlink:href="#m1e41161230" x="85.235657" y="96.923043" style="fill: #2adddd; stroke: #2adddd"/>
    </g>
   </g>
   <g id="PathCollection_11">
    <g clip-path="url(#p54f7580048)">
     <use xlink:href="#m8276227187" x="85.235657" y="37.50744" style="fill: #80ffb4; stroke: #80ffb4"/>
    </g>
   </g>
   <g id="PathCollection_12">
    <g clip-path="url(#p54f7580048)">
     <use xlink:href="#ma2d0d74823" x="85.235657" y="30.918114" style="fill: #d4dd80; stroke: #d4dd80"/>
    </g>
   </g>
   <g id="PathCollection_13">
    <g clip-path="url(#p54f7580048)">
     <use xlink:href="#me0be093834" x="85.235657" y="37.493142" style="fill: #ff7e41; stroke: #ff7e41"/>
    </g>
   </g>
   <g id="PathCollection_14">
    <g clip-path="url(#p54f7580048)">
     <use xlink:href="#m78dacb70dd" x="85.235657" y="44.044015" style="fill: #ff0000; stroke: #ff0000"/>
    </g>
   </g>
   <g id="PathCollection_15">
    <g clip-path="url(#p54f7580048)">
     <use xlink:href="#m56175da36a" x="116.47404" y="156.955191" style="fill: #8000ff; stroke: #8000ff"/>
    </g>
   </g>
   <g id="PathCollection_16">
    <g clip-path="url(#p54f7580048)">
     <use xlink:href="#md5436f6f83" x="116.47404" y="118.012306" style="fill: #2c7ef7; stroke: #2c7ef7"/>
    </g>
   </g>
   <g id="PathCollection_17">
    <g clip-path="url(#p54f7580048)">
     <use xlink:href="#m1e41161230" x="116.47404" y="70.870251" style="fill: #2adddd; stroke: #2adddd"/>
    </g>
   </g>
   <g id="PathCollection_18">
    <g clip-path="url(#p54f7580048)">
     <use xlink:href="#m8276227187" x="116.47404" y="37.50744" style="fill: #80ffb4; stroke: #80ffb4"/>
    </g>
   </g>
   <g id="PathCollection_19">
    <g clip-path="url(#p54f7580048)">
     <use xlink:href="#ma2d0d74823" x="116.47404" y="37.059231" style="fill: #d4dd80; stroke: #d4dd80"/>
    </g>
   </g>
   <g id="PathCollection_20">
    <g clip-path="url(#p54f7580048)">
     <use xlink:href="#me0be093834" x="116.47404" y="63.22918" style="fill: #ff7e41; stroke: #ff7e41"/>
    </g>
   </g>
   <g id="PathCollection_21">
    <g clip-path="url(#p54f7580048)">
     <use xlink:href="#m78dacb70dd" x="116.47404" y="114.523514" style="fill: #ff0000; stroke: #ff0000"/>
    </g>
   </g>
   <g id="PathCollection_22">
    <g clip-path="url(#p54f7580048)">
     <use xlink:href="#m56175da36a" x="147.712424" y="106.812528" style="fill: #8000ff; stroke: #8000ff"/>
    </g>
   </g>
   <g id="PathCollection_23">
    <g clip-path="url(#p54f7580048)">
     <use xlink:href="#md5436f6f83" x="147.712424" y="80.544244" style="fill: #2c7ef7; stroke: #2c7ef7"/>
    </g>
   </g>
   <g id="PathCollection_24">
    <g clip-path="url(#p54f7580048)">
     <use xlink:href="#m1e41161230" x="147.712424" y="56.008891" style="fill: #2adddd; stroke: #2adddd"/>
    </g>
   </g>
   <g id="PathCollection_25">
    <g clip-path="url(#p54f7580048)">
     <use xlink:href="#m8276227187" x="147.712424" y="37.50744" style="fill: #80ffb4; stroke: #80ffb4"/>
    </g>
   </g>
   <g id="PathCollection_26">
    <g clip-path="url(#p54f7580048)">
     <use xlink:href="#ma2d0d74823" x="147.712424" y="31.99032" style="fill: #d4dd80; stroke: #d4dd80"/>
    </g>
   </g>
   <g id="PathCollection_27">
    <g clip-path="url(#p54f7580048)">
     <use xlink:href="#me0be093834" x="147.712424" y="40.627274" style="fill: #ff7e41; stroke: #ff7e41"/>
    </g>
   </g>
   <g id="PathCollection_28">
    <g clip-path="url(#p54f7580048)">
     <use xlink:href="#m78dacb70dd" x="147.712424" y="60.873917" style="fill: #ff0000; stroke: #ff0000"/>
    </g>
   </g>
   <g id="PathCollection_29">
    <g clip-path="url(#p54f7580048)">
     <use xlink:href="#m56175da36a" x="178.950808" y="101.391277" style="fill: #8000ff; stroke: #8000ff"/>
    </g>
   </g>
   <g id="PathCollection_30">
    <g clip-path="url(#p54f7580048)">
     <use xlink:href="#md5436f6f83" x="178.950808" y="77.428219" style="fill: #2c7ef7; stroke: #2c7ef7"/>
    </g>
   </g>
   <g id="PathCollection_31">
    <g clip-path="url(#p54f7580048)">
     <use xlink:href="#m1e41161230" x="178.950808" y="55.936047" style="fill: #2adddd; stroke: #2adddd"/>
    </g>
   </g>
   <g id="PathCollection_32">
    <g clip-path="url(#p54f7580048)">
     <use xlink:href="#m8276227187" x="178.950808" y="37.50744" style="fill: #80ffb4; stroke: #80ffb4"/>
    </g>
   </g>
   <g id="PathCollection_33">
    <g clip-path="url(#p54f7580048)">
     <use xlink:href="#ma2d0d74823" x="178.950808" y="29.768783" style="fill: #d4dd80; stroke: #d4dd80"/>
    </g>
   </g>
   <g id="PathCollection_34">
    <g clip-path="url(#p54f7580048)">
     <use xlink:href="#me0be093834" x="178.950808" y="38.421085" style="fill: #ff7e41; stroke: #ff7e41"/>
    </g>
   </g>
   <g id="PathCollection_35">
    <g clip-path="url(#p54f7580048)">
     <use xlink:href="#m78dacb70dd" x="178.950808" y="61.841343" style="fill: #ff0000; stroke: #ff0000"/>
    </g>
   </g>
   <g id="PathCollection_36">
    <g clip-path="url(#p54f7580048)">
     <use xlink:href="#m56175da36a" x="210.189192" y="59.798579" style="fill: #8000ff; stroke: #8000ff"/>
    </g>
   </g>
   <g id="PathCollection_37">
    <g clip-path="url(#p54f7580048)">
     <use xlink:href="#md5436f6f83" x="210.189192" y="51.861437" style="fill: #2c7ef7; stroke: #2c7ef7"/>
    </g>
   </g>
   <g id="PathCollection_38">
    <g clip-path="url(#p54f7580048)">
     <use xlink:href="#m1e41161230" x="210.189192" y="44.176632" style="fill: #2adddd; stroke: #2adddd"/>
    </g>
   </g>
   <g id="PathCollection_39">
    <g clip-path="url(#p54f7580048)">
     <use xlink:href="#m8276227187" x="210.189192" y="37.50744" style="fill: #80ffb4; stroke: #80ffb4"/>
    </g>
   </g>
   <g id="PathCollection_40">
    <g clip-path="url(#p54f7580048)">
     <use xlink:href="#ma2d0d74823" x="210.189192" y="32.569606" style="fill: #d4dd80; stroke: #d4dd80"/>
    </g>
   </g>
   <g id="PathCollection_41">
    <g clip-path="url(#p54f7580048)">
     <use xlink:href="#me0be093834" x="210.189192" y="29.97452" style="fill: #ff7e41; stroke: #ff7e41"/>
    </g>
   </g>
   <g id="PathCollection_42">
    <g clip-path="url(#p54f7580048)">
     <use xlink:href="#m78dacb70dd" x="210.189192" y="29.509433" style="fill: #ff0000; stroke: #ff0000"/>
    </g>
   </g>
   <g id="PathCollection_43">
    <g clip-path="url(#p54f7580048)">
     <use xlink:href="#m56175da36a" x="241.427576" y="51.584894" style="fill: #8000ff; stroke: #8000ff"/>
    </g>
   </g>
   <g id="PathCollection_44">
    <g clip-path="url(#p54f7580048)">
     <use xlink:href="#md5436f6f83" x="241.427576" y="47.360937" style="fill: #2c7ef7; stroke: #2c7ef7"/>
    </g>
   </g>
   <g id="PathCollection_45">
    <g clip-path="url(#p54f7580048)">
     <use xlink:href="#m1e41161230" x="241.427576" y="42.546761" style="fill: #2adddd; stroke: #2adddd"/>
    </g>
   </g>
   <g id="PathCollection_46">
    <g clip-path="url(#p54f7580048)">
     <use xlink:href="#m8276227187" x="241.427576" y="37.50744" style="fill: #80ffb4; stroke: #80ffb4"/>
    </g>
   </g>
   <g id="PathCollection_47">
    <g clip-path="url(#p54f7580048)">
     <use xlink:href="#ma2d0d74823" x="241.427576" y="33.165226" style="fill: #d4dd80; stroke: #d4dd80"/>
    </g>
   </g>
   <g id="PathCollection_48">
    <g clip-path="url(#p54f7580048)">
     <use xlink:href="#me0be093834" x="241.427576" y="30.33085" style="fill: #ff7e41; stroke: #ff7e41"/>
    </g>
   </g>
   <g id="PathCollection_49">
    <g clip-path="url(#p54f7580048)">
     <use xlink:href="#m78dacb70dd" x="241.427576" y="29.94731" style="fill: #ff0000; stroke: #ff0000"/>
    </g>
   </g>
   <g id="PathCollection_50">
    <g clip-path="url(#p54f7580048)">
     <use xlink:href="#m56175da36a" x="272.66596" y="44.374796" style="fill: #8000ff; stroke: #8000ff"/>
    </g>
   </g>
   <g id="PathCollection_51">
    <g clip-path="url(#p54f7580048)">
     <use xlink:href="#md5436f6f83" x="272.66596" y="42.486847" style="fill: #2c7ef7; stroke: #2c7ef7"/>
    </g>
   </g>
   <g id="PathCollection_52">
    <g clip-path="url(#p54f7580048)">
     <use xlink:href="#m1e41161230" x="272.66596" y="40.152431" style="fill: #2adddd; stroke: #2adddd"/>
    </g>
   </g>
   <g id="PathCollection_53">
    <g clip-path="url(#p54f7580048)">
     <use xlink:href="#m8276227187" x="272.66596" y="37.50744" style="fill: #80ffb4; stroke: #80ffb4"/>
    </g>
   </g>
   <g id="PathCollection_54">
    <g clip-path="url(#p54f7580048)">
     <use xlink:href="#ma2d0d74823" x="272.66596" y="34.543427" style="fill: #d4dd80; stroke: #d4dd80"/>
    </g>
   </g>
   <g id="PathCollection_55">
    <g clip-path="url(#p54f7580048)">
     <use xlink:href="#me0be093834" x="272.66596" y="32.008961" style="fill: #ff7e41; stroke: #ff7e41"/>
    </g>
   </g>
   <g id="PathCollection_56">
    <g clip-path="url(#p54f7580048)">
     <use xlink:href="#m78dacb70dd" x="272.66596" y="30.126751" style="fill: #ff0000; stroke: #ff0000"/>
    </g>
   </g>
   <g id="PathCollection_57">
    <g clip-path="url(#p54f7580048)">
     <use xlink:href="#m56175da36a" x="303.904343" y="42.825016" style="fill: #8000ff; stroke: #8000ff"/>
    </g>
   </g>
   <g id="PathCollection_58">
    <g clip-path="url(#p54f7580048)">
     <use xlink:href="#md5436f6f83" x="303.904343" y="41.740693" style="fill: #2c7ef7; stroke: #2c7ef7"/>
    </g>
   </g>
   <g id="PathCollection_59">
    <g clip-path="url(#p54f7580048)">
     <use xlink:href="#m1e41161230" x="303.904343" y="39.813825" style="fill: #2adddd; stroke: #2adddd"/>
    </g>
   </g>
   <g id="PathCollection_60">
    <g clip-path="url(#p54f7580048)">
     <use xlink:href="#m8276227187" x="303.904343" y="37.50744" style="fill: #80ffb4; stroke: #80ffb4"/>
    </g>
   </g>
   <g id="PathCollection_61">
    <g clip-path="url(#p54f7580048)">
     <use xlink:href="#ma2d0d74823" x="303.904343" y="34.267165" style="fill: #d4dd80; stroke: #d4dd80"/>
    </g>
   </g>
   <g id="PathCollection_62">
    <g clip-path="url(#p54f7580048)">
     <use xlink:href="#me0be093834" x="303.904343" y="31.4854" style="fill: #ff7e41; stroke: #ff7e41"/>
    </g>
   </g>
   <g id="PathCollection_63">
    <g clip-path="url(#p54f7580048)">
     <use xlink:href="#m78dacb70dd" x="303.904343" y="28.678182" style="fill: #ff0000; stroke: #ff0000"/>
    </g>
   </g>
   <g id="PathCollection_64">
    <g clip-path="url(#p54f7580048)">
     <use xlink:href="#m56175da36a" x="335.142727" y="44.300913" style="fill: #8000ff; stroke: #8000ff"/>
    </g>
   </g>
   <g id="PathCollection_65">
    <g clip-path="url(#p54f7580048)">
     <use xlink:href="#md5436f6f83" x="335.142727" y="41.820819" style="fill: #2c7ef7; stroke: #2c7ef7"/>
    </g>
   </g>
   <g id="PathCollection_66">
    <g clip-path="url(#p54f7580048)">
     <use xlink:href="#m1e41161230" x="335.142727" y="39.5052" style="fill: #2adddd; stroke: #2adddd"/>
    </g>
   </g>
   <g id="PathCollection_67">
    <g clip-path="url(#p54f7580048)">
     <use xlink:href="#m8276227187" x="335.142727" y="37.50744" style="fill: #80ffb4; stroke: #80ffb4"/>
    </g>
   </g>
   <g id="PathCollection_68">
    <g clip-path="url(#p54f7580048)">
     <use xlink:href="#ma2d0d74823" x="335.142727" y="35.480677" style="fill: #d4dd80; stroke: #d4dd80"/>
    </g>
   </g>
   <g id="PathCollection_69">
    <g clip-path="url(#p54f7580048)">
     <use xlink:href="#me0be093834" x="335.142727" y="33.977947" style="fill: #ff7e41; stroke: #ff7e41"/>
    </g>
   </g>
   <g id="PathCollection_70">
    <g clip-path="url(#p54f7580048)">
     <use xlink:href="#m78dacb70dd" x="335.142727" y="32.706795" style="fill: #ff0000; stroke: #ff0000"/>
    </g>
   </g>
   <g id="matplotlib.axis_1">
    <g id="xtick_1">
     <g id="line2d_1">
      <defs>
       <path id="m14c001076f" d="M 0 0 
L 0 3.5 
" style="stroke: #000000; stroke-width: 0.8"/>
      </defs>
      <g>
       <use xlink:href="#m14c001076f" x="53.997273" y="404.12" style="stroke: #000000; stroke-width: 0.8"/>
      </g>
     </g>
     <g id="text_1">
      <!-- 13 -->
      <g transform="translate(47.634773 418.718437) scale(0.1 -0.1)">
       <defs>
        <path id="DejaVuSans-31" d="M 794 531 
L 1825 531 
L 1825 4091 
L 703 3866 
L 703 4441 
L 1819 4666 
L 2450 4666 
L 2450 531 
L 3481 531 
L 3481 0 
L 794 0 
L 794 531 
z
" transform="scale(0.015625)"/>
        <path id="DejaVuSans-33" d="M 2597 2516 
Q 3050 2419 3304 2112 
Q 3559 1806 3559 1356 
Q 3559 666 3084 287 
Q 2609 -91 1734 -91 
Q 1441 -91 1130 -33 
Q 819 25 488 141 
L 488 750 
Q 750 597 1062 519 
Q 1375 441 1716 441 
Q 2309 441 2620 675 
Q 2931 909 2931 1356 
Q 2931 1769 2642 2001 
Q 2353 2234 1838 2234 
L 1294 2234 
L 1294 2753 
L 1863 2753 
Q 2328 2753 2575 2939 
Q 2822 3125 2822 3475 
Q 2822 3834 2567 4026 
Q 2313 4219 1838 4219 
Q 1578 4219 1281 4162 
Q 984 4106 628 3988 
L 628 4550 
Q 988 4650 1302 4700 
Q 1616 4750 1894 4750 
Q 2613 4750 3031 4423 
Q 3450 4097 3450 3541 
Q 3450 3153 3228 2886 
Q 3006 2619 2597 2516 
z
" transform="scale(0.015625)"/>
       </defs>
       <use xlink:href="#DejaVuSans-31"/>
       <use xlink:href="#DejaVuSans-33" x="63.623047"/>
      </g>
     </g>
    </g>
    <g id="xtick_2">
     <g id="line2d_2">
      <g>
       <use xlink:href="#m14c001076f" x="85.235657" y="404.12" style="stroke: #000000; stroke-width: 0.8"/>
      </g>
     </g>
     <g id="text_2">
      <!-- 14 -->
      <g transform="translate(78.873157 418.718437) scale(0.1 -0.1)">
       <defs>
        <path id="DejaVuSans-34" d="M 2419 4116 
L 825 1625 
L 2419 1625 
L 2419 4116 
z
M 2253 4666 
L 3047 4666 
L 3047 1625 
L 3713 1625 
L 3713 1100 
L 3047 1100 
L 3047 0 
L 2419 0 
L 2419 1100 
L 313 1100 
L 313 1709 
L 2253 4666 
z
" transform="scale(0.015625)"/>
       </defs>
       <use xlink:href="#DejaVuSans-31"/>
       <use xlink:href="#DejaVuSans-34" x="63.623047"/>
      </g>
     </g>
    </g>
    <g id="xtick_3">
     <g id="line2d_3">
      <g>
       <use xlink:href="#m14c001076f" x="116.47404" y="404.12" style="stroke: #000000; stroke-width: 0.8"/>
      </g>
     </g>
     <g id="text_3">
      <!-- 15 -->
      <g transform="translate(110.11154 418.718437) scale(0.1 -0.1)">
       <defs>
        <path id="DejaVuSans-35" d="M 691 4666 
L 3169 4666 
L 3169 4134 
L 1269 4134 
L 1269 2991 
Q 1406 3038 1543 3061 
Q 1681 3084 1819 3084 
Q 2600 3084 3056 2656 
Q 3513 2228 3513 1497 
Q 3513 744 3044 326 
Q 2575 -91 1722 -91 
Q 1428 -91 1123 -41 
Q 819 9 494 109 
L 494 744 
Q 775 591 1075 516 
Q 1375 441 1709 441 
Q 2250 441 2565 725 
Q 2881 1009 2881 1497 
Q 2881 1984 2565 2268 
Q 2250 2553 1709 2553 
Q 1456 2553 1204 2497 
Q 953 2441 691 2322 
L 691 4666 
z
" transform="scale(0.015625)"/>
       </defs>
       <use xlink:href="#DejaVuSans-31"/>
       <use xlink:href="#DejaVuSans-35" x="63.623047"/>
      </g>
     </g>
    </g>
    <g id="xtick_4">
     <g id="line2d_4">
      <g>
       <use xlink:href="#m14c001076f" x="147.712424" y="404.12" style="stroke: #000000; stroke-width: 0.8"/>
      </g>
     </g>
     <g id="text_4">
      <!-- 16 -->
      <g transform="translate(141.349924 418.718437) scale(0.1 -0.1)">
       <defs>
        <path id="DejaVuSans-36" d="M 2113 2584 
Q 1688 2584 1439 2293 
Q 1191 2003 1191 1497 
Q 1191 994 1439 701 
Q 1688 409 2113 409 
Q 2538 409 2786 701 
Q 3034 994 3034 1497 
Q 3034 2003 2786 2293 
Q 2538 2584 2113 2584 
z
M 3366 4563 
L 3366 3988 
Q 3128 4100 2886 4159 
Q 2644 4219 2406 4219 
Q 1781 4219 1451 3797 
Q 1122 3375 1075 2522 
Q 1259 2794 1537 2939 
Q 1816 3084 2150 3084 
Q 2853 3084 3261 2657 
Q 3669 2231 3669 1497 
Q 3669 778 3244 343 
Q 2819 -91 2113 -91 
Q 1303 -91 875 529 
Q 447 1150 447 2328 
Q 447 3434 972 4092 
Q 1497 4750 2381 4750 
Q 2619 4750 2861 4703 
Q 3103 4656 3366 4563 
z
" transform="scale(0.015625)"/>
       </defs>
       <use xlink:href="#DejaVuSans-31"/>
       <use xlink:href="#DejaVuSans-36" x="63.623047"/>
      </g>
     </g>
    </g>
    <g id="xtick_5">
     <g id="line2d_5">
      <g>
       <use xlink:href="#m14c001076f" x="178.950808" y="404.12" style="stroke: #000000; stroke-width: 0.8"/>
      </g>
     </g>
     <g id="text_5">
      <!-- 17 -->
      <g transform="translate(172.588308 418.718437) scale(0.1 -0.1)">
       <defs>
        <path id="DejaVuSans-37" d="M 525 4666 
L 3525 4666 
L 3525 4397 
L 1831 0 
L 1172 0 
L 2766 4134 
L 525 4134 
L 525 4666 
z
" transform="scale(0.015625)"/>
       </defs>
       <use xlink:href="#DejaVuSans-31"/>
       <use xlink:href="#DejaVuSans-37" x="63.623047"/>
      </g>
     </g>
    </g>
    <g id="xtick_6">
     <g id="line2d_6">
      <g>
       <use xlink:href="#m14c001076f" x="210.189192" y="404.12" style="stroke: #000000; stroke-width: 0.8"/>
      </g>
     </g>
     <g id="text_6">
      <!-- 18 -->
      <g transform="translate(203.826692 418.718437) scale(0.1 -0.1)">
       <defs>
        <path id="DejaVuSans-38" d="M 2034 2216 
Q 1584 2216 1326 1975 
Q 1069 1734 1069 1313 
Q 1069 891 1326 650 
Q 1584 409 2034 409 
Q 2484 409 2743 651 
Q 3003 894 3003 1313 
Q 3003 1734 2745 1975 
Q 2488 2216 2034 2216 
z
M 1403 2484 
Q 997 2584 770 2862 
Q 544 3141 544 3541 
Q 544 4100 942 4425 
Q 1341 4750 2034 4750 
Q 2731 4750 3128 4425 
Q 3525 4100 3525 3541 
Q 3525 3141 3298 2862 
Q 3072 2584 2669 2484 
Q 3125 2378 3379 2068 
Q 3634 1759 3634 1313 
Q 3634 634 3220 271 
Q 2806 -91 2034 -91 
Q 1263 -91 848 271 
Q 434 634 434 1313 
Q 434 1759 690 2068 
Q 947 2378 1403 2484 
z
M 1172 3481 
Q 1172 3119 1398 2916 
Q 1625 2713 2034 2713 
Q 2441 2713 2670 2916 
Q 2900 3119 2900 3481 
Q 2900 3844 2670 4047 
Q 2441 4250 2034 4250 
Q 1625 4250 1398 4047 
Q 1172 3844 1172 3481 
z
" transform="scale(0.015625)"/>
       </defs>
       <use xlink:href="#DejaVuSans-31"/>
       <use xlink:href="#DejaVuSans-38" x="63.623047"/>
      </g>
     </g>
    </g>
    <g id="xtick_7">
     <g id="line2d_7">
      <g>
       <use xlink:href="#m14c001076f" x="241.427576" y="404.12" style="stroke: #000000; stroke-width: 0.8"/>
      </g>
     </g>
     <g id="text_7">
      <!-- 19 -->
      <g transform="translate(235.065076 418.718437) scale(0.1 -0.1)">
       <defs>
        <path id="DejaVuSans-39" d="M 703 97 
L 703 672 
Q 941 559 1184 500 
Q 1428 441 1663 441 
Q 2288 441 2617 861 
Q 2947 1281 2994 2138 
Q 2813 1869 2534 1725 
Q 2256 1581 1919 1581 
Q 1219 1581 811 2004 
Q 403 2428 403 3163 
Q 403 3881 828 4315 
Q 1253 4750 1959 4750 
Q 2769 4750 3195 4129 
Q 3622 3509 3622 2328 
Q 3622 1225 3098 567 
Q 2575 -91 1691 -91 
Q 1453 -91 1209 -44 
Q 966 3 703 97 
z
M 1959 2075 
Q 2384 2075 2632 2365 
Q 2881 2656 2881 3163 
Q 2881 3666 2632 3958 
Q 2384 4250 1959 4250 
Q 1534 4250 1286 3958 
Q 1038 3666 1038 3163 
Q 1038 2656 1286 2365 
Q 1534 2075 1959 2075 
z
" transform="scale(0.015625)"/>
       </defs>
       <use xlink:href="#DejaVuSans-31"/>
       <use xlink:href="#DejaVuSans-39" x="63.623047"/>
      </g>
     </g>
    </g>
    <g id="xtick_8">
     <g id="line2d_8">
      <g>
       <use xlink:href="#m14c001076f" x="272.66596" y="404.12" style="stroke: #000000; stroke-width: 0.8"/>
      </g>
     </g>
     <g id="text_8">
      <!-- 20 -->
      <g transform="translate(266.30346 418.718437) scale(0.1 -0.1)">
       <defs>
        <path id="DejaVuSans-32" d="M 1228 531 
L 3431 531 
L 3431 0 
L 469 0 
L 469 531 
Q 828 903 1448 1529 
Q 2069 2156 2228 2338 
Q 2531 2678 2651 2914 
Q 2772 3150 2772 3378 
Q 2772 3750 2511 3984 
Q 2250 4219 1831 4219 
Q 1534 4219 1204 4116 
Q 875 4013 500 3803 
L 500 4441 
Q 881 4594 1212 4672 
Q 1544 4750 1819 4750 
Q 2544 4750 2975 4387 
Q 3406 4025 3406 3419 
Q 3406 3131 3298 2873 
Q 3191 2616 2906 2266 
Q 2828 2175 2409 1742 
Q 1991 1309 1228 531 
z
" transform="scale(0.015625)"/>
        <path id="DejaVuSans-30" d="M 2034 4250 
Q 1547 4250 1301 3770 
Q 1056 3291 1056 2328 
Q 1056 1369 1301 889 
Q 1547 409 2034 409 
Q 2525 409 2770 889 
Q 3016 1369 3016 2328 
Q 3016 3291 2770 3770 
Q 2525 4250 2034 4250 
z
M 2034 4750 
Q 2819 4750 3233 4129 
Q 3647 3509 3647 2328 
Q 3647 1150 3233 529 
Q 2819 -91 2034 -91 
Q 1250 -91 836 529 
Q 422 1150 422 2328 
Q 422 3509 836 4129 
Q 1250 4750 2034 4750 
z
" transform="scale(0.015625)"/>
       </defs>
       <use xlink:href="#DejaVuSans-32"/>
       <use xlink:href="#DejaVuSans-30" x="63.623047"/>
      </g>
     </g>
    </g>
    <g id="xtick_9">
     <g id="line2d_9">
      <g>
       <use xlink:href="#m14c001076f" x="303.904343" y="404.12" style="stroke: #000000; stroke-width: 0.8"/>
      </g>
     </g>
     <g id="text_9">
      <!-- 21 -->
      <g transform="translate(297.541843 418.718437) scale(0.1 -0.1)">
       <use xlink:href="#DejaVuSans-32"/>
       <use xlink:href="#DejaVuSans-31" x="63.623047"/>
      </g>
     </g>
    </g>
    <g id="xtick_10">
     <g id="line2d_10">
      <g>
       <use xlink:href="#m14c001076f" x="335.142727" y="404.12" style="stroke: #000000; stroke-width: 0.8"/>
      </g>
     </g>
     <g id="text_10">
      <!-- 22 -->
      <g transform="translate(328.780227 418.718437) scale(0.1 -0.1)">
       <use xlink:href="#DejaVuSans-32"/>
       <use xlink:href="#DejaVuSans-32" x="63.623047"/>
      </g>
     </g>
    </g>
   </g>
   <g id="matplotlib.axis_2">
    <g id="ytick_1">
     <g id="line2d_11">
      <defs>
       <path id="mcfeea96967" d="M 0 0 
L -3.5 0 
" style="stroke: #000000; stroke-width: 0.8"/>
      </defs>
      <g>
       <use xlink:href="#mcfeea96967" x="39.94" y="356.92774" style="stroke: #000000; stroke-width: 0.8"/>
      </g>
     </g>
     <g id="text_11">
      <!-- 0.55 -->
      <g transform="translate(10.674375 360.726959) scale(0.1 -0.1)">
       <defs>
        <path id="DejaVuSans-2e" d="M 684 794 
L 1344 794 
L 1344 0 
L 684 0 
L 684 794 
z
" transform="scale(0.015625)"/>
       </defs>
       <use xlink:href="#DejaVuSans-30"/>
       <use xlink:href="#DejaVuSans-2e" x="63.623047"/>
       <use xlink:href="#DejaVuSans-35" x="95.410156"/>
       <use xlink:href="#DejaVuSans-35" x="159.033203"/>
      </g>
     </g>
    </g>
    <g id="ytick_2">
     <g id="line2d_12">
      <g>
       <use xlink:href="#mcfeea96967" x="39.94" y="298.042563" style="stroke: #000000; stroke-width: 0.8"/>
      </g>
     </g>
     <g id="text_12">
      <!-- 0.60 -->
      <g transform="translate(10.674375 301.841781) scale(0.1 -0.1)">
       <use xlink:href="#DejaVuSans-30"/>
       <use xlink:href="#DejaVuSans-2e" x="63.623047"/>
       <use xlink:href="#DejaVuSans-36" x="95.410156"/>
       <use xlink:href="#DejaVuSans-30" x="159.033203"/>
      </g>
     </g>
    </g>
    <g id="ytick_3">
     <g id="line2d_13">
      <g>
       <use xlink:href="#mcfeea96967" x="39.94" y="239.157385" style="stroke: #000000; stroke-width: 0.8"/>
      </g>
     </g>
     <g id="text_13">
      <!-- 0.65 -->
      <g transform="translate(10.674375 242.956604) scale(0.1 -0.1)">
       <use xlink:href="#DejaVuSans-30"/>
       <use xlink:href="#DejaVuSans-2e" x="63.623047"/>
       <use xlink:href="#DejaVuSans-36" x="95.410156"/>
       <use xlink:href="#DejaVuSans-35" x="159.033203"/>
      </g>
     </g>
    </g>
    <g id="ytick_4">
     <g id="line2d_14">
      <g>
       <use xlink:href="#mcfeea96967" x="39.94" y="180.272207" style="stroke: #000000; stroke-width: 0.8"/>
      </g>
     </g>
     <g id="text_14">
      <!-- 0.70 -->
      <g transform="translate(10.674375 184.071426) scale(0.1 -0.1)">
       <use xlink:href="#DejaVuSans-30"/>
       <use xlink:href="#DejaVuSans-2e" x="63.623047"/>
       <use xlink:href="#DejaVuSans-37" x="95.410156"/>
       <use xlink:href="#DejaVuSans-30" x="159.033203"/>
      </g>
     </g>
    </g>
    <g id="ytick_5">
     <g id="line2d_15">
      <g>
       <use xlink:href="#mcfeea96967" x="39.94" y="121.38703" style="stroke: #000000; stroke-width: 0.8"/>
      </g>
     </g>
     <g id="text_15">
      <!-- 0.75 -->
      <g transform="translate(10.674375 125.186248) scale(0.1 -0.1)">
       <use xlink:href="#DejaVuSans-30"/>
       <use xlink:href="#DejaVuSans-2e" x="63.623047"/>
       <use xlink:href="#DejaVuSans-37" x="95.410156"/>
       <use xlink:href="#DejaVuSans-35" x="159.033203"/>
      </g>
     </g>
    </g>
    <g id="ytick_6">
     <g id="line2d_16">
      <g>
       <use xlink:href="#mcfeea96967" x="39.94" y="62.501852" style="stroke: #000000; stroke-width: 0.8"/>
      </g>
     </g>
     <g id="text_16">
      <!-- 0.80 -->
      <g transform="translate(10.674375 66.301071) scale(0.1 -0.1)">
       <use xlink:href="#DejaVuSans-30"/>
       <use xlink:href="#DejaVuSans-2e" x="63.623047"/>
       <use xlink:href="#DejaVuSans-38" x="95.410156"/>
       <use xlink:href="#DejaVuSans-30" x="159.033203"/>
      </g>
     </g>
    </g>
   </g>
   <g id="line2d_17">
    <path d="M 53.997273 386.241818 
L 53.997273 280.019996 
L 53.997273 154.048407 
L 53.997273 37.50744 
L 53.997273 30.639342 
L 53.997273 63.3112 
L 53.997273 78.973283 
" clip-path="url(#p54f7580048)" style="fill: none; stroke: #808080; stroke-opacity: 0.5; stroke-width: 1.5; stroke-linecap: square"/>
   </g>
   <g id="line2d_18">
    <path d="M 85.235657 221.322358 
L 85.235657 170.794897 
L 85.235657 96.923043 
L 85.235657 37.50744 
L 85.235657 30.918114 
L 85.235657 37.493142 
L 85.235657 44.044015 
" clip-path="url(#p54f7580048)" style="fill: none; stroke: #808080; stroke-opacity: 0.5; stroke-width: 1.5; stroke-linecap: square"/>
   </g>
   <g id="line2d_19">
    <path d="M 116.47404 156.955191 
L 116.47404 118.012306 
L 116.47404 70.870251 
L 116.47404 37.50744 
L 116.47404 37.059231 
L 116.47404 63.22918 
L 116.47404 114.523514 
" clip-path="url(#p54f7580048)" style="fill: none; stroke: #808080; stroke-opacity: 0.5; stroke-width: 1.5; stroke-linecap: square"/>
   </g>
   <g id="line2d_20">
    <path d="M 147.712424 106.812528 
L 147.712424 80.544244 
L 147.712424 56.008891 
L 147.712424 37.50744 
L 147.712424 31.99032 
L 147.712424 40.627274 
L 147.712424 60.873917 
" clip-path="url(#p54f7580048)" style="fill: none; stroke: #808080; stroke-opacity: 0.5; stroke-width: 1.5; stroke-linecap: square"/>
   </g>
   <g id="line2d_21">
    <path d="M 178.950808 101.391277 
L 178.950808 77.428219 
L 178.950808 55.936047 
L 178.950808 37.50744 
L 178.950808 29.768783 
L 178.950808 38.421085 
L 178.950808 61.841343 
" clip-path="url(#p54f7580048)" style="fill: none; stroke: #808080; stroke-opacity: 0.5; stroke-width: 1.5; stroke-linecap: square"/>
   </g>
   <g id="line2d_22">
    <path d="M 210.189192 59.798579 
L 210.189192 51.861437 
L 210.189192 44.176632 
L 210.189192 37.50744 
L 210.189192 32.569606 
L 210.189192 29.97452 
L 210.189192 29.509433 
" clip-path="url(#p54f7580048)" style="fill: none; stroke: #808080; stroke-opacity: 0.5; stroke-width: 1.5; stroke-linecap: square"/>
   </g>
   <g id="line2d_23">
    <path d="M 241.427576 51.584894 
L 241.427576 47.360937 
L 241.427576 42.546761 
L 241.427576 37.50744 
L 241.427576 33.165226 
L 241.427576 30.33085 
L 241.427576 29.94731 
" clip-path="url(#p54f7580048)" style="fill: none; stroke: #808080; stroke-opacity: 0.5; stroke-width: 1.5; stroke-linecap: square"/>
   </g>
   <g id="line2d_24">
    <path d="M 272.66596 44.374796 
L 272.66596 42.486847 
L 272.66596 40.152431 
L 272.66596 37.50744 
L 272.66596 34.543427 
L 272.66596 32.008961 
L 272.66596 30.126751 
" clip-path="url(#p54f7580048)" style="fill: none; stroke: #808080; stroke-opacity: 0.5; stroke-width: 1.5; stroke-linecap: square"/>
   </g>
   <g id="line2d_25">
    <path d="M 303.904343 42.825016 
L 303.904343 41.740693 
L 303.904343 39.813825 
L 303.904343 37.50744 
L 303.904343 34.267165 
L 303.904343 31.4854 
L 303.904343 28.678182 
" clip-path="url(#p54f7580048)" style="fill: none; stroke: #808080; stroke-opacity: 0.5; stroke-width: 1.5; stroke-linecap: square"/>
   </g>
   <g id="line2d_26">
    <path d="M 335.142727 44.300913 
L 335.142727 41.820819 
L 335.142727 39.5052 
L 335.142727 37.50744 
L 335.142727 35.480677 
L 335.142727 33.977947 
L 335.142727 32.706795 
" clip-path="url(#p54f7580048)" style="fill: none; stroke: #808080; stroke-opacity: 0.5; stroke-width: 1.5; stroke-linecap: square"/>
   </g>
   <g id="line2d_27"/>
   <g id="line2d_28"/>
   <g id="line2d_29"/>
   <g id="line2d_30"/>
   <g id="line2d_31"/>
   <g id="line2d_32"/>
   <g id="line2d_33"/>
   <g id="patch_3">
    <path d="M 39.94 404.12 
L 39.94 10.8 
" style="fill: none; stroke: #000000; stroke-width: 0.8; stroke-linejoin: miter; stroke-linecap: square"/>
   </g>
   <g id="patch_4">
    <path d="M 349.2 404.12 
L 349.2 10.8 
" style="fill: none; stroke: #000000; stroke-width: 0.8; stroke-linejoin: miter; stroke-linecap: square"/>
   </g>
   <g id="patch_5">
    <path d="M 39.94 404.12 
L 349.2 404.12 
" style="fill: none; stroke: #000000; stroke-width: 0.8; stroke-linejoin: miter; stroke-linecap: square"/>
   </g>
   <g id="patch_6">
    <path d="M 39.94 10.8 
L 349.2 10.8 
" style="fill: none; stroke: #000000; stroke-width: 0.8; stroke-linejoin: miter; stroke-linecap: square"/>
   </g>
   <g id="legend_1">
    <g id="patch_7">
     <path d="M 286.379687 399.12 
L 342.2 399.12 
Q 344.2 399.12 344.2 397.12 
L 344.2 280.695 
Q 344.2 278.695 342.2 278.695 
L 286.379687 278.695 
Q 284.379687 278.695 284.379687 280.695 
L 284.379687 397.12 
Q 284.379687 399.12 286.379687 399.12 
z
" style="fill: #ffffff; opacity: 0.8; stroke: #cccccc; stroke-linejoin: miter"/>
    </g>
    <g id="text_17">
     <!-- Multipliers -->
     <g transform="translate(288.379687 290.293437) scale(0.1 -0.1)">
      <defs>
       <path id="DejaVuSans-4d" d="M 628 4666 
L 1569 4666 
L 2759 1491 
L 3956 4666 
L 4897 4666 
L 4897 0 
L 4281 0 
L 4281 4097 
L 3078 897 
L 2444 897 
L 1241 4097 
L 1241 0 
L 628 0 
L 628 4666 
z
" transform="scale(0.015625)"/>
       <path id="DejaVuSans-75" d="M 544 1381 
L 544 3500 
L 1119 3500 
L 1119 1403 
Q 1119 906 1312 657 
Q 1506 409 1894 409 
Q 2359 409 2629 706 
Q 2900 1003 2900 1516 
L 2900 3500 
L 3475 3500 
L 3475 0 
L 2900 0 
L 2900 538 
Q 2691 219 2414 64 
Q 2138 -91 1772 -91 
Q 1169 -91 856 284 
Q 544 659 544 1381 
z
M 1991 3584 
L 1991 3584 
z
" transform="scale(0.015625)"/>
       <path id="DejaVuSans-6c" d="M 603 4863 
L 1178 4863 
L 1178 0 
L 603 0 
L 603 4863 
z
" transform="scale(0.015625)"/>
       <path id="DejaVuSans-74" d="M 1172 4494 
L 1172 3500 
L 2356 3500 
L 2356 3053 
L 1172 3053 
L 1172 1153 
Q 1172 725 1289 603 
Q 1406 481 1766 481 
L 2356 481 
L 2356 0 
L 1766 0 
Q 1100 0 847 248 
Q 594 497 594 1153 
L 594 3053 
L 172 3053 
L 172 3500 
L 594 3500 
L 594 4494 
L 1172 4494 
z
" transform="scale(0.015625)"/>
       <path id="DejaVuSans-69" d="M 603 3500 
L 1178 3500 
L 1178 0 
L 603 0 
L 603 3500 
z
M 603 4863 
L 1178 4863 
L 1178 4134 
L 603 4134 
L 603 4863 
z
" transform="scale(0.015625)"/>
       <path id="DejaVuSans-70" d="M 1159 525 
L 1159 -1331 
L 581 -1331 
L 581 3500 
L 1159 3500 
L 1159 2969 
Q 1341 3281 1617 3432 
Q 1894 3584 2278 3584 
Q 2916 3584 3314 3078 
Q 3713 2572 3713 1747 
Q 3713 922 3314 415 
Q 2916 -91 2278 -91 
Q 1894 -91 1617 61 
Q 1341 213 1159 525 
z
M 3116 1747 
Q 3116 2381 2855 2742 
Q 2594 3103 2138 3103 
Q 1681 3103 1420 2742 
Q 1159 2381 1159 1747 
Q 1159 1113 1420 752 
Q 1681 391 2138 391 
Q 2594 391 2855 752 
Q 3116 1113 3116 1747 
z
" transform="scale(0.015625)"/>
       <path id="DejaVuSans-65" d="M 3597 1894 
L 3597 1613 
L 953 1613 
Q 991 1019 1311 708 
Q 1631 397 2203 397 
Q 2534 397 2845 478 
Q 3156 559 3463 722 
L 3463 178 
Q 3153 47 2828 -22 
Q 2503 -91 2169 -91 
Q 1331 -91 842 396 
Q 353 884 353 1716 
Q 353 2575 817 3079 
Q 1281 3584 2069 3584 
Q 2775 3584 3186 3129 
Q 3597 2675 3597 1894 
z
M 3022 2063 
Q 3016 2534 2758 2815 
Q 2500 3097 2075 3097 
Q 1594 3097 1305 2825 
Q 1016 2553 972 2059 
L 3022 2063 
z
" transform="scale(0.015625)"/>
       <path id="DejaVuSans-72" d="M 2631 2963 
Q 2534 3019 2420 3045 
Q 2306 3072 2169 3072 
Q 1681 3072 1420 2755 
Q 1159 2438 1159 1844 
L 1159 0 
L 581 0 
L 581 3500 
L 1159 3500 
L 1159 2956 
Q 1341 3275 1631 3429 
Q 1922 3584 2338 3584 
Q 2397 3584 2469 3576 
Q 2541 3569 2628 3553 
L 2631 2963 
z
" transform="scale(0.015625)"/>
       <path id="DejaVuSans-73" d="M 2834 3397 
L 2834 2853 
Q 2591 2978 2328 3040 
Q 2066 3103 1784 3103 
Q 1356 3103 1142 2972 
Q 928 2841 928 2578 
Q 928 2378 1081 2264 
Q 1234 2150 1697 2047 
L 1894 2003 
Q 2506 1872 2764 1633 
Q 3022 1394 3022 966 
Q 3022 478 2636 193 
Q 2250 -91 1575 -91 
Q 1294 -91 989 -36 
Q 684 19 347 128 
L 347 722 
Q 666 556 975 473 
Q 1284 391 1588 391 
Q 1994 391 2212 530 
Q 2431 669 2431 922 
Q 2431 1156 2273 1281 
Q 2116 1406 1581 1522 
L 1381 1569 
Q 847 1681 609 1914 
Q 372 2147 372 2553 
Q 372 3047 722 3315 
Q 1072 3584 1716 3584 
Q 2034 3584 2315 3537 
Q 2597 3491 2834 3397 
z
" transform="scale(0.015625)"/>
      </defs>
      <use xlink:href="#DejaVuSans-4d"/>
      <use xlink:href="#DejaVuSans-75" x="86.279297"/>
      <use xlink:href="#DejaVuSans-6c" x="149.658203"/>
      <use xlink:href="#DejaVuSans-74" x="177.441406"/>
      <use xlink:href="#DejaVuSans-69" x="216.650391"/>
      <use xlink:href="#DejaVuSans-70" x="244.433594"/>
      <use xlink:href="#DejaVuSans-6c" x="307.910156"/>
      <use xlink:href="#DejaVuSans-69" x="335.693359"/>
      <use xlink:href="#DejaVuSans-65" x="363.476562"/>
      <use xlink:href="#DejaVuSans-72" x="425"/>
      <use xlink:href="#DejaVuSans-73" x="466.113281"/>
     </g>
    </g>
    <g id="line2d_34">
     <defs>
      <path id="m56884f6978" d="M 0 4 
C 1.060812 4 2.078319 3.578535 2.828427 2.828427 
C 3.578535 2.078319 4 1.060812 4 0 
C 4 -1.060812 3.578535 -2.078319 2.828427 -2.828427 
C 2.078319 -3.578535 1.060812 -4 0 -4 
C -1.060812 -4 -2.078319 -3.578535 -2.828427 -2.828427 
C -3.578535 -2.078319 -4 -1.060812 -4 0 
C -4 1.060812 -3.578535 2.078319 -2.828427 2.828427 
C -2.078319 3.578535 -1.060812 4 0 4 
z
" style="stroke: #8000ff"/>
     </defs>
     <g>
      <use xlink:href="#m56884f6978" x="300.534375" y="301.471563" style="fill: #8000ff; stroke: #8000ff"/>
     </g>
    </g>
    <g id="text_18">
     <!-- -1.5 -->
     <g transform="translate(318.534375 304.971563) scale(0.1 -0.1)">
      <defs>
       <path id="DejaVuSans-2d" d="M 313 2009 
L 1997 2009 
L 1997 1497 
L 313 1497 
L 313 2009 
z
" transform="scale(0.015625)"/>
      </defs>
      <use xlink:href="#DejaVuSans-2d"/>
      <use xlink:href="#DejaVuSans-31" x="36.083984"/>
      <use xlink:href="#DejaVuSans-2e" x="99.707031"/>
      <use xlink:href="#DejaVuSans-35" x="131.494141"/>
     </g>
    </g>
    <g id="line2d_35">
     <defs>
      <path id="m7136002aeb" d="M 0 4 
C 1.060812 4 2.078319 3.578535 2.828427 2.828427 
C 3.578535 2.078319 4 1.060812 4 0 
C 4 -1.060812 3.578535 -2.078319 2.828427 -2.828427 
C 2.078319 -3.578535 1.060812 -4 0 -4 
C -1.060812 -4 -2.078319 -3.578535 -2.828427 -2.828427 
C -3.578535 -2.078319 -4 -1.060812 -4 0 
C -4 1.060812 -3.578535 2.078319 -2.828427 2.828427 
C -2.078319 3.578535 -1.060812 4 0 4 
z
" style="stroke: #2c7ef7"/>
     </defs>
     <g>
      <use xlink:href="#m7136002aeb" x="300.534375" y="316.149688" style="fill: #2c7ef7; stroke: #2c7ef7"/>
     </g>
    </g>
    <g id="text_19">
     <!-- -1.0 -->
     <g transform="translate(318.534375 319.649688) scale(0.1 -0.1)">
      <use xlink:href="#DejaVuSans-2d"/>
      <use xlink:href="#DejaVuSans-31" x="36.083984"/>
      <use xlink:href="#DejaVuSans-2e" x="99.707031"/>
      <use xlink:href="#DejaVuSans-30" x="131.494141"/>
     </g>
    </g>
    <g id="line2d_36">
     <defs>
      <path id="m51af84cd0e" d="M 0 4 
C 1.060812 4 2.078319 3.578535 2.828427 2.828427 
C 3.578535 2.078319 4 1.060812 4 0 
C 4 -1.060812 3.578535 -2.078319 2.828427 -2.828427 
C 2.078319 -3.578535 1.060812 -4 0 -4 
C -1.060812 -4 -2.078319 -3.578535 -2.828427 -2.828427 
C -3.578535 -2.078319 -4 -1.060812 -4 0 
C -4 1.060812 -3.578535 2.078319 -2.828427 2.828427 
C -2.078319 3.578535 -1.060812 4 0 4 
z
" style="stroke: #2adddd"/>
     </defs>
     <g>
      <use xlink:href="#m51af84cd0e" x="300.534375" y="330.827813" style="fill: #2adddd; stroke: #2adddd"/>
     </g>
    </g>
    <g id="text_20">
     <!-- -0.5 -->
     <g transform="translate(318.534375 334.327813) scale(0.1 -0.1)">
      <use xlink:href="#DejaVuSans-2d"/>
      <use xlink:href="#DejaVuSans-30" x="36.083984"/>
      <use xlink:href="#DejaVuSans-2e" x="99.707031"/>
      <use xlink:href="#DejaVuSans-35" x="131.494141"/>
     </g>
    </g>
    <g id="line2d_37">
     <defs>
      <path id="mcda4d8c4f0" d="M 0 4 
C 1.060812 4 2.078319 3.578535 2.828427 2.828427 
C 3.578535 2.078319 4 1.060812 4 0 
C 4 -1.060812 3.578535 -2.078319 2.828427 -2.828427 
C 2.078319 -3.578535 1.060812 -4 0 -4 
C -1.060812 -4 -2.078319 -3.578535 -2.828427 -2.828427 
C -3.578535 -2.078319 -4 -1.060812 -4 0 
C -4 1.060812 -3.578535 2.078319 -2.828427 2.828427 
C -2.078319 3.578535 -1.060812 4 0 4 
z
" style="stroke: #80ffb4"/>
     </defs>
     <g>
      <use xlink:href="#mcda4d8c4f0" x="300.534375" y="345.505938" style="fill: #80ffb4; stroke: #80ffb4"/>
     </g>
    </g>
    <g id="text_21">
     <!-- 0.0 -->
     <g transform="translate(318.534375 349.005938) scale(0.1 -0.1)">
      <use xlink:href="#DejaVuSans-30"/>
      <use xlink:href="#DejaVuSans-2e" x="63.623047"/>
      <use xlink:href="#DejaVuSans-30" x="95.410156"/>
     </g>
    </g>
    <g id="line2d_38">
     <defs>
      <path id="m33f962721a" d="M 0 4 
C 1.060812 4 2.078319 3.578535 2.828427 2.828427 
C 3.578535 2.078319 4 1.060812 4 0 
C 4 -1.060812 3.578535 -2.078319 2.828427 -2.828427 
C 2.078319 -3.578535 1.060812 -4 0 -4 
C -1.060812 -4 -2.078319 -3.578535 -2.828427 -2.828427 
C -3.578535 -2.078319 -4 -1.060812 -4 0 
C -4 1.060812 -3.578535 2.078319 -2.828427 2.828427 
C -2.078319 3.578535 -1.060812 4 0 4 
z
" style="stroke: #d4dd80"/>
     </defs>
     <g>
      <use xlink:href="#m33f962721a" x="300.534375" y="360.184063" style="fill: #d4dd80; stroke: #d4dd80"/>
     </g>
    </g>
    <g id="text_22">
     <!-- 0.5 -->
     <g transform="translate(318.534375 363.684063) scale(0.1 -0.1)">
      <use xlink:href="#DejaVuSans-30"/>
      <use xlink:href="#DejaVuSans-2e" x="63.623047"/>
      <use xlink:href="#DejaVuSans-35" x="95.410156"/>
     </g>
    </g>
    <g id="line2d_39">
     <defs>
      <path id="mbe285f6391" d="M 0 4 
C 1.060812 4 2.078319 3.578535 2.828427 2.828427 
C 3.578535 2.078319 4 1.060812 4 0 
C 4 -1.060812 3.578535 -2.078319 2.828427 -2.828427 
C 2.078319 -3.578535 1.060812 -4 0 -4 
C -1.060812 -4 -2.078319 -3.578535 -2.828427 -2.828427 
C -3.578535 -2.078319 -4 -1.060812 -4 0 
C -4 1.060812 -3.578535 2.078319 -2.828427 2.828427 
C -2.078319 3.578535 -1.060812 4 0 4 
z
" style="stroke: #ff7e41"/>
     </defs>
     <g>
      <use xlink:href="#mbe285f6391" x="300.534375" y="374.862188" style="fill: #ff7e41; stroke: #ff7e41"/>
     </g>
    </g>
    <g id="text_23">
     <!-- 1.0 -->
     <g transform="translate(318.534375 378.362188) scale(0.1 -0.1)">
      <use xlink:href="#DejaVuSans-31"/>
      <use xlink:href="#DejaVuSans-2e" x="63.623047"/>
      <use xlink:href="#DejaVuSans-30" x="95.410156"/>
     </g>
    </g>
    <g id="line2d_40">
     <defs>
      <path id="mee1847182e" d="M 0 4 
C 1.060812 4 2.078319 3.578535 2.828427 2.828427 
C 3.578535 2.078319 4 1.060812 4 0 
C 4 -1.060812 3.578535 -2.078319 2.828427 -2.828427 
C 2.078319 -3.578535 1.060812 -4 0 -4 
C -1.060812 -4 -2.078319 -3.578535 -2.828427 -2.828427 
C -3.578535 -2.078319 -4 -1.060812 -4 0 
C -4 1.060812 -3.578535 2.078319 -2.828427 2.828427 
C -2.078319 3.578535 -1.060812 4 0 4 
z
" style="stroke: #ff0000"/>
     </defs>
     <g>
      <use xlink:href="#mee1847182e" x="300.534375" y="389.540313" style="fill: #ff0000; stroke: #ff0000"/>
     </g>
    </g>
    <g id="text_24">
     <!-- 1.5 -->
     <g transform="translate(318.534375 393.040313) scale(0.1 -0.1)">
      <use xlink:href="#DejaVuSans-31"/>
      <use xlink:href="#DejaVuSans-2e" x="63.623047"/>
      <use xlink:href="#DejaVuSans-35" x="95.410156"/>
     </g>
    </g>
   </g>
  </g>
 </g>
 <defs>
  <clipPath id="p54f7580048">
   <rect x="39.94" y="10.8" width="309.26" height="393.32"/>
  </clipPath>
 </defs>
</svg>
