<?xml version="1.0" encoding="utf-8" standalone="no"?>
<!DOCTYPE svg PUBLIC "-//W3C//DTD SVG 1.1//EN"
  "http://www.w3.org/Graphics/SVG/1.1/DTD/svg11.dtd">
<svg xmlns:xlink="http://www.w3.org/1999/xlink" width="432pt" height="432pt" viewBox="0 0 432 432" xmlns="http://www.w3.org/2000/svg" version="1.1">
 <metadata>
  <rdf:RDF xmlns:dc="http://purl.org/dc/elements/1.1/" xmlns:cc="http://creativecommons.org/ns#" xmlns:rdf="http://www.w3.org/1999/02/22-rdf-syntax-ns#">
   <cc:Work>
    <dc:type rdf:resource="http://purl.org/dc/dcmitype/StillImage"/>
    <dc:date>2023-10-26T17:01:40.456796</dc:date>
    <dc:format>image/svg+xml</dc:format>
    <dc:creator>
     <cc:Agent>
      <dc:title>Matplotlib v3.7.3, https://matplotlib.org/</dc:title>
     </cc:Agent>
    </dc:creator>
   </cc:Work>
  </rdf:RDF>
 </metadata>
 <defs>
  <style type="text/css">*{stroke-linejoin: round; stroke-linecap: butt}</style>
 </defs>
 <g id="figure_1">
  <g id="patch_1">
   <path d="M 0 432 
L 432 432 
L 432 0 
L 0 0 
z
" style="fill: #ffffff"/>
  </g>
  <g id="axes_1">
   <g id="patch_2">
    <path d="M 54.02 390.04 
L 421.2 390.04 
L 421.2 10.8 
L 54.02 10.8 
z
" style="fill: #ffffff"/>
   </g>
   <g id="matplotlib.axis_1">
    <g id="xtick_1">
     <g id="line2d_1">
      <defs>
       <path id="m74213346fe" d="M 0 0 
L 0 3.5 
" style="stroke: #000000; stroke-width: 0.8"/>
      </defs>
      <g>
       <use xlink:href="#m74213346fe" x="70.71" y="390.04" style="stroke: #000000; stroke-width: 0.8"/>
      </g>
     </g>
     <g id="text_1">
      <!-- −1.5 -->
      <g transform="translate(58.568594 404.638438) scale(0.1 -0.1)">
       <defs>
        <path id="DejaVuSans-2212" d="M 678 2272 
L 4684 2272 
L 4684 1741 
L 678 1741 
L 678 2272 
z
" transform="scale(0.015625)"/>
        <path id="DejaVuSans-31" d="M 794 531 
L 1825 531 
L 1825 4091 
L 703 3866 
L 703 4441 
L 1819 4666 
L 2450 4666 
L 2450 531 
L 3481 531 
L 3481 0 
L 794 0 
L 794 531 
z
" transform="scale(0.015625)"/>
        <path id="DejaVuSans-2e" d="M 684 794 
L 1344 794 
L 1344 0 
L 684 0 
L 684 794 
z
" transform="scale(0.015625)"/>
        <path id="DejaVuSans-35" d="M 691 4666 
L 3169 4666 
L 3169 4134 
L 1269 4134 
L 1269 2991 
Q 1406 3038 1543 3061 
Q 1681 3084 1819 3084 
Q 2600 3084 3056 2656 
Q 3513 2228 3513 1497 
Q 3513 744 3044 326 
Q 2575 -91 1722 -91 
Q 1428 -91 1123 -41 
Q 819 9 494 109 
L 494 744 
Q 775 591 1075 516 
Q 1375 441 1709 441 
Q 2250 441 2565 725 
Q 2881 1009 2881 1497 
Q 2881 1984 2565 2268 
Q 2250 2553 1709 2553 
Q 1456 2553 1204 2497 
Q 953 2441 691 2322 
L 691 4666 
z
" transform="scale(0.015625)"/>
       </defs>
       <use xlink:href="#DejaVuSans-2212"/>
       <use xlink:href="#DejaVuSans-31" x="83.789062"/>
       <use xlink:href="#DejaVuSans-2e" x="147.412109"/>
       <use xlink:href="#DejaVuSans-35" x="179.199219"/>
      </g>
     </g>
    </g>
    <g id="xtick_2">
     <g id="line2d_2">
      <g>
       <use xlink:href="#m74213346fe" x="126.343333" y="390.04" style="stroke: #000000; stroke-width: 0.8"/>
      </g>
     </g>
     <g id="text_2">
      <!-- −1.0 -->
      <g transform="translate(114.201927 404.638438) scale(0.1 -0.1)">
       <defs>
        <path id="DejaVuSans-30" d="M 2034 4250 
Q 1547 4250 1301 3770 
Q 1056 3291 1056 2328 
Q 1056 1369 1301 889 
Q 1547 409 2034 409 
Q 2525 409 2770 889 
Q 3016 1369 3016 2328 
Q 3016 3291 2770 3770 
Q 2525 4250 2034 4250 
z
M 2034 4750 
Q 2819 4750 3233 4129 
Q 3647 3509 3647 2328 
Q 3647 1150 3233 529 
Q 2819 -91 2034 -91 
Q 1250 -91 836 529 
Q 422 1150 422 2328 
Q 422 3509 836 4129 
Q 1250 4750 2034 4750 
z
" transform="scale(0.015625)"/>
       </defs>
       <use xlink:href="#DejaVuSans-2212"/>
       <use xlink:href="#DejaVuSans-31" x="83.789062"/>
       <use xlink:href="#DejaVuSans-2e" x="147.412109"/>
       <use xlink:href="#DejaVuSans-30" x="179.199219"/>
      </g>
     </g>
    </g>
    <g id="xtick_3">
     <g id="line2d_3">
      <g>
       <use xlink:href="#m74213346fe" x="181.976667" y="390.04" style="stroke: #000000; stroke-width: 0.8"/>
      </g>
     </g>
     <g id="text_3">
      <!-- −0.5 -->
      <g transform="translate(169.83526 404.638438) scale(0.1 -0.1)">
       <use xlink:href="#DejaVuSans-2212"/>
       <use xlink:href="#DejaVuSans-30" x="83.789062"/>
       <use xlink:href="#DejaVuSans-2e" x="147.412109"/>
       <use xlink:href="#DejaVuSans-35" x="179.199219"/>
      </g>
     </g>
    </g>
    <g id="xtick_4">
     <g id="line2d_4">
      <g>
       <use xlink:href="#m74213346fe" x="237.61" y="390.04" style="stroke: #000000; stroke-width: 0.8"/>
      </g>
     </g>
     <g id="text_4">
      <!-- 0.0 -->
      <g transform="translate(229.658438 404.638438) scale(0.1 -0.1)">
       <use xlink:href="#DejaVuSans-30"/>
       <use xlink:href="#DejaVuSans-2e" x="63.623047"/>
       <use xlink:href="#DejaVuSans-30" x="95.410156"/>
      </g>
     </g>
    </g>
    <g id="xtick_5">
     <g id="line2d_5">
      <g>
       <use xlink:href="#m74213346fe" x="293.243333" y="390.04" style="stroke: #000000; stroke-width: 0.8"/>
      </g>
     </g>
     <g id="text_5">
      <!-- 0.5 -->
      <g transform="translate(285.291771 404.638438) scale(0.1 -0.1)">
       <use xlink:href="#DejaVuSans-30"/>
       <use xlink:href="#DejaVuSans-2e" x="63.623047"/>
       <use xlink:href="#DejaVuSans-35" x="95.410156"/>
      </g>
     </g>
    </g>
    <g id="xtick_6">
     <g id="line2d_6">
      <g>
       <use xlink:href="#m74213346fe" x="348.876667" y="390.04" style="stroke: #000000; stroke-width: 0.8"/>
      </g>
     </g>
     <g id="text_6">
      <!-- 1.0 -->
      <g transform="translate(340.925104 404.638438) scale(0.1 -0.1)">
       <use xlink:href="#DejaVuSans-31"/>
       <use xlink:href="#DejaVuSans-2e" x="63.623047"/>
       <use xlink:href="#DejaVuSans-30" x="95.410156"/>
      </g>
     </g>
    </g>
    <g id="xtick_7">
     <g id="line2d_7">
      <g>
       <use xlink:href="#m74213346fe" x="404.51" y="390.04" style="stroke: #000000; stroke-width: 0.8"/>
      </g>
     </g>
     <g id="text_7">
      <!-- 1.5 -->
      <g transform="translate(396.558438 404.638438) scale(0.1 -0.1)">
       <use xlink:href="#DejaVuSans-31"/>
       <use xlink:href="#DejaVuSans-2e" x="63.623047"/>
       <use xlink:href="#DejaVuSans-35" x="95.410156"/>
      </g>
     </g>
    </g>
    <g id="text_8">
     <!-- Multiplier -->
     <g transform="translate(214.304531 418.316562) scale(0.1 -0.1)">
      <defs>
       <path id="DejaVuSans-4d" d="M 628 4666 
L 1569 4666 
L 2759 1491 
L 3956 4666 
L 4897 4666 
L 4897 0 
L 4281 0 
L 4281 4097 
L 3078 897 
L 2444 897 
L 1241 4097 
L 1241 0 
L 628 0 
L 628 4666 
z
" transform="scale(0.015625)"/>
       <path id="DejaVuSans-75" d="M 544 1381 
L 544 3500 
L 1119 3500 
L 1119 1403 
Q 1119 906 1312 657 
Q 1506 409 1894 409 
Q 2359 409 2629 706 
Q 2900 1003 2900 1516 
L 2900 3500 
L 3475 3500 
L 3475 0 
L 2900 0 
L 2900 538 
Q 2691 219 2414 64 
Q 2138 -91 1772 -91 
Q 1169 -91 856 284 
Q 544 659 544 1381 
z
M 1991 3584 
L 1991 3584 
z
" transform="scale(0.015625)"/>
       <path id="DejaVuSans-6c" d="M 603 4863 
L 1178 4863 
L 1178 0 
L 603 0 
L 603 4863 
z
" transform="scale(0.015625)"/>
       <path id="DejaVuSans-74" d="M 1172 4494 
L 1172 3500 
L 2356 3500 
L 2356 3053 
L 1172 3053 
L 1172 1153 
Q 1172 725 1289 603 
Q 1406 481 1766 481 
L 2356 481 
L 2356 0 
L 1766 0 
Q 1100 0 847 248 
Q 594 497 594 1153 
L 594 3053 
L 172 3053 
L 172 3500 
L 594 3500 
L 594 4494 
L 1172 4494 
z
" transform="scale(0.015625)"/>
       <path id="DejaVuSans-69" d="M 603 3500 
L 1178 3500 
L 1178 0 
L 603 0 
L 603 3500 
z
M 603 4863 
L 1178 4863 
L 1178 4134 
L 603 4134 
L 603 4863 
z
" transform="scale(0.015625)"/>
       <path id="DejaVuSans-70" d="M 1159 525 
L 1159 -1331 
L 581 -1331 
L 581 3500 
L 1159 3500 
L 1159 2969 
Q 1341 3281 1617 3432 
Q 1894 3584 2278 3584 
Q 2916 3584 3314 3078 
Q 3713 2572 3713 1747 
Q 3713 922 3314 415 
Q 2916 -91 2278 -91 
Q 1894 -91 1617 61 
Q 1341 213 1159 525 
z
M 3116 1747 
Q 3116 2381 2855 2742 
Q 2594 3103 2138 3103 
Q 1681 3103 1420 2742 
Q 1159 2381 1159 1747 
Q 1159 1113 1420 752 
Q 1681 391 2138 391 
Q 2594 391 2855 752 
Q 3116 1113 3116 1747 
z
" transform="scale(0.015625)"/>
       <path id="DejaVuSans-65" d="M 3597 1894 
L 3597 1613 
L 953 1613 
Q 991 1019 1311 708 
Q 1631 397 2203 397 
Q 2534 397 2845 478 
Q 3156 559 3463 722 
L 3463 178 
Q 3153 47 2828 -22 
Q 2503 -91 2169 -91 
Q 1331 -91 842 396 
Q 353 884 353 1716 
Q 353 2575 817 3079 
Q 1281 3584 2069 3584 
Q 2775 3584 3186 3129 
Q 3597 2675 3597 1894 
z
M 3022 2063 
Q 3016 2534 2758 2815 
Q 2500 3097 2075 3097 
Q 1594 3097 1305 2825 
Q 1016 2553 972 2059 
L 3022 2063 
z
" transform="scale(0.015625)"/>
       <path id="DejaVuSans-72" d="M 2631 2963 
Q 2534 3019 2420 3045 
Q 2306 3072 2169 3072 
Q 1681 3072 1420 2755 
Q 1159 2438 1159 1844 
L 1159 0 
L 581 0 
L 581 3500 
L 1159 3500 
L 1159 2956 
Q 1341 3275 1631 3429 
Q 1922 3584 2338 3584 
Q 2397 3584 2469 3576 
Q 2541 3569 2628 3553 
L 2631 2963 
z
" transform="scale(0.015625)"/>
      </defs>
      <use xlink:href="#DejaVuSans-4d"/>
      <use xlink:href="#DejaVuSans-75" x="86.279297"/>
      <use xlink:href="#DejaVuSans-6c" x="149.658203"/>
      <use xlink:href="#DejaVuSans-74" x="177.441406"/>
      <use xlink:href="#DejaVuSans-69" x="216.650391"/>
      <use xlink:href="#DejaVuSans-70" x="244.433594"/>
      <use xlink:href="#DejaVuSans-6c" x="307.910156"/>
      <use xlink:href="#DejaVuSans-69" x="335.693359"/>
      <use xlink:href="#DejaVuSans-65" x="363.476562"/>
      <use xlink:href="#DejaVuSans-72" x="425"/>
     </g>
    </g>
   </g>
   <g id="matplotlib.axis_2">
    <g id="ytick_1">
     <g id="line2d_8">
      <defs>
       <path id="m5b07e3463d" d="M 0 0 
L -3.5 0 
" style="stroke: #000000; stroke-width: 0.8"/>
      </defs>
      <g>
       <use xlink:href="#m5b07e3463d" x="54.02" y="344.53712" style="stroke: #000000; stroke-width: 0.8"/>
      </g>
     </g>
     <g id="text_9">
      <!-- 0.55 -->
      <g transform="translate(24.754375 348.336339) scale(0.1 -0.1)">
       <use xlink:href="#DejaVuSans-30"/>
       <use xlink:href="#DejaVuSans-2e" x="63.623047"/>
       <use xlink:href="#DejaVuSans-35" x="95.410156"/>
       <use xlink:href="#DejaVuSans-35" x="159.033203"/>
      </g>
     </g>
    </g>
    <g id="ytick_2">
     <g id="line2d_9">
      <g>
       <use xlink:href="#m5b07e3463d" x="54.02" y="287.759904" style="stroke: #000000; stroke-width: 0.8"/>
      </g>
     </g>
     <g id="text_10">
      <!-- 0.60 -->
      <g transform="translate(24.754375 291.559123) scale(0.1 -0.1)">
       <defs>
        <path id="DejaVuSans-36" d="M 2113 2584 
Q 1688 2584 1439 2293 
Q 1191 2003 1191 1497 
Q 1191 994 1439 701 
Q 1688 409 2113 409 
Q 2538 409 2786 701 
Q 3034 994 3034 1497 
Q 3034 2003 2786 2293 
Q 2538 2584 2113 2584 
z
M 3366 4563 
L 3366 3988 
Q 3128 4100 2886 4159 
Q 2644 4219 2406 4219 
Q 1781 4219 1451 3797 
Q 1122 3375 1075 2522 
Q 1259 2794 1537 2939 
Q 1816 3084 2150 3084 
Q 2853 3084 3261 2657 
Q 3669 2231 3669 1497 
Q 3669 778 3244 343 
Q 2819 -91 2113 -91 
Q 1303 -91 875 529 
Q 447 1150 447 2328 
Q 447 3434 972 4092 
Q 1497 4750 2381 4750 
Q 2619 4750 2861 4703 
Q 3103 4656 3366 4563 
z
" transform="scale(0.015625)"/>
       </defs>
       <use xlink:href="#DejaVuSans-30"/>
       <use xlink:href="#DejaVuSans-2e" x="63.623047"/>
       <use xlink:href="#DejaVuSans-36" x="95.410156"/>
       <use xlink:href="#DejaVuSans-30" x="159.033203"/>
      </g>
     </g>
    </g>
    <g id="ytick_3">
     <g id="line2d_10">
      <g>
       <use xlink:href="#m5b07e3463d" x="54.02" y="230.982688" style="stroke: #000000; stroke-width: 0.8"/>
      </g>
     </g>
     <g id="text_11">
      <!-- 0.65 -->
      <g transform="translate(24.754375 234.781906) scale(0.1 -0.1)">
       <use xlink:href="#DejaVuSans-30"/>
       <use xlink:href="#DejaVuSans-2e" x="63.623047"/>
       <use xlink:href="#DejaVuSans-36" x="95.410156"/>
       <use xlink:href="#DejaVuSans-35" x="159.033203"/>
      </g>
     </g>
    </g>
    <g id="ytick_4">
     <g id="line2d_11">
      <g>
       <use xlink:href="#m5b07e3463d" x="54.02" y="174.205471" style="stroke: #000000; stroke-width: 0.8"/>
      </g>
     </g>
     <g id="text_12">
      <!-- 0.70 -->
      <g transform="translate(24.754375 178.00469) scale(0.1 -0.1)">
       <defs>
        <path id="DejaVuSans-37" d="M 525 4666 
L 3525 4666 
L 3525 4397 
L 1831 0 
L 1172 0 
L 2766 4134 
L 525 4134 
L 525 4666 
z
" transform="scale(0.015625)"/>
       </defs>
       <use xlink:href="#DejaVuSans-30"/>
       <use xlink:href="#DejaVuSans-2e" x="63.623047"/>
       <use xlink:href="#DejaVuSans-37" x="95.410156"/>
       <use xlink:href="#DejaVuSans-30" x="159.033203"/>
      </g>
     </g>
    </g>
    <g id="ytick_5">
     <g id="line2d_12">
      <g>
       <use xlink:href="#m5b07e3463d" x="54.02" y="117.428255" style="stroke: #000000; stroke-width: 0.8"/>
      </g>
     </g>
     <g id="text_13">
      <!-- 0.75 -->
      <g transform="translate(24.754375 121.227473) scale(0.1 -0.1)">
       <use xlink:href="#DejaVuSans-30"/>
       <use xlink:href="#DejaVuSans-2e" x="63.623047"/>
       <use xlink:href="#DejaVuSans-37" x="95.410156"/>
       <use xlink:href="#DejaVuSans-35" x="159.033203"/>
      </g>
     </g>
    </g>
    <g id="ytick_6">
     <g id="line2d_13">
      <g>
       <use xlink:href="#m5b07e3463d" x="54.02" y="60.651038" style="stroke: #000000; stroke-width: 0.8"/>
      </g>
     </g>
     <g id="text_14">
      <!-- 0.80 -->
      <g transform="translate(24.754375 64.450257) scale(0.1 -0.1)">
       <defs>
        <path id="DejaVuSans-38" d="M 2034 2216 
Q 1584 2216 1326 1975 
Q 1069 1734 1069 1313 
Q 1069 891 1326 650 
Q 1584 409 2034 409 
Q 2484 409 2743 651 
Q 3003 894 3003 1313 
Q 3003 1734 2745 1975 
Q 2488 2216 2034 2216 
z
M 1403 2484 
Q 997 2584 770 2862 
Q 544 3141 544 3541 
Q 544 4100 942 4425 
Q 1341 4750 2034 4750 
Q 2731 4750 3128 4425 
Q 3525 4100 3525 3541 
Q 3525 3141 3298 2862 
Q 3072 2584 2669 2484 
Q 3125 2378 3379 2068 
Q 3634 1759 3634 1313 
Q 3634 634 3220 271 
Q 2806 -91 2034 -91 
Q 1263 -91 848 271 
Q 434 634 434 1313 
Q 434 1759 690 2068 
Q 947 2378 1403 2484 
z
M 1172 3481 
Q 1172 3119 1398 2916 
Q 1625 2713 2034 2713 
Q 2441 2713 2670 2916 
Q 2900 3119 2900 3481 
Q 2900 3844 2670 4047 
Q 2441 4250 2034 4250 
Q 1625 4250 1398 4047 
Q 1172 3844 1172 3481 
z
" transform="scale(0.015625)"/>
       </defs>
       <use xlink:href="#DejaVuSans-30"/>
       <use xlink:href="#DejaVuSans-2e" x="63.623047"/>
       <use xlink:href="#DejaVuSans-38" x="95.410156"/>
       <use xlink:href="#DejaVuSans-30" x="159.033203"/>
      </g>
     </g>
    </g>
    <g id="text_15">
     <!-- Probability of sycophantic answer to A/B question -->
     <g transform="translate(18.674688 324.464531) rotate(-90) scale(0.1 -0.1)">
      <defs>
       <path id="DejaVuSans-50" d="M 1259 4147 
L 1259 2394 
L 2053 2394 
Q 2494 2394 2734 2622 
Q 2975 2850 2975 3272 
Q 2975 3691 2734 3919 
Q 2494 4147 2053 4147 
L 1259 4147 
z
M 628 4666 
L 2053 4666 
Q 2838 4666 3239 4311 
Q 3641 3956 3641 3272 
Q 3641 2581 3239 2228 
Q 2838 1875 2053 1875 
L 1259 1875 
L 1259 0 
L 628 0 
L 628 4666 
z
" transform="scale(0.015625)"/>
       <path id="DejaVuSans-6f" d="M 1959 3097 
Q 1497 3097 1228 2736 
Q 959 2375 959 1747 
Q 959 1119 1226 758 
Q 1494 397 1959 397 
Q 2419 397 2687 759 
Q 2956 1122 2956 1747 
Q 2956 2369 2687 2733 
Q 2419 3097 1959 3097 
z
M 1959 3584 
Q 2709 3584 3137 3096 
Q 3566 2609 3566 1747 
Q 3566 888 3137 398 
Q 2709 -91 1959 -91 
Q 1206 -91 779 398 
Q 353 888 353 1747 
Q 353 2609 779 3096 
Q 1206 3584 1959 3584 
z
" transform="scale(0.015625)"/>
       <path id="DejaVuSans-62" d="M 3116 1747 
Q 3116 2381 2855 2742 
Q 2594 3103 2138 3103 
Q 1681 3103 1420 2742 
Q 1159 2381 1159 1747 
Q 1159 1113 1420 752 
Q 1681 391 2138 391 
Q 2594 391 2855 752 
Q 3116 1113 3116 1747 
z
M 1159 2969 
Q 1341 3281 1617 3432 
Q 1894 3584 2278 3584 
Q 2916 3584 3314 3078 
Q 3713 2572 3713 1747 
Q 3713 922 3314 415 
Q 2916 -91 2278 -91 
Q 1894 -91 1617 61 
Q 1341 213 1159 525 
L 1159 0 
L 581 0 
L 581 4863 
L 1159 4863 
L 1159 2969 
z
" transform="scale(0.015625)"/>
       <path id="DejaVuSans-61" d="M 2194 1759 
Q 1497 1759 1228 1600 
Q 959 1441 959 1056 
Q 959 750 1161 570 
Q 1363 391 1709 391 
Q 2188 391 2477 730 
Q 2766 1069 2766 1631 
L 2766 1759 
L 2194 1759 
z
M 3341 1997 
L 3341 0 
L 2766 0 
L 2766 531 
Q 2569 213 2275 61 
Q 1981 -91 1556 -91 
Q 1019 -91 701 211 
Q 384 513 384 1019 
Q 384 1609 779 1909 
Q 1175 2209 1959 2209 
L 2766 2209 
L 2766 2266 
Q 2766 2663 2505 2880 
Q 2244 3097 1772 3097 
Q 1472 3097 1187 3025 
Q 903 2953 641 2809 
L 641 3341 
Q 956 3463 1253 3523 
Q 1550 3584 1831 3584 
Q 2591 3584 2966 3190 
Q 3341 2797 3341 1997 
z
" transform="scale(0.015625)"/>
       <path id="DejaVuSans-79" d="M 2059 -325 
Q 1816 -950 1584 -1140 
Q 1353 -1331 966 -1331 
L 506 -1331 
L 506 -850 
L 844 -850 
Q 1081 -850 1212 -737 
Q 1344 -625 1503 -206 
L 1606 56 
L 191 3500 
L 800 3500 
L 1894 763 
L 2988 3500 
L 3597 3500 
L 2059 -325 
z
" transform="scale(0.015625)"/>
       <path id="DejaVuSans-20" transform="scale(0.015625)"/>
       <path id="DejaVuSans-66" d="M 2375 4863 
L 2375 4384 
L 1825 4384 
Q 1516 4384 1395 4259 
Q 1275 4134 1275 3809 
L 1275 3500 
L 2222 3500 
L 2222 3053 
L 1275 3053 
L 1275 0 
L 697 0 
L 697 3053 
L 147 3053 
L 147 3500 
L 697 3500 
L 697 3744 
Q 697 4328 969 4595 
Q 1241 4863 1831 4863 
L 2375 4863 
z
" transform="scale(0.015625)"/>
       <path id="DejaVuSans-73" d="M 2834 3397 
L 2834 2853 
Q 2591 2978 2328 3040 
Q 2066 3103 1784 3103 
Q 1356 3103 1142 2972 
Q 928 2841 928 2578 
Q 928 2378 1081 2264 
Q 1234 2150 1697 2047 
L 1894 2003 
Q 2506 1872 2764 1633 
Q 3022 1394 3022 966 
Q 3022 478 2636 193 
Q 2250 -91 1575 -91 
Q 1294 -91 989 -36 
Q 684 19 347 128 
L 347 722 
Q 666 556 975 473 
Q 1284 391 1588 391 
Q 1994 391 2212 530 
Q 2431 669 2431 922 
Q 2431 1156 2273 1281 
Q 2116 1406 1581 1522 
L 1381 1569 
Q 847 1681 609 1914 
Q 372 2147 372 2553 
Q 372 3047 722 3315 
Q 1072 3584 1716 3584 
Q 2034 3584 2315 3537 
Q 2597 3491 2834 3397 
z
" transform="scale(0.015625)"/>
       <path id="DejaVuSans-63" d="M 3122 3366 
L 3122 2828 
Q 2878 2963 2633 3030 
Q 2388 3097 2138 3097 
Q 1578 3097 1268 2742 
Q 959 2388 959 1747 
Q 959 1106 1268 751 
Q 1578 397 2138 397 
Q 2388 397 2633 464 
Q 2878 531 3122 666 
L 3122 134 
Q 2881 22 2623 -34 
Q 2366 -91 2075 -91 
Q 1284 -91 818 406 
Q 353 903 353 1747 
Q 353 2603 823 3093 
Q 1294 3584 2113 3584 
Q 2378 3584 2631 3529 
Q 2884 3475 3122 3366 
z
" transform="scale(0.015625)"/>
       <path id="DejaVuSans-68" d="M 3513 2113 
L 3513 0 
L 2938 0 
L 2938 2094 
Q 2938 2591 2744 2837 
Q 2550 3084 2163 3084 
Q 1697 3084 1428 2787 
Q 1159 2491 1159 1978 
L 1159 0 
L 581 0 
L 581 4863 
L 1159 4863 
L 1159 2956 
Q 1366 3272 1645 3428 
Q 1925 3584 2291 3584 
Q 2894 3584 3203 3211 
Q 3513 2838 3513 2113 
z
" transform="scale(0.015625)"/>
       <path id="DejaVuSans-6e" d="M 3513 2113 
L 3513 0 
L 2938 0 
L 2938 2094 
Q 2938 2591 2744 2837 
Q 2550 3084 2163 3084 
Q 1697 3084 1428 2787 
Q 1159 2491 1159 1978 
L 1159 0 
L 581 0 
L 581 3500 
L 1159 3500 
L 1159 2956 
Q 1366 3272 1645 3428 
Q 1925 3584 2291 3584 
Q 2894 3584 3203 3211 
Q 3513 2838 3513 2113 
z
" transform="scale(0.015625)"/>
       <path id="DejaVuSans-77" d="M 269 3500 
L 844 3500 
L 1563 769 
L 2278 3500 
L 2956 3500 
L 3675 769 
L 4391 3500 
L 4966 3500 
L 4050 0 
L 3372 0 
L 2619 2869 
L 1863 0 
L 1184 0 
L 269 3500 
z
" transform="scale(0.015625)"/>
       <path id="DejaVuSans-41" d="M 2188 4044 
L 1331 1722 
L 3047 1722 
L 2188 4044 
z
M 1831 4666 
L 2547 4666 
L 4325 0 
L 3669 0 
L 3244 1197 
L 1141 1197 
L 716 0 
L 50 0 
L 1831 4666 
z
" transform="scale(0.015625)"/>
       <path id="DejaVuSans-2f" d="M 1625 4666 
L 2156 4666 
L 531 -594 
L 0 -594 
L 1625 4666 
z
" transform="scale(0.015625)"/>
       <path id="DejaVuSans-42" d="M 1259 2228 
L 1259 519 
L 2272 519 
Q 2781 519 3026 730 
Q 3272 941 3272 1375 
Q 3272 1813 3026 2020 
Q 2781 2228 2272 2228 
L 1259 2228 
z
M 1259 4147 
L 1259 2741 
L 2194 2741 
Q 2656 2741 2882 2914 
Q 3109 3088 3109 3444 
Q 3109 3797 2882 3972 
Q 2656 4147 2194 4147 
L 1259 4147 
z
M 628 4666 
L 2241 4666 
Q 2963 4666 3353 4366 
Q 3744 4066 3744 3513 
Q 3744 3084 3544 2831 
Q 3344 2578 2956 2516 
Q 3422 2416 3680 2098 
Q 3938 1781 3938 1306 
Q 3938 681 3513 340 
Q 3088 0 2303 0 
L 628 0 
L 628 4666 
z
" transform="scale(0.015625)"/>
       <path id="DejaVuSans-71" d="M 947 1747 
Q 947 1113 1208 752 
Q 1469 391 1925 391 
Q 2381 391 2643 752 
Q 2906 1113 2906 1747 
Q 2906 2381 2643 2742 
Q 2381 3103 1925 3103 
Q 1469 3103 1208 2742 
Q 947 2381 947 1747 
z
M 2906 525 
Q 2725 213 2448 61 
Q 2172 -91 1784 -91 
Q 1150 -91 751 415 
Q 353 922 353 1747 
Q 353 2572 751 3078 
Q 1150 3584 1784 3584 
Q 2172 3584 2448 3432 
Q 2725 3281 2906 2969 
L 2906 3500 
L 3481 3500 
L 3481 -1331 
L 2906 -1331 
L 2906 525 
z
" transform="scale(0.015625)"/>
      </defs>
      <use xlink:href="#DejaVuSans-50"/>
      <use xlink:href="#DejaVuSans-72" x="58.552734"/>
      <use xlink:href="#DejaVuSans-6f" x="97.416016"/>
      <use xlink:href="#DejaVuSans-62" x="158.597656"/>
      <use xlink:href="#DejaVuSans-61" x="222.074219"/>
      <use xlink:href="#DejaVuSans-62" x="283.353516"/>
      <use xlink:href="#DejaVuSans-69" x="346.830078"/>
      <use xlink:href="#DejaVuSans-6c" x="374.613281"/>
      <use xlink:href="#DejaVuSans-69" x="402.396484"/>
      <use xlink:href="#DejaVuSans-74" x="430.179688"/>
      <use xlink:href="#DejaVuSans-79" x="469.388672"/>
      <use xlink:href="#DejaVuSans-20" x="528.568359"/>
      <use xlink:href="#DejaVuSans-6f" x="560.355469"/>
      <use xlink:href="#DejaVuSans-66" x="621.537109"/>
      <use xlink:href="#DejaVuSans-20" x="656.742188"/>
      <use xlink:href="#DejaVuSans-73" x="688.529297"/>
      <use xlink:href="#DejaVuSans-79" x="740.628906"/>
      <use xlink:href="#DejaVuSans-63" x="799.808594"/>
      <use xlink:href="#DejaVuSans-6f" x="854.789062"/>
      <use xlink:href="#DejaVuSans-70" x="915.970703"/>
      <use xlink:href="#DejaVuSans-68" x="979.447266"/>
      <use xlink:href="#DejaVuSans-61" x="1042.826172"/>
      <use xlink:href="#DejaVuSans-6e" x="1104.105469"/>
      <use xlink:href="#DejaVuSans-74" x="1167.484375"/>
      <use xlink:href="#DejaVuSans-69" x="1206.693359"/>
      <use xlink:href="#DejaVuSans-63" x="1234.476562"/>
      <use xlink:href="#DejaVuSans-20" x="1289.457031"/>
      <use xlink:href="#DejaVuSans-61" x="1321.244141"/>
      <use xlink:href="#DejaVuSans-6e" x="1382.523438"/>
      <use xlink:href="#DejaVuSans-73" x="1445.902344"/>
      <use xlink:href="#DejaVuSans-77" x="1498.001953"/>
      <use xlink:href="#DejaVuSans-65" x="1579.789062"/>
      <use xlink:href="#DejaVuSans-72" x="1641.3125"/>
      <use xlink:href="#DejaVuSans-20" x="1682.425781"/>
      <use xlink:href="#DejaVuSans-74" x="1714.212891"/>
      <use xlink:href="#DejaVuSans-6f" x="1753.421875"/>
      <use xlink:href="#DejaVuSans-20" x="1814.603516"/>
      <use xlink:href="#DejaVuSans-41" x="1846.390625"/>
      <use xlink:href="#DejaVuSans-2f" x="1914.798828"/>
      <use xlink:href="#DejaVuSans-42" x="1948.490234"/>
      <use xlink:href="#DejaVuSans-20" x="2017.09375"/>
      <use xlink:href="#DejaVuSans-71" x="2048.880859"/>
      <use xlink:href="#DejaVuSans-75" x="2112.357422"/>
      <use xlink:href="#DejaVuSans-65" x="2175.736328"/>
      <use xlink:href="#DejaVuSans-73" x="2237.259766"/>
      <use xlink:href="#DejaVuSans-74" x="2289.359375"/>
      <use xlink:href="#DejaVuSans-69" x="2328.568359"/>
      <use xlink:href="#DejaVuSans-6f" x="2356.351562"/>
      <use xlink:href="#DejaVuSans-6e" x="2417.533203"/>
     </g>
    </g>
   </g>
   <g id="line2d_14">
    <path d="M 70.71 372.801818 
L 126.343333 270.382506 
L 181.976667 148.920426 
L 237.61 36.551372 
L 293.243333 29.929137 
L 348.876667 61.431413 
L 404.51 76.532827 
" clip-path="url(#p2663c5d741)" style="fill: none; stroke-dasharray: 9.25,4; stroke-dashoffset: 0; stroke: #8000ff; stroke-width: 2.5"/>
    <defs>
     <path id="m9a0146b078" d="M 0 2.5 
C 0.663008 2.5 1.29895 2.236584 1.767767 1.767767 
C 2.236584 1.29895 2.5 0.663008 2.5 0 
C 2.5 -0.663008 2.236584 -1.29895 1.767767 -1.767767 
C 1.29895 -2.236584 0.663008 -2.5 0 -2.5 
C -0.663008 -2.5 -1.29895 -2.236584 -1.767767 -1.767767 
C -2.236584 -1.29895 -2.5 -0.663008 -2.5 0 
C -2.5 0.663008 -2.236584 1.29895 -1.767767 1.767767 
C -1.29895 2.236584 -0.663008 2.5 0 2.5 
z
" style="stroke: #8000ff"/>
    </defs>
    <g clip-path="url(#p2663c5d741)">
     <use xlink:href="#m9a0146b078" x="70.71" y="372.801818" style="fill: #8000ff; stroke: #8000ff"/>
     <use xlink:href="#m9a0146b078" x="126.343333" y="270.382506" style="fill: #8000ff; stroke: #8000ff"/>
     <use xlink:href="#m9a0146b078" x="181.976667" y="148.920426" style="fill: #8000ff; stroke: #8000ff"/>
     <use xlink:href="#m9a0146b078" x="237.61" y="36.551372" style="fill: #8000ff; stroke: #8000ff"/>
     <use xlink:href="#m9a0146b078" x="293.243333" y="29.929137" style="fill: #8000ff; stroke: #8000ff"/>
     <use xlink:href="#m9a0146b078" x="348.876667" y="61.431413" style="fill: #8000ff; stroke: #8000ff"/>
     <use xlink:href="#m9a0146b078" x="404.51" y="76.532827" style="fill: #8000ff; stroke: #8000ff"/>
    </g>
   </g>
   <g id="line2d_15">
    <path d="M 70.71 213.786116 
L 126.343333 165.067428 
L 181.976667 93.840026 
L 237.61 36.551372 
L 293.243333 30.197929 
L 348.876667 36.537585 
L 404.51 42.853952 
" clip-path="url(#p2663c5d741)" style="fill: none; stroke-dasharray: 9.25,4; stroke-dashoffset: 0; stroke: #4856fb; stroke-width: 2.5"/>
    <defs>
     <path id="m4c8b735e72" d="M 0 2.5 
C 0.663008 2.5 1.29895 2.236584 1.767767 1.767767 
C 2.236584 1.29895 2.5 0.663008 2.5 0 
C 2.5 -0.663008 2.236584 -1.29895 1.767767 -1.767767 
C 1.29895 -2.236584 0.663008 -2.5 0 -2.5 
C -0.663008 -2.5 -1.29895 -2.236584 -1.767767 -1.767767 
C -2.236584 -1.29895 -2.5 -0.663008 -2.5 0 
C -2.5 0.663008 -2.236584 1.29895 -1.767767 1.767767 
C -1.29895 2.236584 -0.663008 2.5 0 2.5 
z
" style="stroke: #4856fb"/>
    </defs>
    <g clip-path="url(#p2663c5d741)">
     <use xlink:href="#m4c8b735e72" x="70.71" y="213.786116" style="fill: #4856fb; stroke: #4856fb"/>
     <use xlink:href="#m4c8b735e72" x="126.343333" y="165.067428" style="fill: #4856fb; stroke: #4856fb"/>
     <use xlink:href="#m4c8b735e72" x="181.976667" y="93.840026" style="fill: #4856fb; stroke: #4856fb"/>
     <use xlink:href="#m4c8b735e72" x="237.61" y="36.551372" style="fill: #4856fb; stroke: #4856fb"/>
     <use xlink:href="#m4c8b735e72" x="293.243333" y="30.197929" style="fill: #4856fb; stroke: #4856fb"/>
     <use xlink:href="#m4c8b735e72" x="348.876667" y="36.537585" style="fill: #4856fb; stroke: #4856fb"/>
     <use xlink:href="#m4c8b735e72" x="404.51" y="42.853952" style="fill: #4856fb; stroke: #4856fb"/>
    </g>
   </g>
   <g id="line2d_16">
    <path d="M 70.71 151.723153 
L 126.343333 114.174339 
L 181.976667 68.719866 
L 237.61 36.551372 
L 293.243333 36.119208 
L 348.876667 61.352329 
L 404.51 110.810438 
" clip-path="url(#p2663c5d741)" style="fill: none; stroke-dasharray: 9.25,4; stroke-dashoffset: 0; stroke: #10a2f0; stroke-width: 2.5"/>
    <defs>
     <path id="mfa86cbaec0" d="M 0 2.5 
C 0.663008 2.5 1.29895 2.236584 1.767767 1.767767 
C 2.236584 1.29895 2.5 0.663008 2.5 0 
C 2.5 -0.663008 2.236584 -1.29895 1.767767 -1.767767 
C 1.29895 -2.236584 0.663008 -2.5 0 -2.5 
C -0.663008 -2.5 -1.29895 -2.236584 -1.767767 -1.767767 
C -2.236584 -1.29895 -2.5 -0.663008 -2.5 0 
C -2.5 0.663008 -2.236584 1.29895 -1.767767 1.767767 
C -1.29895 2.236584 -0.663008 2.5 0 2.5 
z
" style="stroke: #10a2f0"/>
    </defs>
    <g clip-path="url(#p2663c5d741)">
     <use xlink:href="#mfa86cbaec0" x="70.71" y="151.723153" style="fill: #10a2f0; stroke: #10a2f0"/>
     <use xlink:href="#mfa86cbaec0" x="126.343333" y="114.174339" style="fill: #10a2f0; stroke: #10a2f0"/>
     <use xlink:href="#mfa86cbaec0" x="181.976667" y="68.719866" style="fill: #10a2f0; stroke: #10a2f0"/>
     <use xlink:href="#mfa86cbaec0" x="237.61" y="36.551372" style="fill: #10a2f0; stroke: #10a2f0"/>
     <use xlink:href="#mfa86cbaec0" x="293.243333" y="36.119208" style="fill: #10a2f0; stroke: #10a2f0"/>
     <use xlink:href="#mfa86cbaec0" x="348.876667" y="61.352329" style="fill: #10a2f0; stroke: #10a2f0"/>
     <use xlink:href="#mfa86cbaec0" x="404.51" y="110.810438" style="fill: #10a2f0; stroke: #10a2f0"/>
    </g>
   </g>
   <g id="line2d_17">
    <path d="M 70.71 103.375488 
L 126.343333 78.047552 
L 181.976667 54.390512 
L 237.61 36.551372 
L 293.243333 31.231753 
L 348.876667 39.559522 
L 404.51 59.08138 
" clip-path="url(#p2663c5d741)" style="fill: none; stroke-dasharray: 9.25,4; stroke-dashoffset: 0; stroke: #2adddd; stroke-width: 2.5"/>
    <defs>
     <path id="ma9164d1388" d="M 0 2.5 
C 0.663008 2.5 1.29895 2.236584 1.767767 1.767767 
C 2.236584 1.29895 2.5 0.663008 2.5 0 
C 2.5 -0.663008 2.236584 -1.29895 1.767767 -1.767767 
C 1.29895 -2.236584 0.663008 -2.5 0 -2.5 
C -0.663008 -2.5 -1.29895 -2.236584 -1.767767 -1.767767 
C -2.236584 -1.29895 -2.5 -0.663008 -2.5 0 
C -2.5 0.663008 -2.236584 1.29895 -1.767767 1.767767 
C -1.29895 2.236584 -0.663008 2.5 0 2.5 
z
" style="stroke: #2adddd"/>
    </defs>
    <g clip-path="url(#p2663c5d741)">
     <use xlink:href="#ma9164d1388" x="70.71" y="103.375488" style="fill: #2adddd; stroke: #2adddd"/>
     <use xlink:href="#ma9164d1388" x="126.343333" y="78.047552" style="fill: #2adddd; stroke: #2adddd"/>
     <use xlink:href="#ma9164d1388" x="181.976667" y="54.390512" style="fill: #2adddd; stroke: #2adddd"/>
     <use xlink:href="#ma9164d1388" x="237.61" y="36.551372" style="fill: #2adddd; stroke: #2adddd"/>
     <use xlink:href="#ma9164d1388" x="293.243333" y="31.231753" style="fill: #2adddd; stroke: #2adddd"/>
     <use xlink:href="#ma9164d1388" x="348.876667" y="39.559522" style="fill: #2adddd; stroke: #2adddd"/>
     <use xlink:href="#ma9164d1388" x="404.51" y="59.08138" style="fill: #2adddd; stroke: #2adddd"/>
    </g>
   </g>
   <g id="line2d_18">
    <path d="M 70.71 98.148307 
L 126.343333 75.043073 
L 181.976667 54.320274 
L 237.61 36.551372 
L 293.243333 29.089742 
L 348.876667 37.43231 
L 404.51 60.014174 
" clip-path="url(#p2663c5d741)" style="fill: none; stroke-dasharray: 9.25,4; stroke-dashoffset: 0; stroke: #62fbc4; stroke-width: 2.5"/>
    <defs>
     <path id="m752eb2821c" d="M 0 2.5 
C 0.663008 2.5 1.29895 2.236584 1.767767 1.767767 
C 2.236584 1.29895 2.5 0.663008 2.5 0 
C 2.5 -0.663008 2.236584 -1.29895 1.767767 -1.767767 
C 1.29895 -2.236584 0.663008 -2.5 0 -2.5 
C -0.663008 -2.5 -1.29895 -2.236584 -1.767767 -1.767767 
C -2.236584 -1.29895 -2.5 -0.663008 -2.5 0 
C -2.5 0.663008 -2.236584 1.29895 -1.767767 1.767767 
C -1.29895 2.236584 -0.663008 2.5 0 2.5 
z
" style="stroke: #62fbc4"/>
    </defs>
    <g clip-path="url(#p2663c5d741)">
     <use xlink:href="#m752eb2821c" x="70.71" y="98.148307" style="fill: #62fbc4; stroke: #62fbc4"/>
     <use xlink:href="#m752eb2821c" x="126.343333" y="75.043073" style="fill: #62fbc4; stroke: #62fbc4"/>
     <use xlink:href="#m752eb2821c" x="181.976667" y="54.320274" style="fill: #62fbc4; stroke: #62fbc4"/>
     <use xlink:href="#m752eb2821c" x="237.61" y="36.551372" style="fill: #62fbc4; stroke: #62fbc4"/>
     <use xlink:href="#m752eb2821c" x="293.243333" y="29.089742" style="fill: #62fbc4; stroke: #62fbc4"/>
     <use xlink:href="#m752eb2821c" x="348.876667" y="37.43231" style="fill: #62fbc4; stroke: #62fbc4"/>
     <use xlink:href="#m752eb2821c" x="404.51" y="60.014174" style="fill: #62fbc4; stroke: #62fbc4"/>
    </g>
   </g>
   <g id="line2d_19">
    <path d="M 70.71 58.044537 
L 126.343333 50.391526 
L 181.976667 42.981822 
L 237.61 36.551372 
L 293.243333 31.790302 
L 348.876667 29.288114 
L 404.51 28.839676 
" clip-path="url(#p2663c5d741)" style="fill: none; stroke-dasharray: 9.25,4; stroke-dashoffset: 0; stroke: #9cfba4; stroke-width: 2.5"/>
    <defs>
     <path id="m980d317234" d="M 0 2.5 
C 0.663008 2.5 1.29895 2.236584 1.767767 1.767767 
C 2.236584 1.29895 2.5 0.663008 2.5 0 
C 2.5 -0.663008 2.236584 -1.29895 1.767767 -1.767767 
C 1.29895 -2.236584 0.663008 -2.5 0 -2.5 
C -0.663008 -2.5 -1.29895 -2.236584 -1.767767 -1.767767 
C -2.236584 -1.29895 -2.5 -0.663008 -2.5 0 
C -2.5 0.663008 -2.236584 1.29895 -1.767767 1.767767 
C -1.29895 2.236584 -0.663008 2.5 0 2.5 
z
" style="stroke: #9cfba4"/>
    </defs>
    <g clip-path="url(#p2663c5d741)">
     <use xlink:href="#m980d317234" x="70.71" y="58.044537" style="fill: #9cfba4; stroke: #9cfba4"/>
     <use xlink:href="#m980d317234" x="126.343333" y="50.391526" style="fill: #9cfba4; stroke: #9cfba4"/>
     <use xlink:href="#m980d317234" x="181.976667" y="42.981822" style="fill: #9cfba4; stroke: #9cfba4"/>
     <use xlink:href="#m980d317234" x="237.61" y="36.551372" style="fill: #9cfba4; stroke: #9cfba4"/>
     <use xlink:href="#m980d317234" x="293.243333" y="31.790302" style="fill: #9cfba4; stroke: #9cfba4"/>
     <use xlink:href="#m980d317234" x="348.876667" y="29.288114" style="fill: #9cfba4; stroke: #9cfba4"/>
     <use xlink:href="#m980d317234" x="404.51" y="28.839676" style="fill: #9cfba4; stroke: #9cfba4"/>
    </g>
   </g>
   <g id="line2d_20">
    <path d="M 70.71 50.124884 
L 126.343333 46.052135 
L 181.976667 41.410296 
L 237.61 36.551372 
L 293.243333 32.3646 
L 348.876667 29.631688 
L 404.51 29.261878 
" clip-path="url(#p2663c5d741)" style="fill: none; stroke-dasharray: 9.25,4; stroke-dashoffset: 0; stroke: #d4dd80; stroke-width: 2.5"/>
    <defs>
     <path id="mce17a218d2" d="M 0 2.5 
C 0.663008 2.5 1.29895 2.236584 1.767767 1.767767 
C 2.236584 1.29895 2.5 0.663008 2.5 0 
C 2.5 -0.663008 2.236584 -1.29895 1.767767 -1.767767 
C 1.29895 -2.236584 0.663008 -2.5 0 -2.5 
C -0.663008 -2.5 -1.29895 -2.236584 -1.767767 -1.767767 
C -2.236584 -1.29895 -2.5 -0.663008 -2.5 0 
C -2.5 0.663008 -2.236584 1.29895 -1.767767 1.767767 
C -1.29895 2.236584 -0.663008 2.5 0 2.5 
z
" style="stroke: #d4dd80"/>
    </defs>
    <g clip-path="url(#p2663c5d741)">
     <use xlink:href="#mce17a218d2" x="70.71" y="50.124884" style="fill: #d4dd80; stroke: #d4dd80"/>
     <use xlink:href="#mce17a218d2" x="126.343333" y="46.052135" style="fill: #d4dd80; stroke: #d4dd80"/>
     <use xlink:href="#mce17a218d2" x="181.976667" y="41.410296" style="fill: #d4dd80; stroke: #d4dd80"/>
     <use xlink:href="#mce17a218d2" x="237.61" y="36.551372" style="fill: #d4dd80; stroke: #d4dd80"/>
     <use xlink:href="#mce17a218d2" x="293.243333" y="32.3646" style="fill: #d4dd80; stroke: #d4dd80"/>
     <use xlink:href="#mce17a218d2" x="348.876667" y="29.631688" style="fill: #d4dd80; stroke: #d4dd80"/>
     <use xlink:href="#mce17a218d2" x="404.51" y="29.261878" style="fill: #d4dd80; stroke: #d4dd80"/>
    </g>
   </g>
   <g id="line2d_21">
    <path d="M 70.71 43.172891 
L 126.343333 41.352527 
L 181.976667 39.101678 
L 237.61 36.551372 
L 293.243333 33.693464 
L 348.876667 31.249727 
L 404.51 29.434895 
" clip-path="url(#p2663c5d741)" style="fill: none; stroke-dasharray: 9.25,4; stroke-dashoffset: 0; stroke: #ffa256; stroke-width: 2.5"/>
    <defs>
     <path id="me237b29c7d" d="M 0 2.5 
C 0.663008 2.5 1.29895 2.236584 1.767767 1.767767 
C 2.236584 1.29895 2.5 0.663008 2.5 0 
C 2.5 -0.663008 2.236584 -1.29895 1.767767 -1.767767 
C 1.29895 -2.236584 0.663008 -2.5 0 -2.5 
C -0.663008 -2.5 -1.29895 -2.236584 -1.767767 -1.767767 
C -2.236584 -1.29895 -2.5 -0.663008 -2.5 0 
C -2.5 0.663008 -2.236584 1.29895 -1.767767 1.767767 
C -1.29895 2.236584 -0.663008 2.5 0 2.5 
z
" style="stroke: #ffa256"/>
    </defs>
    <g clip-path="url(#p2663c5d741)">
     <use xlink:href="#me237b29c7d" x="70.71" y="43.172891" style="fill: #ffa256; stroke: #ffa256"/>
     <use xlink:href="#me237b29c7d" x="126.343333" y="41.352527" style="fill: #ffa256; stroke: #ffa256"/>
     <use xlink:href="#me237b29c7d" x="181.976667" y="39.101678" style="fill: #ffa256; stroke: #ffa256"/>
     <use xlink:href="#me237b29c7d" x="237.61" y="36.551372" style="fill: #ffa256; stroke: #ffa256"/>
     <use xlink:href="#me237b29c7d" x="293.243333" y="33.693464" style="fill: #ffa256; stroke: #ffa256"/>
     <use xlink:href="#me237b29c7d" x="348.876667" y="31.249727" style="fill: #ffa256; stroke: #ffa256"/>
     <use xlink:href="#me237b29c7d" x="404.51" y="29.434895" style="fill: #ffa256; stroke: #ffa256"/>
    </g>
   </g>
   <g id="line2d_22">
    <path d="M 70.71 41.678591 
L 126.343333 40.633083 
L 181.976667 38.775193 
L 237.61 36.551372 
L 293.243333 33.427092 
L 348.876667 30.744907 
L 404.51 28.038182 
" clip-path="url(#p2663c5d741)" style="fill: none; stroke-dasharray: 9.25,4; stroke-dashoffset: 0; stroke: #ff562c; stroke-width: 2.5"/>
    <defs>
     <path id="mcce42002df" d="M 0 2.5 
C 0.663008 2.5 1.29895 2.236584 1.767767 1.767767 
C 2.236584 1.29895 2.5 0.663008 2.5 0 
C 2.5 -0.663008 2.236584 -1.29895 1.767767 -1.767767 
C 1.29895 -2.236584 0.663008 -2.5 0 -2.5 
C -0.663008 -2.5 -1.29895 -2.236584 -1.767767 -1.767767 
C -2.236584 -1.29895 -2.5 -0.663008 -2.5 0 
C -2.5 0.663008 -2.236584 1.29895 -1.767767 1.767767 
C -1.29895 2.236584 -0.663008 2.5 0 2.5 
z
" style="stroke: #ff562c"/>
    </defs>
    <g clip-path="url(#p2663c5d741)">
     <use xlink:href="#mcce42002df" x="70.71" y="41.678591" style="fill: #ff562c; stroke: #ff562c"/>
     <use xlink:href="#mcce42002df" x="126.343333" y="40.633083" style="fill: #ff562c; stroke: #ff562c"/>
     <use xlink:href="#mcce42002df" x="181.976667" y="38.775193" style="fill: #ff562c; stroke: #ff562c"/>
     <use xlink:href="#mcce42002df" x="237.61" y="36.551372" style="fill: #ff562c; stroke: #ff562c"/>
     <use xlink:href="#mcce42002df" x="293.243333" y="33.427092" style="fill: #ff562c; stroke: #ff562c"/>
     <use xlink:href="#mcce42002df" x="348.876667" y="30.744907" style="fill: #ff562c; stroke: #ff562c"/>
     <use xlink:href="#mcce42002df" x="404.51" y="28.038182" style="fill: #ff562c; stroke: #ff562c"/>
    </g>
   </g>
   <g id="line2d_23">
    <path d="M 70.71 43.101653 
L 126.343333 40.710342 
L 181.976667 38.477616 
L 237.61 36.551372 
L 293.243333 34.597162 
L 348.876667 33.148227 
L 404.51 31.922579 
" clip-path="url(#p2663c5d741)" style="fill: none; stroke-dasharray: 9.25,4; stroke-dashoffset: 0; stroke: #ff0000; stroke-width: 2.5"/>
    <defs>
     <path id="me7ed55a929" d="M 0 2.5 
C 0.663008 2.5 1.29895 2.236584 1.767767 1.767767 
C 2.236584 1.29895 2.5 0.663008 2.5 0 
C 2.5 -0.663008 2.236584 -1.29895 1.767767 -1.767767 
C 1.29895 -2.236584 0.663008 -2.5 0 -2.5 
C -0.663008 -2.5 -1.29895 -2.236584 -1.767767 -1.767767 
C -2.236584 -1.29895 -2.5 -0.663008 -2.5 0 
C -2.5 0.663008 -2.236584 1.29895 -1.767767 1.767767 
C -1.29895 2.236584 -0.663008 2.5 0 2.5 
z
" style="stroke: #ff0000"/>
    </defs>
    <g clip-path="url(#p2663c5d741)">
     <use xlink:href="#me7ed55a929" x="70.71" y="43.101653" style="fill: #ff0000; stroke: #ff0000"/>
     <use xlink:href="#me7ed55a929" x="126.343333" y="40.710342" style="fill: #ff0000; stroke: #ff0000"/>
     <use xlink:href="#me7ed55a929" x="181.976667" y="38.477616" style="fill: #ff0000; stroke: #ff0000"/>
     <use xlink:href="#me7ed55a929" x="237.61" y="36.551372" style="fill: #ff0000; stroke: #ff0000"/>
     <use xlink:href="#me7ed55a929" x="293.243333" y="34.597162" style="fill: #ff0000; stroke: #ff0000"/>
     <use xlink:href="#me7ed55a929" x="348.876667" y="33.148227" style="fill: #ff0000; stroke: #ff0000"/>
     <use xlink:href="#me7ed55a929" x="404.51" y="31.922579" style="fill: #ff0000; stroke: #ff0000"/>
    </g>
   </g>
   <g id="patch_3">
    <path d="M 54.02 390.04 
L 54.02 10.8 
" style="fill: none; stroke: #000000; stroke-width: 0.8; stroke-linejoin: miter; stroke-linecap: square"/>
   </g>
   <g id="patch_4">
    <path d="M 421.2 390.04 
L 421.2 10.8 
" style="fill: none; stroke: #000000; stroke-width: 0.8; stroke-linejoin: miter; stroke-linecap: square"/>
   </g>
   <g id="patch_5">
    <path d="M 54.02 390.04 
L 421.2 390.04 
" style="fill: none; stroke: #000000; stroke-width: 0.8; stroke-linejoin: miter; stroke-linecap: square"/>
   </g>
   <g id="patch_6">
    <path d="M 54.02 10.8 
L 421.2 10.8 
" style="fill: none; stroke: #000000; stroke-width: 0.8; stroke-linejoin: miter; stroke-linecap: square"/>
   </g>
   <g id="legend_1">
    <g id="patch_7">
     <path d="M 338.414063 385.04 
L 414.2 385.04 
Q 416.2 385.04 416.2 383.04 
L 416.2 237.25875 
Q 416.2 235.25875 414.2 235.25875 
L 338.414063 235.25875 
Q 336.414063 235.25875 336.414063 237.25875 
L 336.414063 383.04 
Q 336.414063 385.04 338.414063 385.04 
z
" style="fill: #ffffff; opacity: 0.8; stroke: #cccccc; stroke-linejoin: miter"/>
    </g>
    <g id="line2d_24">
     <path d="M 340.414063 243.357188 
L 350.414063 243.357188 
L 360.414063 243.357188 
" style="fill: none; stroke-dasharray: 9.25,4; stroke-dashoffset: 0; stroke: #8000ff; stroke-width: 2.5"/>
     <g>
      <use xlink:href="#m9a0146b078" x="350.414063" y="243.357188" style="fill: #8000ff; stroke: #8000ff"/>
     </g>
    </g>
    <g id="text_16">
     <!-- Layer 13 -->
     <g transform="translate(368.414063 246.857188) scale(0.1 -0.1)">
      <defs>
       <path id="DejaVuSans-4c" d="M 628 4666 
L 1259 4666 
L 1259 531 
L 3531 531 
L 3531 0 
L 628 0 
L 628 4666 
z
" transform="scale(0.015625)"/>
       <path id="DejaVuSans-33" d="M 2597 2516 
Q 3050 2419 3304 2112 
Q 3559 1806 3559 1356 
Q 3559 666 3084 287 
Q 2609 -91 1734 -91 
Q 1441 -91 1130 -33 
Q 819 25 488 141 
L 488 750 
Q 750 597 1062 519 
Q 1375 441 1716 441 
Q 2309 441 2620 675 
Q 2931 909 2931 1356 
Q 2931 1769 2642 2001 
Q 2353 2234 1838 2234 
L 1294 2234 
L 1294 2753 
L 1863 2753 
Q 2328 2753 2575 2939 
Q 2822 3125 2822 3475 
Q 2822 3834 2567 4026 
Q 2313 4219 1838 4219 
Q 1578 4219 1281 4162 
Q 984 4106 628 3988 
L 628 4550 
Q 988 4650 1302 4700 
Q 1616 4750 1894 4750 
Q 2613 4750 3031 4423 
Q 3450 4097 3450 3541 
Q 3450 3153 3228 2886 
Q 3006 2619 2597 2516 
z
" transform="scale(0.015625)"/>
      </defs>
      <use xlink:href="#DejaVuSans-4c"/>
      <use xlink:href="#DejaVuSans-61" x="55.712891"/>
      <use xlink:href="#DejaVuSans-79" x="116.992188"/>
      <use xlink:href="#DejaVuSans-65" x="176.171875"/>
      <use xlink:href="#DejaVuSans-72" x="237.695312"/>
      <use xlink:href="#DejaVuSans-20" x="278.808594"/>
      <use xlink:href="#DejaVuSans-31" x="310.595703"/>
      <use xlink:href="#DejaVuSans-33" x="374.21875"/>
     </g>
    </g>
    <g id="line2d_25">
     <path d="M 340.414063 258.035313 
L 350.414063 258.035313 
L 360.414063 258.035313 
" style="fill: none; stroke-dasharray: 9.25,4; stroke-dashoffset: 0; stroke: #4856fb; stroke-width: 2.5"/>
     <g>
      <use xlink:href="#m4c8b735e72" x="350.414063" y="258.035313" style="fill: #4856fb; stroke: #4856fb"/>
     </g>
    </g>
    <g id="text_17">
     <!-- Layer 14 -->
     <g transform="translate(368.414063 261.535313) scale(0.1 -0.1)">
      <defs>
       <path id="DejaVuSans-34" d="M 2419 4116 
L 825 1625 
L 2419 1625 
L 2419 4116 
z
M 2253 4666 
L 3047 4666 
L 3047 1625 
L 3713 1625 
L 3713 1100 
L 3047 1100 
L 3047 0 
L 2419 0 
L 2419 1100 
L 313 1100 
L 313 1709 
L 2253 4666 
z
" transform="scale(0.015625)"/>
      </defs>
      <use xlink:href="#DejaVuSans-4c"/>
      <use xlink:href="#DejaVuSans-61" x="55.712891"/>
      <use xlink:href="#DejaVuSans-79" x="116.992188"/>
      <use xlink:href="#DejaVuSans-65" x="176.171875"/>
      <use xlink:href="#DejaVuSans-72" x="237.695312"/>
      <use xlink:href="#DejaVuSans-20" x="278.808594"/>
      <use xlink:href="#DejaVuSans-31" x="310.595703"/>
      <use xlink:href="#DejaVuSans-34" x="374.21875"/>
     </g>
    </g>
    <g id="line2d_26">
     <path d="M 340.414063 272.713438 
L 350.414063 272.713438 
L 360.414063 272.713438 
" style="fill: none; stroke-dasharray: 9.25,4; stroke-dashoffset: 0; stroke: #10a2f0; stroke-width: 2.5"/>
     <g>
      <use xlink:href="#mfa86cbaec0" x="350.414063" y="272.713438" style="fill: #10a2f0; stroke: #10a2f0"/>
     </g>
    </g>
    <g id="text_18">
     <!-- Layer 15 -->
     <g transform="translate(368.414063 276.213438) scale(0.1 -0.1)">
      <use xlink:href="#DejaVuSans-4c"/>
      <use xlink:href="#DejaVuSans-61" x="55.712891"/>
      <use xlink:href="#DejaVuSans-79" x="116.992188"/>
      <use xlink:href="#DejaVuSans-65" x="176.171875"/>
      <use xlink:href="#DejaVuSans-72" x="237.695312"/>
      <use xlink:href="#DejaVuSans-20" x="278.808594"/>
      <use xlink:href="#DejaVuSans-31" x="310.595703"/>
      <use xlink:href="#DejaVuSans-35" x="374.21875"/>
     </g>
    </g>
    <g id="line2d_27">
     <path d="M 340.414063 287.391563 
L 350.414063 287.391563 
L 360.414063 287.391563 
" style="fill: none; stroke-dasharray: 9.25,4; stroke-dashoffset: 0; stroke: #2adddd; stroke-width: 2.5"/>
     <g>
      <use xlink:href="#ma9164d1388" x="350.414063" y="287.391563" style="fill: #2adddd; stroke: #2adddd"/>
     </g>
    </g>
    <g id="text_19">
     <!-- Layer 16 -->
     <g transform="translate(368.414063 290.891563) scale(0.1 -0.1)">
      <use xlink:href="#DejaVuSans-4c"/>
      <use xlink:href="#DejaVuSans-61" x="55.712891"/>
      <use xlink:href="#DejaVuSans-79" x="116.992188"/>
      <use xlink:href="#DejaVuSans-65" x="176.171875"/>
      <use xlink:href="#DejaVuSans-72" x="237.695312"/>
      <use xlink:href="#DejaVuSans-20" x="278.808594"/>
      <use xlink:href="#DejaVuSans-31" x="310.595703"/>
      <use xlink:href="#DejaVuSans-36" x="374.21875"/>
     </g>
    </g>
    <g id="line2d_28">
     <path d="M 340.414063 302.069688 
L 350.414063 302.069688 
L 360.414063 302.069688 
" style="fill: none; stroke-dasharray: 9.25,4; stroke-dashoffset: 0; stroke: #62fbc4; stroke-width: 2.5"/>
     <g>
      <use xlink:href="#m752eb2821c" x="350.414063" y="302.069688" style="fill: #62fbc4; stroke: #62fbc4"/>
     </g>
    </g>
    <g id="text_20">
     <!-- Layer 17 -->
     <g transform="translate(368.414063 305.569688) scale(0.1 -0.1)">
      <use xlink:href="#DejaVuSans-4c"/>
      <use xlink:href="#DejaVuSans-61" x="55.712891"/>
      <use xlink:href="#DejaVuSans-79" x="116.992188"/>
      <use xlink:href="#DejaVuSans-65" x="176.171875"/>
      <use xlink:href="#DejaVuSans-72" x="237.695312"/>
      <use xlink:href="#DejaVuSans-20" x="278.808594"/>
      <use xlink:href="#DejaVuSans-31" x="310.595703"/>
      <use xlink:href="#DejaVuSans-37" x="374.21875"/>
     </g>
    </g>
    <g id="line2d_29">
     <path d="M 340.414063 316.747813 
L 350.414063 316.747813 
L 360.414063 316.747813 
" style="fill: none; stroke-dasharray: 9.25,4; stroke-dashoffset: 0; stroke: #9cfba4; stroke-width: 2.5"/>
     <g>
      <use xlink:href="#m980d317234" x="350.414063" y="316.747813" style="fill: #9cfba4; stroke: #9cfba4"/>
     </g>
    </g>
    <g id="text_21">
     <!-- Layer 18 -->
     <g transform="translate(368.414063 320.247813) scale(0.1 -0.1)">
      <use xlink:href="#DejaVuSans-4c"/>
      <use xlink:href="#DejaVuSans-61" x="55.712891"/>
      <use xlink:href="#DejaVuSans-79" x="116.992188"/>
      <use xlink:href="#DejaVuSans-65" x="176.171875"/>
      <use xlink:href="#DejaVuSans-72" x="237.695312"/>
      <use xlink:href="#DejaVuSans-20" x="278.808594"/>
      <use xlink:href="#DejaVuSans-31" x="310.595703"/>
      <use xlink:href="#DejaVuSans-38" x="374.21875"/>
     </g>
    </g>
    <g id="line2d_30">
     <path d="M 340.414063 331.425938 
L 350.414063 331.425938 
L 360.414063 331.425938 
" style="fill: none; stroke-dasharray: 9.25,4; stroke-dashoffset: 0; stroke: #d4dd80; stroke-width: 2.5"/>
     <g>
      <use xlink:href="#mce17a218d2" x="350.414063" y="331.425938" style="fill: #d4dd80; stroke: #d4dd80"/>
     </g>
    </g>
    <g id="text_22">
     <!-- Layer 19 -->
     <g transform="translate(368.414063 334.925938) scale(0.1 -0.1)">
      <defs>
       <path id="DejaVuSans-39" d="M 703 97 
L 703 672 
Q 941 559 1184 500 
Q 1428 441 1663 441 
Q 2288 441 2617 861 
Q 2947 1281 2994 2138 
Q 2813 1869 2534 1725 
Q 2256 1581 1919 1581 
Q 1219 1581 811 2004 
Q 403 2428 403 3163 
Q 403 3881 828 4315 
Q 1253 4750 1959 4750 
Q 2769 4750 3195 4129 
Q 3622 3509 3622 2328 
Q 3622 1225 3098 567 
Q 2575 -91 1691 -91 
Q 1453 -91 1209 -44 
Q 966 3 703 97 
z
M 1959 2075 
Q 2384 2075 2632 2365 
Q 2881 2656 2881 3163 
Q 2881 3666 2632 3958 
Q 2384 4250 1959 4250 
Q 1534 4250 1286 3958 
Q 1038 3666 1038 3163 
Q 1038 2656 1286 2365 
Q 1534 2075 1959 2075 
z
" transform="scale(0.015625)"/>
      </defs>
      <use xlink:href="#DejaVuSans-4c"/>
      <use xlink:href="#DejaVuSans-61" x="55.712891"/>
      <use xlink:href="#DejaVuSans-79" x="116.992188"/>
      <use xlink:href="#DejaVuSans-65" x="176.171875"/>
      <use xlink:href="#DejaVuSans-72" x="237.695312"/>
      <use xlink:href="#DejaVuSans-20" x="278.808594"/>
      <use xlink:href="#DejaVuSans-31" x="310.595703"/>
      <use xlink:href="#DejaVuSans-39" x="374.21875"/>
     </g>
    </g>
    <g id="line2d_31">
     <path d="M 340.414063 346.104062 
L 350.414063 346.104062 
L 360.414063 346.104062 
" style="fill: none; stroke-dasharray: 9.25,4; stroke-dashoffset: 0; stroke: #ffa256; stroke-width: 2.5"/>
     <g>
      <use xlink:href="#me237b29c7d" x="350.414063" y="346.104062" style="fill: #ffa256; stroke: #ffa256"/>
     </g>
    </g>
    <g id="text_23">
     <!-- Layer 20 -->
     <g transform="translate(368.414063 349.604062) scale(0.1 -0.1)">
      <defs>
       <path id="DejaVuSans-32" d="M 1228 531 
L 3431 531 
L 3431 0 
L 469 0 
L 469 531 
Q 828 903 1448 1529 
Q 2069 2156 2228 2338 
Q 2531 2678 2651 2914 
Q 2772 3150 2772 3378 
Q 2772 3750 2511 3984 
Q 2250 4219 1831 4219 
Q 1534 4219 1204 4116 
Q 875 4013 500 3803 
L 500 4441 
Q 881 4594 1212 4672 
Q 1544 4750 1819 4750 
Q 2544 4750 2975 4387 
Q 3406 4025 3406 3419 
Q 3406 3131 3298 2873 
Q 3191 2616 2906 2266 
Q 2828 2175 2409 1742 
Q 1991 1309 1228 531 
z
" transform="scale(0.015625)"/>
      </defs>
      <use xlink:href="#DejaVuSans-4c"/>
      <use xlink:href="#DejaVuSans-61" x="55.712891"/>
      <use xlink:href="#DejaVuSans-79" x="116.992188"/>
      <use xlink:href="#DejaVuSans-65" x="176.171875"/>
      <use xlink:href="#DejaVuSans-72" x="237.695312"/>
      <use xlink:href="#DejaVuSans-20" x="278.808594"/>
      <use xlink:href="#DejaVuSans-32" x="310.595703"/>
      <use xlink:href="#DejaVuSans-30" x="374.21875"/>
     </g>
    </g>
    <g id="line2d_32">
     <path d="M 340.414063 360.782188 
L 350.414063 360.782188 
L 360.414063 360.782188 
" style="fill: none; stroke-dasharray: 9.25,4; stroke-dashoffset: 0; stroke: #ff562c; stroke-width: 2.5"/>
     <g>
      <use xlink:href="#mcce42002df" x="350.414063" y="360.782188" style="fill: #ff562c; stroke: #ff562c"/>
     </g>
    </g>
    <g id="text_24">
     <!-- Layer 21 -->
     <g transform="translate(368.414063 364.282188) scale(0.1 -0.1)">
      <use xlink:href="#DejaVuSans-4c"/>
      <use xlink:href="#DejaVuSans-61" x="55.712891"/>
      <use xlink:href="#DejaVuSans-79" x="116.992188"/>
      <use xlink:href="#DejaVuSans-65" x="176.171875"/>
      <use xlink:href="#DejaVuSans-72" x="237.695312"/>
      <use xlink:href="#DejaVuSans-20" x="278.808594"/>
      <use xlink:href="#DejaVuSans-32" x="310.595703"/>
      <use xlink:href="#DejaVuSans-31" x="374.21875"/>
     </g>
    </g>
    <g id="line2d_33">
     <path d="M 340.414063 375.460312 
L 350.414063 375.460312 
L 360.414063 375.460312 
" style="fill: none; stroke-dasharray: 9.25,4; stroke-dashoffset: 0; stroke: #ff0000; stroke-width: 2.5"/>
     <g>
      <use xlink:href="#me7ed55a929" x="350.414063" y="375.460312" style="fill: #ff0000; stroke: #ff0000"/>
     </g>
    </g>
    <g id="text_25">
     <!-- Layer 22 -->
     <g transform="translate(368.414063 378.960312) scale(0.1 -0.1)">
      <use xlink:href="#DejaVuSans-4c"/>
      <use xlink:href="#DejaVuSans-61" x="55.712891"/>
      <use xlink:href="#DejaVuSans-79" x="116.992188"/>
      <use xlink:href="#DejaVuSans-65" x="176.171875"/>
      <use xlink:href="#DejaVuSans-72" x="237.695312"/>
      <use xlink:href="#DejaVuSans-20" x="278.808594"/>
      <use xlink:href="#DejaVuSans-32" x="310.595703"/>
      <use xlink:href="#DejaVuSans-32" x="374.21875"/>
     </g>
    </g>
   </g>
  </g>
 </g>
 <defs>
  <clipPath id="p2663c5d741">
   <rect x="54.02" y="10.8" width="367.18" height="379.24"/>
  </clipPath>
 </defs>
</svg>
